<?xml version="1.0" encoding="utf-8"?>
<!-- Generator: Adobe Illustrator 15.1.0, SVG Export Plug-In . SVG Version: 6.00 Build 0)  -->
<!DOCTYPE svg PUBLIC "-//W3C//DTD SVG 1.1//EN" "http://www.w3.org/Graphics/SVG/1.1/DTD/svg11.dtd">
<svg version="1.1" id="Layer_1" xmlns="http://www.w3.org/2000/svg" xmlns:xlink="http://www.w3.org/1999/xlink" x="0px" y="0px"
	 width="796.271px" height="590.637px" viewBox="0 0 796.271 590.637" enable-background="new 0 0 796.271 590.637"
	 xml:space="preserve">
<line fill="none" stroke="#231F20" stroke-miterlimit="10" x1="460.271" y1="291.214" x2="460.271" y2="229.503"/>
<line fill="none" stroke="#231F20" stroke-miterlimit="10" x1="460.271" y1="211.026" x2="460.271" y2="164.503"/>
<line fill="none" stroke="#231F20" stroke-miterlimit="10" x1="460.271" y1="147.028" x2="460.271" y2="90.758"/>
<line fill="none" stroke="#231F20" stroke-miterlimit="10" x1="460.271" y1="71.282" x2="460.271" y2="14.459"/>
<line fill="none" stroke="#231F20" stroke-miterlimit="10" x1="377.317" y1="412.478" x2="377.317" y2="442.407"/>
<g>
	<text transform="matrix(0 1 -1 0 125.2734 310.2422)" fill="#231F20" font-family="'FlamaSemicondensed-Book'" font-size="14">2001</text>
	<text transform="matrix(0 1 -1 0 207.9668 310.2412)" fill="#231F20" font-family="'FlamaSemicondensed-Book'" font-size="14">2002</text>
	<text transform="matrix(0 1 -1 0 290.6621 310.2422)" fill="#231F20" font-family="'FlamaSemicondensed-Book'" font-size="14">2003</text>
	<text transform="matrix(0 1 -1 0 373.3555 310.2412)" fill="#231F20" font-family="'FlamaSemicondensed-Book'" font-size="14">2004</text>
	<text transform="matrix(0 1 -1 0 456.0488 310.2422)" fill="#231F20" font-family="'FlamaSemicondensed-Book'" font-size="14">2005</text>
	<text transform="matrix(0 1 -1 0 538.7422 310.2412)" fill="#231F20" font-family="'FlamaSemicondensed-Book'" font-size="14">2006</text>
	<text transform="matrix(0 1 -1 0 621.4375 310.2412)" fill="#231F20" font-family="'FlamaSemicondensed-Book'" font-size="14">2007</text>
	<text transform="matrix(0 1 -1 0 704.1309 310.2422)" fill="#231F20" font-family="'FlamaSemicondensed-Book'" font-size="14">2008</text>
</g>
<line fill="none" stroke="#BBBDBF" stroke-width="0.5" stroke-miterlimit="10" x1="0" y1="296.369" x2="774" y2="296.369"/>
<line fill="none" stroke="#BBBDBF" stroke-width="0.5" stroke-miterlimit="10" x1="0" y1="352.478" x2="774" y2="352.478"/>
<line fill="none" stroke="#231F20" stroke-miterlimit="10" x1="130.553" y1="160.81" x2="130.553" y2="291.214"/>
<circle fill="none" stroke="#231F20" stroke-width="4" stroke-miterlimit="10" cx="130.553" cy="154.403" r="5.282"/>
<line fill="none" stroke="#231F20" stroke-miterlimit="10" x1="212.767" y1="358.478" x2="212.767" y2="395.298"/>
<circle fill="none" stroke="#231F20" stroke-width="4" stroke-miterlimit="10" cx="212.766" cy="399.197" r="5.282"/>
<line fill="none" stroke="#231F20" stroke-miterlimit="10" x1="377.317" y1="358.478" x2="377.317" y2="395.298"/>
<circle fill="none" stroke="#231F20" stroke-width="4" stroke-miterlimit="10" cx="377.316" cy="399.197" r="5.282"/>
<rect x="147.864" y="148.121" fill="none" width="118.406" height="66.043"/>
<text transform="matrix(1 0 0 1 147.8638 158.0264)"><tspan x="0" y="0" fill="#231F20" font-family="'RobotoCondensed-Regular'" font-size="13">05.2001</tspan><tspan x="0" y="15.6" fill="#231F20" font-family="'RobotoCondensed-Light'" font-size="13">Metro do Porto receives </tspan><tspan x="0" y="31.199" fill="#231F20" font-family="'RobotoCondensed-Light'" font-size="13">the first vehicle in its </tspan><tspan x="0" y="46.8" fill="#231F20" font-family="'RobotoCondensed-Light'" font-size="13">fleet, the Eurotram 001</tspan></text>
<rect x="231.985" y="393.395" fill="none" width="82.426" height="94.588"/>
<text transform="matrix(1 0 0 1 231.9858 403.3008)"><tspan x="0" y="0" fill="#231F20" font-family="'RobotoCondensed-Regular'" font-size="13">06.2002 </tspan><tspan x="0" y="15.6" fill="#231F20" font-family="'RobotoCondensed-Light'" font-size="13">First regular trip </tspan><tspan x="0" y="31.199" fill="#231F20" font-family="'RobotoCondensed-Light'" font-size="13">with passengers</tspan></text>
<rect x="642.985" y="33.876" fill="none" width="131.527" height="170.234"/>
<text transform="matrix(1 0 0 1 642.9863 43.7822)"><tspan x="0" y="0" fill="#231F20" font-family="'RobotoCondensed-Regular'" font-size="13">05.2007</tspan><tspan x="0" y="15.6" fill="#231F20" font-family="'RobotoCondensed-Light'" font-size="13">Signing of Memorandum </tspan><tspan x="0" y="31.199" fill="#231F20" font-family="'RobotoCondensed-Light'" font-size="13">of Understanding between </tspan><tspan x="0" y="46.8" fill="#231F20" font-family="'RobotoCondensed-Light'" font-size="13">the Ministry of Public </tspan><tspan x="0" y="62.399" fill="#231F20" font-family="'RobotoCondensed-Light'" font-size="13">Works, Transport and </tspan><tspan x="0" y="78" fill="#231F20" font-family="'RobotoCondensed-Light'" font-size="13">Communications and the </tspan><tspan x="0" y="93.6" fill="#231F20" font-family="'RobotoCondensed-Light'" font-size="13">Junta Metropolitana do </tspan><tspan x="0" y="109.199" fill="#231F20" font-family="'RobotoCondensed-Light'" font-size="13">Porto related to the </tspan><tspan x="0" y="124.8" fill="#231F20" font-family="'RobotoCondensed-Light'" font-size="13">development of the </tspan><tspan x="0" y="140.399" fill="#231F20" font-family="'RobotoCondensed-Light'" font-size="13">SMLAMP</tspan></text>
<rect x="642.985" y="203.045" fill="none" width="120.527" height="110.995"/>
<text transform="matrix(1 0 0 1 642.9863 212.9512)"><tspan x="0" y="0" fill="#231F20" font-family="'RobotoCondensed-Regular'" font-size="13">10.2007</tspan><tspan x="0" y="15.6" fill="#231F20" font-family="'RobotoCondensed-Light'" font-size="13">Record month (to date) </tspan><tspan x="0" y="31.199" fill="#231F20" font-family="'RobotoCondensed-Light'" font-size="13">of the use of the metro </tspan><tspan x="0" y="46.8" fill="#231F20" font-family="'RobotoCondensed-Light'" font-size="13">network—23,691,571 </tspan><tspan x="0" y="62.399" fill="#231F20" font-family="'RobotoCondensed-Light'" font-size="13">passengers</tspan></text>
<line fill="none" stroke="#231F20" stroke-miterlimit="10" x1="296.664" y1="237.011" x2="296.664" y2="291.214"/>
<circle fill="none" stroke="#FEDE50" stroke-width="4" stroke-miterlimit="10" cx="296.664" cy="231.729" r="5.282"/>
<line fill="none" stroke="#231F20" stroke-miterlimit="10" x1="296.664" y1="160.761" x2="296.664" y2="219.164"/>
<circle fill="none" stroke="#29ABE2" stroke-width="4" stroke-miterlimit="10" cx="296.664" cy="155.479" r="5.282"/>
<rect x="315.257" y="149.121" fill="none" width="132.014" height="65.043"/>
<text transform="matrix(1 0 0 1 315.2568 159.0264)"><tspan x="0" y="0" fill="#231F20" font-family="'RobotoCondensed-Regular'" font-size="13">01.2003 </tspan><tspan x="0" y="15.6" fill="#231F20" font-family="'RobotoCondensed-Regular'" font-size="13">Trinidade—</tspan><tspan x="0" y="31.199" fill="#231F20" font-family="'RobotoCondensed-Regular'" font-size="13">Senhor de Matosinhos </tspan><tspan x="0" y="46.8" fill="#231F20" font-family="'RobotoCondensed-Light'" font-size="13">11826 meters, 18 stations</tspan></text>
<rect x="315.257" y="225.371" fill="none" width="105.501" height="60.39"/>
<text transform="matrix(1 0 0 1 315.2568 235.2773)"><tspan x="0" y="0" fill="#231F20" font-family="'RobotoCondensed-Regular'" font-size="13">03.2003</tspan><tspan x="0" y="15.6" fill="#231F20" font-family="'RobotoCondensed-Regular'" font-size="13">Infante Bridge</tspan></text>
<circle fill="none" stroke="#29ABE2" stroke-width="4" stroke-miterlimit="10" cx="377.316" cy="447.688" r="5.282"/>
<line fill="none" stroke="#231F20" stroke-miterlimit="10" x1="543.658" y1="412.478" x2="543.658" y2="449.407"/>
<line fill="none" stroke="#231F20" stroke-miterlimit="10" x1="543.658" y1="358.478" x2="543.658" y2="395.298"/>
<circle fill="none" stroke="#DB4145" stroke-width="4" stroke-miterlimit="10" cx="543.657" cy="399.197" r="5.282"/>
<circle fill="none" stroke="#8CC541" stroke-width="4" stroke-miterlimit="10" cx="543.657" cy="454.688" r="5.282"/>
<line fill="none" stroke="#231F20" stroke-miterlimit="10" x1="543.658" y1="467.478" x2="543.658" y2="489.407"/>
<circle fill="none" stroke="#FEDE50" stroke-width="4" stroke-miterlimit="10" cx="543.657" cy="493.688" r="5.282"/>
<line fill="none" stroke="#231F20" stroke-miterlimit="10" x1="543.658" y1="506.478" x2="543.658" y2="536.407"/>
<circle fill="none" stroke="#A871AE" stroke-width="4" stroke-miterlimit="10" cx="543.657" cy="541.688" r="5.282"/>
<rect x="395.71" y="394.298" fill="none" width="129.561" height="38.399"/>
<text transform="matrix(1 0 0 1 395.71 404.2031)"><tspan x="0" y="0" fill="#231F20" font-family="'RobotoCondensed-Regular'" font-size="13">02.2004 </tspan><tspan x="0" y="15.6" fill="#231F20" font-family="'RobotoCondensed-Regular'" font-size="13">Guindais Funicular</tspan></text>
<line fill="none" stroke="#231F20" stroke-miterlimit="10" x1="624.933" y1="195.693" x2="624.933" y2="42.679"/>
<line fill="none" stroke="#231F20" stroke-miterlimit="10" x1="624.937" y1="291.214" x2="624.937" y2="214.163"/>
<circle fill="none" stroke="#231F20" stroke-width="4" stroke-miterlimit="10" cx="624.939" cy="208.188" r="5.282"/>
<circle fill="none" stroke="#231F20" stroke-width="4" stroke-miterlimit="10" cx="624.939" cy="38.957" r="5.282"/>
<rect x="395.71" y="442.407" fill="none" width="124.561" height="72.07"/>
<text transform="matrix(1 0 0 1 395.71 452.3135)"><tspan x="0" y="0" fill="#231F20" font-family="'RobotoCondensed-Regular'" font-size="13">06.2004</tspan><tspan x="0" y="15.6" fill="#231F20" font-family="'RobotoCondensed-Regular'" font-size="13">Estádio do Dragão—</tspan><tspan x="0" y="31.199" fill="#231F20" font-family="'RobotoCondensed-Regular'" font-size="13">Trindade </tspan><tspan x="0" y="46.8" fill="#231F20" font-family="'RobotoCondensed-Light'" font-size="13">3,823 meters, 18 stations</tspan></text>
<circle fill="none" stroke="#DB4145" stroke-width="4" stroke-miterlimit="10" cx="460.27" cy="7.282" r="5.282"/>
<rect x="478.474" y="2" fill="none" width="179.797" height="66.282"/>
<text transform="matrix(1 0 0 1 478.4736 11.9053)"><tspan x="0" y="0" fill="#231F20" font-family="'RobotoCondensed-Regular'" font-size="13">03.2005</tspan><tspan x="0" y="15.6" fill="#231F20" font-family="'RobotoCondensed-Regular'" font-size="13">Senhora da Hora—</tspan><tspan x="0" y="31.199" fill="#231F20" font-family="'RobotoCondensed-Regular'" font-size="13">Pedras Rubras </tspan><tspan x="0" y="46.8" fill="#231F20" font-family="'RobotoCondensed-Light'" font-size="13">6,744 meters, 15 stations</tspan></text>
<rect x="563.474" y="394.298" fill="none" width="179.797" height="52.391"/>
<text transform="matrix(1 0 0 1 563.4736 404.2031)"><tspan x="0" y="0" fill="#231F20" font-family="'RobotoCondensed-Regular'" font-size="13">03.2006</tspan><tspan x="0" y="15.6" fill="#231F20" font-family="'RobotoCondensed-Regular'" font-size="13">Pedras Rubras—Póvoa do Varzim </tspan><tspan x="0" y="31.199" fill="#231F20" font-family="'RobotoCondensed-Light'" font-size="13">17,228 meters, 15 stations</tspan></text>
<rect x="563.474" y="449.103" fill="none" width="179.797" height="52.392"/>
<text transform="matrix(1 0 0 1 563.4736 459.0088)"><tspan x="0" y="0" fill="#231F20" font-family="'RobotoCondensed-Regular'" font-size="13">Fórum da Maia—ISMAI </tspan><tspan x="0" y="15.6" fill="#231F20" font-family="'RobotoCondensed-Light'" font-size="13">4,484 meters, 4 stations</tspan></text>
<rect x="563.474" y="488.154" fill="none" width="232.797" height="37.482"/>
<text transform="matrix(1 0 0 1 563.4736 498.0605)"><tspan x="0" y="0" fill="#231F20" font-family="'RobotoCondensed-Regular'" font-size="13">Pólo Universitário—Hospital de São João </tspan><tspan x="0" y="15.6" fill="#231F20" font-family="'RobotoCondensed-Light'" font-size="13">1,180 meters, 2 stations</tspan></text>
<rect x="563.474" y="537.207" fill="none" width="232.797" height="53.43"/>
<text transform="matrix(1 0 0 1 563.4736 547.1123)"><tspan x="0" y="0" fill="#231F20" font-family="'RobotoCondensed-Regular'" font-size="13">5.2006</tspan><tspan x="0" y="15.6" fill="#231F20" font-family="'RobotoCondensed-Regular'" font-size="13">Verdes—Aeroporto </tspan><tspan x="0" y="31.199" fill="#231F20" font-family="'RobotoCondensed-Light'" font-size="13">1,480 meters, 3 stations</tspan></text>
<circle fill="none" stroke="#8CC541" stroke-width="4" stroke-miterlimit="10" cx="460.27" cy="84.581" r="5.282"/>
<rect x="478.849" y="79.1" fill="none" width="130.664" height="72.656"/>
<text transform="matrix(1 0 0 1 478.8486 89.0059)"><tspan x="0" y="0" fill="#231F20" font-family="'RobotoCondensed-Regular'" font-size="13">06.2005 </tspan><tspan x="0" y="15.6" fill="#231F20" font-family="'RobotoCondensed-Regular'" font-size="13">Fonte do Cuco—</tspan><tspan x="0" y="31.199" fill="#231F20" font-family="'RobotoCondensed-Regular'" font-size="13">Fórum da Maia  </tspan><tspan x="0" y="46.8" fill="#231F20" font-family="'RobotoCondensed-Light'" font-size="13">6,744 meters, 15 stations</tspan></text>
<circle fill="none" stroke="#FEDE50" stroke-width="4" stroke-miterlimit="10" cx="460.27" cy="160.221" r="5.282"/>
<rect x="478.849" y="154.74" fill="none" width="117.611" height="52.008"/>
<text transform="matrix(1 0 0 1 478.8486 164.6465)"><tspan x="0" y="0" fill="#231F20" font-family="'RobotoCondensed-Regular'" font-size="13">09.2005 </tspan><tspan x="0" y="15.6" fill="#231F20" font-family="'RobotoCondensed-Regular'" font-size="13">Câmara de Gaia </tspan><tspan x="0" y="31.199" fill="#231F20" font-family="'RobotoCondensed-Light'" font-size="13">1,180 meters, 2 stations</tspan></text>
<circle fill="none" stroke="#FEDE50" stroke-width="4" stroke-miterlimit="10" cx="460.27" cy="224.221" r="5.282"/>
<rect x="478.849" y="218.74" fill="none" width="112.664" height="79.466"/>
<text transform="matrix(1 0 0 1 478.8486 228.6465)"><tspan x="0" y="0" fill="#231F20" font-family="'RobotoCondensed-Regular'" font-size="13">12.2005 </tspan><tspan x="0" y="15.6" fill="#231F20" font-family="'RobotoCondensed-Regular'" font-size="13">João de Deus— </tspan><tspan x="0" y="31.199" fill="#231F20" font-family="'RobotoCondensed-Regular'" font-size="13">Câmara de Gaia </tspan><tspan x="0" y="46.8" fill="#231F20" font-family="'RobotoCondensed-Light'" font-size="13">405 meters, 1 station</tspan></text>
</svg>
