<?xml version="1.0" encoding="utf-8"?>
<!-- Generator: Adobe Illustrator 15.1.0, SVG Export Plug-In . SVG Version: 6.00 Build 0)  -->
<!DOCTYPE svg PUBLIC "-//W3C//DTD SVG 1.1//EN" "http://www.w3.org/Graphics/SVG/1.1/DTD/svg11.dtd">
<svg version="1.1" id="Layer_1" xmlns="http://www.w3.org/2000/svg" xmlns:xlink="http://www.w3.org/1999/xlink" x="0px" y="0px"
	 width="772px" height="380px" viewBox="0 0 772 380" enable-background="new 0 0 772 380" xml:space="preserve">
<g>
	<line fill="none" stroke="#BBBDBF" stroke-width="0.5" stroke-miterlimit="10" x1="0" y1="323.873" x2="772" y2="323.873"/>
	<line fill="none" stroke="#BBBDBF" stroke-width="0.5" stroke-miterlimit="10" x1="0" y1="379.186" x2="772" y2="379.186"/>
</g>
<g id="x-axis">
	<text transform="matrix(0 1 -1 0 7.54 337.3359)" fill="#231F20" font-family="'FlamaSemicondensed-Book'" font-size="14">1989</text>
	<text transform="matrix(0 1 -1 0 59.6729 337.335)" fill="#231F20" font-family="'FlamaSemicondensed-Book'" font-size="14">1990</text>
	<text transform="matrix(0 1 -1 0 111.8037 337.3359)" fill="#231F20" font-family="'FlamaSemicondensed-Book'" font-size="14">1991</text>
	<text transform="matrix(0 1 -1 0 163.9365 337.335)" fill="#231F20" font-family="'FlamaSemicondensed-Book'" font-size="14">1992</text>
	<text transform="matrix(0 1 -1 0 216.0674 337.3359)" fill="#231F20" font-family="'FlamaSemicondensed-Book'" font-size="14">1993</text>
	<text transform="matrix(0 1 -1 0 268.2002 337.335)" fill="#231F20" font-family="'FlamaSemicondensed-Book'" font-size="14">1994</text>
	<text transform="matrix(0 1 -1 0 320.332 337.3359)" fill="#231F20" font-family="'FlamaSemicondensed-Book'" font-size="14">1995</text>
	<text transform="matrix(0 1 -1 0 372.4648 337.3359)" fill="#231F20" font-family="'FlamaSemicondensed-Book'" font-size="14">1996</text>
	<text transform="matrix(0 1 -1 0 424.5977 337.3359)" fill="#231F20" font-family="'FlamaSemicondensed-Book'" font-size="14">1997</text>
	<text transform="matrix(0 1 -1 0 476.7305 337.3359)" fill="#231F20" font-family="'FlamaSemicondensed-Book'" font-size="14">1998</text>
	<text transform="matrix(0 1 -1 0 528.8594 337.3359)" fill="#231F20" font-family="'FlamaSemicondensed-Book'" font-size="14">1999</text>
	<text transform="matrix(0 1 -1 0 580.9922 337.335)" fill="#231F20" font-family="'FlamaSemicondensed-Book'" font-size="14">2000</text>
</g>
<g id="points">
	<g id="study">
		<line fill="none" stroke="#231F20" stroke-miterlimit="10" x1="12.822" y1="169.074" x2="12.822" y2="318.568"/>
		<circle fill="none" stroke="#231F20" stroke-width="4" stroke-miterlimit="10" cx="12.822" cy="163.467" r="5.282"/>
		<rect x="31.133" y="157.807" fill="none" width="151.406" height="141"/>
		<text transform="matrix(1 0 0 1 31.1328 167.7139)" fill="#231F20" font-family="'RobotoCondensed-Regular'" font-size="13">09.1989</text>
		<text transform="matrix(1 0 0 1 31.1328 183.3135)" fill="#231F20" font-family="'RobotoCondensed-Light'" font-size="13">The study &lt;&lt;Collective </text>
		<text transform="matrix(1 0 0 1 31.1328 198.9131)" fill="#231F20" font-family="'RobotoCondensed-Light'" font-size="13">Transport in Own Site&gt;&gt; </text>
		<text transform="matrix(1 0 0 1 31.1328 214.5137)" fill="#231F20" font-family="'RobotoCondensed-Light'" font-size="13">realized by the STCP, proposes </text>
		<text transform="matrix(1 0 0 1 31.1328 230.1133)" fill="#231F20" font-family="'RobotoCondensed-Light'" font-size="13">the light rail as a solution to </text>
		<text transform="matrix(1 0 0 1 31.1328 245.7139)" fill="#231F20" font-family="'RobotoCondensed-Light'" font-size="13">the mobility problems in the </text>
		<text transform="matrix(1 0 0 1 31.1328 261.3135)" fill="#231F20" font-family="'RobotoCondensed-Light'" font-size="13">Porto Metropolitan Area</text>
	</g>
	<g id="construction">
		<line fill="none" stroke="#231F20" stroke-miterlimit="10" x1="220.539" y1="318.568" x2="220.539" y2="13.42"/>
		<circle fill="none" stroke="#231F20" stroke-width="4" stroke-miterlimit="10" cx="220.539" cy="8.139" r="5.282"/>
		<rect x="239.448" y="2.028" fill="none" width="159.373" height="125.281"/>
		<text transform="matrix(1 0 0 1 239.4482 11.9346)" fill="#231F20" font-family="'RobotoCondensed-Regular'" font-size="13">03.1993</text>
		<text transform="matrix(1 0 0 1 239.4482 27.5342)" fill="#231F20" font-family="'RobotoCondensed-Light'" font-size="13">Construction of Metro do Porto, </text>
		<text transform="matrix(1 0 0 1 239.4482 43.1338)" fill="#231F20" font-family="'RobotoCondensed-Light'" font-size="13">S.A. pelo Decree-law n 71/93, </text>
		<text transform="matrix(1 0 0 1 239.4482 58.7344)" fill="#231F20" font-family="'RobotoCondensed-Light'" font-size="13">which established the first legal </text>
		<text transform="matrix(1 0 0 1 239.4482 74.334)" fill="#231F20" font-family="'RobotoCondensed-Light'" font-size="13">regime of the operation of a light </text>
		<text transform="matrix(1 0 0 1 239.4482 89.9346)" fill="#231F20" font-family="'RobotoCondensed-Light'" font-size="13">rail system of the Porto </text>
		<text transform="matrix(1 0 0 1 239.4482 105.5342)" fill="#231F20" font-family="'RobotoCondensed-Light'" font-size="13">Metropolitan Area (SMLAMP)</text>
	</g>
	<g id="launch">
		<line fill="none" stroke="#231F20" stroke-miterlimit="10" x1="273.811" y1="318.568" x2="273.811" y2="168.741"/>
		<circle fill="none" stroke="#231F20" stroke-width="4" stroke-miterlimit="10" cx="273.811" cy="163.467" r="5.282"/>
		<rect x="291.529" y="157.807" fill="none" width="165.01" height="128.812"/>
		<text transform="matrix(1 0 0 1 291.5288 167.7139)" fill="#231F20" font-family="'RobotoCondensed-Regular'" font-size="13">12.1994</text>
		<text transform="matrix(1 0 0 1 291.5288 183.3135)" fill="#231F20" font-family="'RobotoCondensed-Light'" font-size="13">Launch of International Public </text>
		<text transform="matrix(1 0 0 1 291.5288 198.9131)" fill="#231F20" font-family="'RobotoCondensed-Light'" font-size="13">Competition of Prequalification </text>
		<text transform="matrix(1 0 0 1 291.5288 214.5137)" fill="#231F20" font-family="'RobotoCondensed-Light'" font-size="13">for conception, construction, </text>
		<text transform="matrix(1 0 0 1 291.5288 230.1133)" fill="#231F20" font-family="'RobotoCondensed-Light'" font-size="13">equipment and operation of </text>
		<text transform="matrix(1 0 0 1 291.5288 245.7139)" fill="#231F20" font-family="'RobotoCondensed-Light'" font-size="13">Statutes Metro do Porto</text>
	</g>
	<g id="award">
		<line fill="none" stroke="#231F20" stroke-miterlimit="10" x1="480.012" y1="318.568" x2="480.012" y2="13.42"/>
		<circle fill="none" stroke="#231F20" stroke-width="4" stroke-miterlimit="10" cx="480.011" cy="8.139" r="5.282"/>
		<rect x="498.282" y="2.856" fill="none" width="252.257" height="106.662"/>
		<text transform="matrix(1 0 0 1 498.2822 12.7617)" fill="#231F20" font-family="'RobotoCondensed-Regular'" font-size="13">12.1998</text>
		<text transform="matrix(1 0 0 1 498.2822 28.3613)" fill="#231F20" font-family="'RobotoCondensed-Light'" font-size="13">Award of Project to Agrupamento Complementar </text>
		<text transform="matrix(1 0 0 1 498.2822 43.9609)" fill="#231F20" font-family="'RobotoCondensed-Light'" font-size="13">de Empresas (ACE) Normetro Approval of </text>
		<text transform="matrix(1 0 0 1 498.2822 59.5615)" fill="#231F20" font-family="'RobotoCondensed-Light'" font-size="13">Decree-Law 394A/98 that gives to the company </text>
		<text transform="matrix(1 0 0 1 498.2822 75.1611)" fill="#231F20" font-family="'RobotoCondensed-Light'" font-size="13">Metro do Porto, S.A. the statute of dealership </text>
		<text transform="matrix(1 0 0 1 498.2822 90.7617)" fill="#231F20" font-family="'RobotoCondensed-Light'" font-size="13">SMLAMP for a period of 50 years</text>
	</g>
	<g id="opening">
		<line fill="none" stroke="#231F20" stroke-miterlimit="10" x1="533.952" y1="318.568" x2="533.952" y2="127.31"/>
		<circle fill="none" stroke="#231F20" stroke-width="4" stroke-miterlimit="10" cx="533.953" cy="122.028" r="5.282"/>
		<rect x="552.315" y="116.568" fill="none" width="169.224" height="49.815"/>
		<text transform="matrix(1 0 0 1 552.3154 126.4746)" fill="#231F20" font-family="'RobotoCondensed-Regular'" font-size="13">12.1999</text>
		<text transform="matrix(1 0 0 1 552.3154 142.0742)" fill="#231F20" font-family="'RobotoCondensed-Light'" font-size="13">Opening of the first work front of </text>
		<text transform="matrix(1 0 0 1 552.3154 157.6738)" fill="#231F20" font-family="'RobotoCondensed-Light'" font-size="13">Metro do Porto in Campanhã</text>
	</g>
	<g id="start-of-work">
		<line fill="none" stroke="#231F20" stroke-miterlimit="10" x1="586.396" y1="242.384" x2="586.396" y2="193.592"/>
		<circle fill="none" stroke="#FEDE50" stroke-width="4" stroke-miterlimit="10" cx="586.398" cy="188.311" r="5.282"/>
		<rect x="605.297" y="183.028" fill="none" width="110.102" height="78.705"/>
		<text transform="matrix(1 0 0 1 605.2969 192.9346)" fill="#231F20" font-family="'RobotoCondensed-Regular'" font-size="13">01.2000 </text>
		<text transform="matrix(1 0 0 1 605.2969 208.5342)" fill="#231F20" font-family="'RobotoCondensed-Light'" font-size="13">Start of Work in the </text>
		<text transform="matrix(1 0 0 1 605.2969 224.1338)" fill="#231F20" font-family="'RobotoCondensed-Light'" font-size="13">Infante Bridge</text>
	</g>
	<g id="production">
		<line fill="none" stroke="#231F20" stroke-miterlimit="10" x1="586.396" y1="317.384" x2="586.396" y2="258.744"/>
		<circle fill="none" stroke="#231F20" stroke-width="4" stroke-miterlimit="10" cx="586.398" cy="255.384" r="5.282"/>
		<rect x="605.297" y="249.255" fill="none" width="167.242" height="64.129"/>
		<text transform="matrix(1 0 0 1 605.2969 259.1611)" fill="#231F20" font-family="'RobotoCondensed-Regular'" font-size="13">10.2000 </text>
		<text transform="matrix(1 0 0 1 605.2969 274.7607)" fill="#231F20" font-family="'RobotoCondensed-Light'" font-size="13">Production begins of the  </text>
		<text transform="matrix(1 0 0 1 605.2969 290.3604)" fill="#231F20" font-family="'RobotoCondensed-Light'" font-size="13">first vehicle in its fleet of  </text>
		<text transform="matrix(1 0 0 1 605.2969 305.9609)" fill="#231F20" font-family="'RobotoCondensed-Light'" font-size="13">Metro do Porto</text>
	</g>
</g>
</svg>
