<?xml version="1.0" encoding="utf-8"?>
<!-- Generator: Adobe Illustrator 15.1.0, SVG Export Plug-In . SVG Version: 6.00 Build 0)  -->
<!DOCTYPE svg PUBLIC "-//W3C//DTD SVG 1.1//EN" "http://www.w3.org/Graphics/SVG/1.1/DTD/svg11.dtd">
<svg version="1.1" id="Layer_1" xmlns="http://www.w3.org/2000/svg" xmlns:xlink="http://www.w3.org/1999/xlink" x="0px" y="0px"
	 width="796px" height="592px" viewBox="0 0 796 592" enable-background="new 0 0 796 592" xml:space="preserve">
<g>
	<line fill="none" stroke="#BBBDBF" stroke-width="0.5" stroke-miterlimit="10" x1="0" y1="298.051" x2="796" y2="298.051"/>
	<line fill="none" stroke="#BBBDBF" stroke-width="0.5" stroke-miterlimit="10" x1="0" y1="353.363" x2="796" y2="353.363"/>
</g>
<g id="y-axis-08">
	<text transform="matrix(0 1 -1 0 125.1387 311.9238)" fill="#231F20" font-family="'FlamaSemicondensed-Book'" font-size="14">2001</text>
	<text transform="matrix(0 1 -1 0 207.832 311.9229)" fill="#231F20" font-family="'FlamaSemicondensed-Book'" font-size="14">2002</text>
	<text transform="matrix(0 1 -1 0 290.5273 311.9238)" fill="#231F20" font-family="'FlamaSemicondensed-Book'" font-size="14">2003</text>
	<text transform="matrix(0 1 -1 0 373.2207 311.9229)" fill="#231F20" font-family="'FlamaSemicondensed-Book'" font-size="14">2004</text>
	<text transform="matrix(0 1 -1 0 455.9141 311.9238)" fill="#231F20" font-family="'FlamaSemicondensed-Book'" font-size="14">2005</text>
	<text transform="matrix(0 1 -1 0 538.6055 311.9229)" fill="#231F20" font-family="'FlamaSemicondensed-Book'" font-size="14">2006</text>
	<text transform="matrix(0 1 -1 0 621.3008 311.9229)" fill="#231F20" font-family="'FlamaSemicondensed-Book'" font-size="14">2007</text>
	<text transform="matrix(0 1 -1 0 703.9961 311.9238)" fill="#231F20" font-family="'FlamaSemicondensed-Book'" font-size="14">2008</text>
</g>
<g id="points-bottom">
	<g id="first-regular-trip">
		<line fill="none" stroke="#231F20" stroke-miterlimit="10" x1="212.631" y1="360.159" x2="212.631" y2="396.979"/>
		<circle fill="none" stroke="#231F20" stroke-width="4" stroke-miterlimit="10" cx="212.63" cy="400.879" r="5.282"/>
		<rect x="231.85" y="395.076" fill="none" width="82.426" height="94.588"/>
		<text transform="matrix(1 0 0 1 231.8506 404.9824)" fill="#231F20" font-family="'RobotoCondensed-Regular'" font-size="13">06.2002 </text>
		<text transform="matrix(1 0 0 1 231.8506 420.582)" fill="#231F20" font-family="'RobotoCondensed-Light'" font-size="13">First regular trip </text>
		<text transform="matrix(1 0 0 1 231.8506 436.1816)" fill="#231F20" font-family="'RobotoCondensed-Light'" font-size="13">with passengers</text>
	</g>
	<g id="guindais">
		<line fill="none" stroke="#231F20" stroke-miterlimit="10" x1="377.182" y1="360.159" x2="377.182" y2="396.979"/>
		<circle fill="none" stroke="#231F20" stroke-width="4" stroke-miterlimit="10" cx="377.181" cy="400.879" r="5.282"/>
		<rect x="395.575" y="395.979" fill="none" width="129.561" height="38.399"/>
		<text transform="matrix(1 0 0 1 395.5747 405.8848)" fill="#231F20" font-family="'RobotoCondensed-Regular'" font-size="13">02.2004 </text>
		<text transform="matrix(1 0 0 1 395.5747 421.4844)" fill="#231F20" font-family="'RobotoCondensed-Regular'" font-size="13">Guindais Funicular</text>
	</g>
	<g id="estadio-do-dragao">
		<line fill="none" stroke="#231F20" stroke-miterlimit="10" x1="377.182" y1="414.159" x2="377.182" y2="444.089"/>
		<circle fill="none" stroke="#29ABE2" stroke-width="4" stroke-miterlimit="10" cx="377.181" cy="449.37" r="5.282"/>
		<rect x="395.575" y="444.089" fill="none" width="124.561" height="72.07"/>
		<text transform="matrix(1 0 0 1 395.5747 453.9951)" fill="#231F20" font-family="'RobotoCondensed-Regular'" font-size="13">06.2004</text>
		<text transform="matrix(1 0 0 1 395.5747 469.5957)" fill="#231F20" font-family="'RobotoCondensed-Regular'" font-size="13">Estádio do Dragão—</text>
		<text transform="matrix(1 0 0 1 395.5747 485.1934)" fill="#231F20" font-family="'RobotoCondensed-Regular'" font-size="13">Trindade </text>
		<text transform="matrix(1 0 0 1 395.5747 500.7949)" fill="#231F20" font-family="'RobotoCondensed-Light'" font-size="13">3,823 meters, 18 stations</text>
	</g>
	<g id="pedras-rubras">
		<line fill="none" stroke="#231F20" stroke-miterlimit="10" x1="543.523" y1="360.159" x2="543.523" y2="396.979"/>
		<circle fill="none" stroke="#DB4145" stroke-width="4" stroke-miterlimit="10" cx="543.521" cy="400.879" r="5.282"/>
		<rect x="563.338" y="395.979" fill="none" width="179.797" height="52.392"/>
		<text transform="matrix(1 0 0 1 563.3379 405.8848)" fill="#231F20" font-family="'RobotoCondensed-Regular'" font-size="13">03.2006</text>
		<text transform="matrix(1 0 0 1 563.3379 421.4844)" fill="#231F20" font-family="'RobotoCondensed-Regular'" font-size="13">Pedras Rubras—Póvoa do Varzim </text>
		<text transform="matrix(1 0 0 1 563.3379 437.084)" fill="#231F20" font-family="'RobotoCondensed-Light'" font-size="13">17,228 meters, 15 stations</text>
	</g>
	<g id="forum-da-maia">
		<line fill="none" stroke="#231F20" stroke-miterlimit="10" x1="543.523" y1="414.159" x2="543.523" y2="451.089"/>
		<circle fill="none" stroke="#8CC541" stroke-width="4" stroke-miterlimit="10" cx="543.521" cy="456.37" r="5.282"/>
		<rect x="563.338" y="450.784" fill="none" width="179.797" height="52.392"/>
		<text transform="matrix(1 0 0 1 563.3379 460.6904)" fill="#231F20" font-family="'RobotoCondensed-Regular'" font-size="13">Fórum da Maia—ISMAI </text>
		<text transform="matrix(1 0 0 1 563.3379 476.291)" fill="#231F20" font-family="'RobotoCondensed-Light'" font-size="13">4,484 meters, 4 stations</text>
	</g>
	<g id="polo-universitario">
		<line fill="none" stroke="#231F20" stroke-miterlimit="10" x1="543.523" y1="469.159" x2="543.523" y2="491.089"/>
		<circle fill="none" stroke="#FEDE50" stroke-width="4" stroke-miterlimit="10" cx="543.521" cy="495.37" r="5.282"/>
		<rect x="563.338" y="489.836" fill="none" width="232.797" height="37.482"/>
		<text transform="matrix(1 0 0 1 563.3379 499.7422)" fill="#231F20" font-family="'RobotoCondensed-Regular'" font-size="13">Pólo Universitário—Hospital de São João </text>
		<text transform="matrix(1 0 0 1 563.3379 515.3418)" fill="#231F20" font-family="'RobotoCondensed-Light'" font-size="13">1,180 meters, 2 stations</text>
	</g>
	<g id="verdes-aeroporto">
		<line fill="none" stroke="#231F20" stroke-miterlimit="10" x1="543.523" y1="508.159" x2="543.523" y2="538.089"/>
		<circle fill="none" stroke="#A871AE" stroke-width="4" stroke-miterlimit="10" cx="543.521" cy="543.37" r="5.282"/>
		<rect x="563.338" y="538.889" fill="none" width="232.797" height="53.431"/>
		<text transform="matrix(1 0 0 1 563.3379 548.7939)" fill="#231F20" font-family="'RobotoCondensed-Regular'" font-size="13">5.2006</text>
		<text transform="matrix(1 0 0 1 563.3379 564.3945)" fill="#231F20" font-family="'RobotoCondensed-Regular'" font-size="13">Verdes—Aeroporto </text>
		<text transform="matrix(1 0 0 1 563.3379 579.9922)" fill="#231F20" font-family="'RobotoCondensed-Light'" font-size="13">1,480 meters, 3 stations</text>
	</g>
</g>
<g id="points-top">
	<g id="metro">
		<line fill="none" stroke="#231F20" stroke-miterlimit="10" x1="130.417" y1="162.491" x2="130.417" y2="292.896"/>
		<circle fill="none" stroke="#231F20" stroke-width="4" stroke-miterlimit="10" cx="130.418" cy="156.084" r="5.282"/>
		<rect x="147.729" y="149.802" fill="none" width="118.406" height="66.043"/>
		<text transform="matrix(1 0 0 1 147.7285 159.708)" fill="#231F20" font-family="'RobotoCondensed-Regular'" font-size="13">05.2001</text>
		<text transform="matrix(1 0 0 1 147.7285 175.3076)" fill="#231F20" font-family="'RobotoCondensed-Light'" font-size="13">Metro do Porto receives </text>
		<text transform="matrix(1 0 0 1 147.7285 190.9072)" fill="#231F20" font-family="'RobotoCondensed-Light'" font-size="13">the first vehicle in its </text>
		<text transform="matrix(1 0 0 1 147.7285 206.5078)" fill="#231F20" font-family="'RobotoCondensed-Light'" font-size="13">fleet, the Eurotram 001</text>
	</g>
	<g id="trinidade">
		<line fill="none" stroke="#231F20" stroke-miterlimit="10" x1="296.529" y1="162.442" x2="296.529" y2="220.846"/>
		<circle fill="none" stroke="#29ABE2" stroke-width="4" stroke-miterlimit="10" cx="296.529" cy="157.16" r="5.282"/>
		<rect x="315.122" y="150.802" fill="none" width="132.014" height="65.043"/>
		<text transform="matrix(1 0 0 1 315.1216 160.708)" fill="#231F20" font-family="'RobotoCondensed-Regular'" font-size="13">01.2003 </text>
		<text transform="matrix(1 0 0 1 315.1216 176.3076)" fill="#231F20" font-family="'RobotoCondensed-Regular'" font-size="13">Trinidade—</text>
		<text transform="matrix(1 0 0 1 315.1216 191.9072)" fill="#231F20" font-family="'RobotoCondensed-Regular'" font-size="13">Senhor de Matosinhos </text>
		<text transform="matrix(1 0 0 1 315.1216 207.5078)" fill="#231F20" font-family="'RobotoCondensed-Light'" font-size="13">11826 meters, 18 stations</text>
	</g>
	<g id="infante">
		<line fill="none" stroke="#231F20" stroke-miterlimit="10" x1="296.529" y1="238.692" x2="296.529" y2="292.896"/>
		<circle fill="none" stroke="#FEDE50" stroke-width="4" stroke-miterlimit="10" cx="296.529" cy="233.41" r="5.282"/>
		<rect x="315.122" y="227.053" fill="none" width="105.501" height="60.39"/>
		<text transform="matrix(1 0 0 1 315.1216 236.959)" fill="#231F20" font-family="'RobotoCondensed-Regular'" font-size="13">03.2003</text>
		<text transform="matrix(1 0 0 1 315.1216 252.5586)" fill="#231F20" font-family="'RobotoCondensed-Regular'" font-size="13">Infante Bridge</text>
	</g>
	<g id="record-month">
		<rect x="642.85" y="204.727" fill="none" width="120.527" height="110.996"/>
		<text transform="matrix(1 0 0 1 642.8516 214.6328)" fill="#231F20" font-family="'RobotoCondensed-Regular'" font-size="13">10.2007</text>
		<text transform="matrix(1 0 0 1 642.8516 230.2324)" fill="#231F20" font-family="'RobotoCondensed-Light'" font-size="13">Record month (to date) </text>
		<text transform="matrix(1 0 0 1 642.8516 245.832)" fill="#231F20" font-family="'RobotoCondensed-Light'" font-size="13">of the use of the metro </text>
		<text transform="matrix(1 0 0 1 642.8516 261.4326)" fill="#231F20" font-family="'RobotoCondensed-Light'" font-size="13">network—23,691,571 </text>
		<text transform="matrix(1 0 0 1 642.8516 277.0322)" fill="#231F20" font-family="'RobotoCondensed-Light'" font-size="13">passengers</text>
		<line fill="none" stroke="#231F20" stroke-miterlimit="10" x1="624.801" y1="292.896" x2="624.801" y2="215.845"/>
		<circle fill="none" stroke="#231F20" stroke-width="4" stroke-miterlimit="10" cx="624.804" cy="209.869" r="5.282"/>
	</g>
	<g id="signing">
		<rect x="642.85" y="35.558" fill="none" width="131.527" height="170.234"/>
		<text transform="matrix(1 0 0 1 642.8516 45.4639)" fill="#231F20" font-family="'RobotoCondensed-Regular'" font-size="13">05.2007</text>
		<text transform="matrix(1 0 0 1 642.8516 61.0635)" fill="#231F20" font-family="'RobotoCondensed-Light'" font-size="13">Signing of Memorandum </text>
		<text transform="matrix(1 0 0 1 642.8516 76.6631)" fill="#231F20" font-family="'RobotoCondensed-Light'" font-size="13">of Understanding between </text>
		<text transform="matrix(1 0 0 1 642.8516 92.2637)" fill="#231F20" font-family="'RobotoCondensed-Light'" font-size="13">the Ministry of Public </text>
		<text transform="matrix(1 0 0 1 642.8516 107.8633)" fill="#231F20" font-family="'RobotoCondensed-Light'" font-size="13">Works, Transport and </text>
		<text transform="matrix(1 0 0 1 642.8516 123.4639)" fill="#231F20" font-family="'RobotoCondensed-Light'" font-size="13">Communications and the </text>
		<text transform="matrix(1 0 0 1 642.8516 139.0635)" fill="#231F20" font-family="'RobotoCondensed-Light'" font-size="13">Junta Metropolitana do </text>
		<text transform="matrix(1 0 0 1 642.8516 154.6631)" fill="#231F20" font-family="'RobotoCondensed-Light'" font-size="13">Porto related to the </text>
		<text transform="matrix(1 0 0 1 642.8516 170.2637)" fill="#231F20" font-family="'RobotoCondensed-Light'" font-size="13">development of the </text>
		<text transform="matrix(1 0 0 1 642.8516 185.8633)" fill="#231F20" font-family="'RobotoCondensed-Light'" font-size="13">SMLAMP</text>
		<line fill="none" stroke="#231F20" stroke-miterlimit="10" x1="624.797" y1="197.375" x2="624.797" y2="44.361"/>
		<circle fill="none" stroke="#231F20" stroke-width="4" stroke-miterlimit="10" cx="624.804" cy="40.639" r="5.282"/>
	</g>
	<g id="senhora">
		<line fill="none" stroke="#231F20" stroke-miterlimit="10" x1="460.135" y1="72.963" x2="460.135" y2="16.141"/>
		<circle fill="none" stroke="#DB4145" stroke-width="4" stroke-miterlimit="10" cx="460.135" cy="8.963" r="5.282"/>
		<rect x="478.338" y="3.682" fill="none" width="179.797" height="66.282"/>
		<text transform="matrix(1 0 0 1 478.3379 13.5869)" fill="#231F20" font-family="'RobotoCondensed-Regular'" font-size="13">03.2005</text>
		<text transform="matrix(1 0 0 1 478.3379 29.1865)" fill="#231F20" font-family="'RobotoCondensed-Regular'" font-size="13">Senhora da Hora—</text>
		<text transform="matrix(1 0 0 1 478.3379 44.7861)" fill="#231F20" font-family="'RobotoCondensed-Regular'" font-size="13">Pedras Rubras </text>
		<text transform="matrix(1 0 0 1 478.3379 60.3867)" fill="#231F20" font-family="'RobotoCondensed-Light'" font-size="13">6,744 meters, 15 stations</text>
	</g>
	<g id="fonte-do-cuco">
		<line fill="none" stroke="#231F20" stroke-miterlimit="10" x1="460.135" y1="148.709" x2="460.135" y2="92.44"/>
		<circle fill="none" stroke="#8CC541" stroke-width="4" stroke-miterlimit="10" cx="460.135" cy="86.262" r="5.282"/>
		<rect x="478.713" y="80.782" fill="none" width="130.664" height="72.656"/>
		<text transform="matrix(1 0 0 1 478.7129 90.6875)" fill="#231F20" font-family="'RobotoCondensed-Regular'" font-size="13">06.2005 </text>
		<text transform="matrix(1 0 0 1 478.7129 106.2871)" fill="#231F20" font-family="'RobotoCondensed-Regular'" font-size="13">Fonte do Cuco—</text>
		<text transform="matrix(1 0 0 1 478.7129 121.8867)" fill="#231F20" font-family="'RobotoCondensed-Regular'" font-size="13">Fórum da Maia  </text>
		<text transform="matrix(1 0 0 1 478.7129 137.4873)" fill="#231F20" font-family="'RobotoCondensed-Light'" font-size="13">6,744 meters, 15 stations</text>
	</g>
	<g id="camara-de-gaia">
		<line fill="none" stroke="#231F20" stroke-miterlimit="10" x1="460.135" y1="212.708" x2="460.135" y2="166.185"/>
		<circle fill="none" stroke="#FEDE50" stroke-width="4" stroke-miterlimit="10" cx="460.135" cy="161.903" r="5.282"/>
		<rect x="478.713" y="156.422" fill="none" width="117.611" height="52.008"/>
		<text transform="matrix(1 0 0 1 478.7129 166.3281)" fill="#231F20" font-family="'RobotoCondensed-Regular'" font-size="13">09.2005 </text>
		<text transform="matrix(1 0 0 1 478.7129 181.9277)" fill="#231F20" font-family="'RobotoCondensed-Regular'" font-size="13">Câmara de Gaia </text>
		<text transform="matrix(1 0 0 1 478.7129 197.5273)" fill="#231F20" font-family="'RobotoCondensed-Light'" font-size="13">1,180 meters, 2 stations</text>
	</g>
	<g id="joao-de-deus">
		<line fill="none" stroke="#231F20" stroke-miterlimit="10" x1="460.135" y1="292.896" x2="460.135" y2="231.185"/>
		<circle fill="none" stroke="#FEDE50" stroke-width="4" stroke-miterlimit="10" cx="460.135" cy="225.902" r="5.282"/>
		<rect x="478.713" y="220.422" fill="none" width="112.664" height="79.467"/>
		<text transform="matrix(1 0 0 1 478.7129 230.3281)" fill="#231F20" font-family="'RobotoCondensed-Regular'" font-size="13">12.2005 </text>
		<text transform="matrix(1 0 0 1 478.7129 245.9277)" fill="#231F20" font-family="'RobotoCondensed-Regular'" font-size="13">João de Deus— </text>
		<text transform="matrix(1 0 0 1 478.7129 261.5273)" fill="#231F20" font-family="'RobotoCondensed-Regular'" font-size="13">Câmara de Gaia </text>
		<text transform="matrix(1 0 0 1 478.7129 277.1279)" fill="#231F20" font-family="'RobotoCondensed-Light'" font-size="13">405 meters, 1 station</text>
	</g>
</g>
</svg>
