<?xml version="1.0" encoding="utf-8"?>
<!-- Generator: Adobe Illustrator 15.1.0, SVG Export Plug-In . SVG Version: 6.00 Build 0)  -->
<!DOCTYPE svg PUBLIC "-//W3C//DTD SVG 1.1//EN" "http://www.w3.org/Graphics/SVG/1.1/DTD/svg11.dtd">
<svg version="1.1" id="Layer_1" xmlns="http://www.w3.org/2000/svg" xmlns:xlink="http://www.w3.org/1999/xlink" x="0px" y="0px"
	 width="796px" height="592px" viewBox="0 0 796 592" enable-background="new 0 0 796 592" xml:space="preserve">
<g>
	<line fill="none" stroke="#BBBDBF" stroke-width="0.5" stroke-miterlimit="10" x1="0" y1="298.051" x2="796" y2="298.051"/>
	<line fill="none" stroke="#BBBDBF" stroke-width="0.5" stroke-miterlimit="10" x1="0" y1="353.363" x2="796" y2="353.363"/>
</g>
<g id="y-axis-08">
	<text transform="matrix(0 1 -1 0 125.1382 311.9238)" fill="#231F20" font-family="'FlamaSemicondensed-Book'" font-size="14">2001</text>
	<text transform="matrix(0 1 -1 0 207.8315 311.9229)" fill="#231F20" font-family="'FlamaSemicondensed-Book'" font-size="14">2002</text>
	<text transform="matrix(0 1 -1 0 290.5269 311.9238)" fill="#231F20" font-family="'FlamaSemicondensed-Book'" font-size="14">2003</text>
	<text transform="matrix(0 1 -1 0 373.2202 311.9229)" fill="#231F20" font-family="'FlamaSemicondensed-Book'" font-size="14">2004</text>
	<text transform="matrix(0 1 -1 0 455.9136 311.9238)" fill="#231F20" font-family="'FlamaSemicondensed-Book'" font-size="14">2005</text>
	<text transform="matrix(0 1 -1 0 538.6069 311.9229)" fill="#231F20" font-family="'FlamaSemicondensed-Book'" font-size="14">2006</text>
	<text transform="matrix(0 1 -1 0 621.3022 311.9229)" fill="#231F20" font-family="'FlamaSemicondensed-Book'" font-size="14">2007</text>
	<text transform="matrix(0 1 -1 0 703.9956 311.9238)" fill="#231F20" font-family="'FlamaSemicondensed-Book'" font-size="14">2008</text>
</g>
<g id="button-2008" display="none">
	<g display="inline">
		<polygon points="100.865,343.545 100.865,310.545 15.865,310.545 -0.135,327.045 15.865,343.545 		"/>
	</g>
	
		<text transform="matrix(1 0 0 1 21.0537 332.5449)" display="inline" fill="#FFFFFF" font-family="'FlamaSemicondensed-Book'" font-size="14">1989–2000</text>
</g>
<g id="points-bottom">
	<g id="first-regular-trip">
		<line fill="none" stroke="#231F20" stroke-miterlimit="10" x1="212.631" y1="360.159" x2="212.631" y2="396.979"/>
		<circle fill="none" stroke="#231F20" stroke-width="4" stroke-miterlimit="10" cx="212.63" cy="400.879" r="5.282"/>
		<rect x="231.85" y="395.076" fill="none" width="82.426" height="94.588"/>
		<text transform="matrix(1 0 0 1 231.8506 404.9824)"><tspan x="0" y="0" fill="#231F20" font-family="'RobotoCondensed-Regular'" font-size="13">06.2002 </tspan><tspan x="0" y="15.6" fill="#231F20" font-family="'RobotoCondensed-Light'" font-size="13">First regular trip </tspan><tspan x="0" y="31.199" fill="#231F20" font-family="'RobotoCondensed-Light'" font-size="13">with passengers</tspan></text>
	</g>
	<g id="guindais">
		<line fill="none" stroke="#231F20" stroke-miterlimit="10" x1="377.182" y1="360.159" x2="377.182" y2="396.979"/>
		<circle fill="none" stroke="#231F20" stroke-width="4" stroke-miterlimit="10" cx="377.181" cy="400.879" r="5.282"/>
		<rect x="395.575" y="395.979" fill="none" width="129.561" height="38.399"/>
		<text transform="matrix(1 0 0 1 395.5747 405.8848)"><tspan x="0" y="0" fill="#231F20" font-family="'RobotoCondensed-Regular'" font-size="13">02.2004 </tspan><tspan x="0" y="15.6" fill="#231F20" font-family="'RobotoCondensed-Regular'" font-size="13">Guindais Funicular</tspan></text>
	</g>
	<g id="estadio-do-dragao">
		<line fill="none" stroke="#231F20" stroke-miterlimit="10" x1="377.182" y1="414.159" x2="377.182" y2="444.089"/>
		<circle fill="none" stroke="#29ABE2" stroke-width="4" stroke-miterlimit="10" cx="377.181" cy="449.37" r="5.282"/>
		<rect x="395.575" y="444.089" fill="none" width="124.561" height="72.07"/>
		<text transform="matrix(1 0 0 1 395.5747 453.9951)"><tspan x="0" y="0" fill="#231F20" font-family="'RobotoCondensed-Regular'" font-size="13">06.2004</tspan><tspan x="0" y="15.6" fill="#231F20" font-family="'RobotoCondensed-Regular'" font-size="13">Estádio do Dragão—</tspan><tspan x="0" y="31.199" fill="#231F20" font-family="'RobotoCondensed-Regular'" font-size="13">Trindade </tspan><tspan x="0" y="46.8" fill="#231F20" font-family="'RobotoCondensed-Light'" font-size="13">3,823 meters, 18 stations</tspan></text>
	</g>
	<g id="pedras-rubras">
		<line fill="none" stroke="#231F20" stroke-miterlimit="10" x1="543.523" y1="360.159" x2="543.523" y2="396.979"/>
		<circle fill="none" stroke="#DB4145" stroke-width="4" stroke-miterlimit="10" cx="543.521" cy="400.879" r="5.282"/>
		<rect x="563.338" y="395.979" fill="none" width="179.797" height="52.391"/>
		<text transform="matrix(1 0 0 1 563.3384 405.8848)"><tspan x="0" y="0" fill="#231F20" font-family="'RobotoCondensed-Regular'" font-size="13">03.2006</tspan><tspan x="0" y="15.6" fill="#231F20" font-family="'RobotoCondensed-Regular'" font-size="13">Pedras Rubras—Póvoa do Varzim </tspan><tspan x="0" y="31.199" fill="#231F20" font-family="'RobotoCondensed-Light'" font-size="13">17,228 meters, 15 stations</tspan></text>
	</g>
	<g id="forum-da-maia">
		<line fill="none" stroke="#231F20" stroke-miterlimit="10" x1="543.523" y1="414.159" x2="543.523" y2="451.089"/>
		<circle fill="none" stroke="#8CC541" stroke-width="4" stroke-miterlimit="10" cx="543.521" cy="456.37" r="5.282"/>
		<rect x="563.338" y="450.784" fill="none" width="179.797" height="52.392"/>
		<text transform="matrix(1 0 0 1 563.3384 460.6904)"><tspan x="0" y="0" fill="#231F20" font-family="'RobotoCondensed-Regular'" font-size="13">Fórum da Maia—ISMAI </tspan><tspan x="0" y="15.6" fill="#231F20" font-family="'RobotoCondensed-Light'" font-size="13">4,484 meters, 4 stations</tspan></text>
	</g>
	<g id="polo-universitario">
		<line fill="none" stroke="#231F20" stroke-miterlimit="10" x1="543.523" y1="469.159" x2="543.523" y2="491.089"/>
		<circle fill="none" stroke="#FEDE50" stroke-width="4" stroke-miterlimit="10" cx="543.521" cy="495.37" r="5.282"/>
		<rect x="563.338" y="489.836" fill="none" width="232.797" height="37.482"/>
		<text transform="matrix(1 0 0 1 563.3384 499.7422)"><tspan x="0" y="0" fill="#231F20" font-family="'RobotoCondensed-Regular'" font-size="13">Pólo Universitário—Hospital de São João </tspan><tspan x="0" y="15.6" fill="#231F20" font-family="'RobotoCondensed-Light'" font-size="13">1,180 meters, 2 stations</tspan></text>
	</g>
	<g id="verdes-aeroporto">
		<line fill="none" stroke="#231F20" stroke-miterlimit="10" x1="543.523" y1="508.159" x2="543.523" y2="527.525"/>
		<circle fill="none" stroke="#A871AE" stroke-width="4" stroke-miterlimit="10" cx="543.521" cy="534.6" r="5.282"/>
		<rect x="563.338" y="529.015" fill="none" width="232.797" height="53.43"/>
		<text transform="matrix(1 0 0 1 563.3384 538.9199)"><tspan x="0" y="0" fill="#231F20" font-family="'RobotoCondensed-Regular'" font-size="13">5.2006</tspan><tspan x="0" y="15.6" fill="#231F20" font-family="'RobotoCondensed-Regular'" font-size="13">Verdes—Aeroporto </tspan><tspan x="0" y="31.199" fill="#231F20" font-family="'RobotoCondensed-Light'" font-size="13">1,480 meters, 3 stations</tspan></text>
	</g>
</g>
<g id="points-top">
	<g id="metro">
		<line fill="none" stroke="#231F20" stroke-miterlimit="10" x1="130.417" y1="162.491" x2="130.417" y2="292.896"/>
		<circle fill="none" stroke="#231F20" stroke-width="4" stroke-miterlimit="10" cx="130.418" cy="156.084" r="5.282"/>
		<rect x="147.729" y="149.802" fill="none" width="118.406" height="66.043"/>
		<text transform="matrix(1 0 0 1 147.7285 159.708)"><tspan x="0" y="0" fill="#231F20" font-family="'RobotoCondensed-Regular'" font-size="13">05.2001</tspan><tspan x="0" y="15.6" fill="#231F20" font-family="'RobotoCondensed-Light'" font-size="13">Metro do Porto receives </tspan><tspan x="0" y="31.199" fill="#231F20" font-family="'RobotoCondensed-Light'" font-size="13">the first vehicle in its </tspan><tspan x="0" y="46.8" fill="#231F20" font-family="'RobotoCondensed-Light'" font-size="13">fleet, the Eurotram 001</tspan></text>
	</g>
	<g id="trinidade">
		<line fill="none" stroke="#231F20" stroke-miterlimit="10" x1="296.529" y1="162.442" x2="296.529" y2="220.846"/>
		<circle fill="none" stroke="#29ABE2" stroke-width="4" stroke-miterlimit="10" cx="296.529" cy="157.16" r="5.282"/>
		<rect x="315.122" y="150.802" fill="none" width="132.014" height="65.043"/>
		<text transform="matrix(1 0 0 1 315.1216 160.708)"><tspan x="0" y="0" fill="#231F20" font-family="'RobotoCondensed-Regular'" font-size="13">01.2003 </tspan><tspan x="0" y="15.6" fill="#231F20" font-family="'RobotoCondensed-Regular'" font-size="13">Trinidade—</tspan><tspan x="0" y="31.199" fill="#231F20" font-family="'RobotoCondensed-Regular'" font-size="13">Senhor de Matosinhos </tspan><tspan x="0" y="46.8" fill="#231F20" font-family="'RobotoCondensed-Light'" font-size="13">11826 meters, 18 stations</tspan></text>
	</g>
	<g id="infante">
		<line fill="none" stroke="#231F20" stroke-miterlimit="10" x1="296.529" y1="238.692" x2="296.529" y2="292.896"/>
		<circle fill="none" stroke="#FEDE50" stroke-width="4" stroke-miterlimit="10" cx="296.529" cy="233.41" r="5.282"/>
		<rect x="315.122" y="227.053" fill="none" width="105.501" height="60.39"/>
		<text transform="matrix(1 0 0 1 315.1216 236.959)"><tspan x="0" y="0" fill="#231F20" font-family="'RobotoCondensed-Regular'" font-size="13">03.2003</tspan><tspan x="0" y="15.6" fill="#231F20" font-family="'RobotoCondensed-Regular'" font-size="13">Infante Bridge</tspan></text>
	</g>
	<g id="record-month">
		<rect x="642.85" y="204.727" fill="none" width="120.527" height="110.995"/>
		<text transform="matrix(1 0 0 1 642.8511 214.6328)"><tspan x="0" y="0" fill="#231F20" font-family="'RobotoCondensed-Regular'" font-size="13">10.2007</tspan><tspan x="0" y="15.6" fill="#231F20" font-family="'RobotoCondensed-Light'" font-size="13">Record month (to date) </tspan><tspan x="0" y="31.199" fill="#231F20" font-family="'RobotoCondensed-Light'" font-size="13">of the use of the metro </tspan><tspan x="0" y="46.8" fill="#231F20" font-family="'RobotoCondensed-Light'" font-size="13">network—23,691,571 </tspan><tspan x="0" y="62.399" fill="#231F20" font-family="'RobotoCondensed-Light'" font-size="13">passengers</tspan></text>
		<line fill="none" stroke="#231F20" stroke-miterlimit="10" x1="624.801" y1="292.896" x2="624.801" y2="215.845"/>
		<circle fill="none" stroke="#231F20" stroke-width="4" stroke-miterlimit="10" cx="624.804" cy="209.869" r="5.282"/>
	</g>
	<g id="signing">
		<rect x="642.85" y="35.558" fill="none" width="131.527" height="170.234"/>
		<text transform="matrix(1 0 0 1 642.8511 45.4639)"><tspan x="0" y="0" fill="#231F20" font-family="'RobotoCondensed-Regular'" font-size="13">05.2007</tspan><tspan x="0" y="15.6" fill="#231F20" font-family="'RobotoCondensed-Light'" font-size="13">Signing of Memorandum </tspan><tspan x="0" y="31.199" fill="#231F20" font-family="'RobotoCondensed-Light'" font-size="13">of Understanding between </tspan><tspan x="0" y="46.8" fill="#231F20" font-family="'RobotoCondensed-Light'" font-size="13">the Ministry of Public </tspan><tspan x="0" y="62.399" fill="#231F20" font-family="'RobotoCondensed-Light'" font-size="13">Works, Transport and </tspan><tspan x="0" y="78" fill="#231F20" font-family="'RobotoCondensed-Light'" font-size="13">Communications and the </tspan><tspan x="0" y="93.6" fill="#231F20" font-family="'RobotoCondensed-Light'" font-size="13">Junta Metropolitana do </tspan><tspan x="0" y="109.199" fill="#231F20" font-family="'RobotoCondensed-Light'" font-size="13">Porto related to the </tspan><tspan x="0" y="124.8" fill="#231F20" font-family="'RobotoCondensed-Light'" font-size="13">development of the </tspan><tspan x="0" y="140.399" fill="#231F20" font-family="'RobotoCondensed-Light'" font-size="13">SMLAMP</tspan></text>
		<line fill="none" stroke="#231F20" stroke-miterlimit="10" x1="624.797" y1="197.375" x2="624.797" y2="44.361"/>
		<circle fill="none" stroke="#231F20" stroke-width="4" stroke-miterlimit="10" cx="624.804" cy="40.639" r="5.282"/>
	</g>
	<g id="senhora">
		<line fill="none" stroke="#231F20" stroke-miterlimit="10" x1="460.135" y1="72.963" x2="460.135" y2="16.141"/>
		<circle fill="none" stroke="#DB4145" stroke-width="4" stroke-miterlimit="10" cx="460.135" cy="8.963" r="5.282"/>
		<rect x="478.338" y="3.682" fill="none" width="179.797" height="66.282"/>
		<text transform="matrix(1 0 0 1 478.3384 13.5869)"><tspan x="0" y="0" fill="#231F20" font-family="'RobotoCondensed-Regular'" font-size="13">03.2005</tspan><tspan x="0" y="15.6" fill="#231F20" font-family="'RobotoCondensed-Regular'" font-size="13">Senhora da Hora—</tspan><tspan x="0" y="31.199" fill="#231F20" font-family="'RobotoCondensed-Regular'" font-size="13">Pedras Rubras </tspan><tspan x="0" y="46.8" fill="#231F20" font-family="'RobotoCondensed-Light'" font-size="13">6,744 meters, 15 stations</tspan></text>
	</g>
	<g id="fonte-do-cuco">
		<line fill="none" stroke="#231F20" stroke-miterlimit="10" x1="460.135" y1="148.709" x2="460.135" y2="92.44"/>
		<circle fill="none" stroke="#8CC541" stroke-width="4" stroke-miterlimit="10" cx="460.135" cy="86.262" r="5.282"/>
		<rect x="478.713" y="80.782" fill="none" width="130.664" height="72.656"/>
		<text transform="matrix(1 0 0 1 478.7134 90.6875)"><tspan x="0" y="0" fill="#231F20" font-family="'RobotoCondensed-Regular'" font-size="13">06.2005 </tspan><tspan x="0" y="15.6" fill="#231F20" font-family="'RobotoCondensed-Regular'" font-size="13">Fonte do Cuco—</tspan><tspan x="0" y="31.199" fill="#231F20" font-family="'RobotoCondensed-Regular'" font-size="13">Fórum da Maia  </tspan><tspan x="0" y="46.8" fill="#231F20" font-family="'RobotoCondensed-Light'" font-size="13">6,744 meters, 15 stations</tspan></text>
	</g>
	<g id="camara-de-gaia">
		<line fill="none" stroke="#231F20" stroke-miterlimit="10" x1="460.135" y1="212.708" x2="460.135" y2="166.185"/>
		<circle fill="none" stroke="#FEDE50" stroke-width="4" stroke-miterlimit="10" cx="460.135" cy="161.903" r="5.282"/>
		<rect x="478.713" y="156.422" fill="none" width="117.611" height="52.008"/>
		<text transform="matrix(1 0 0 1 478.7134 166.3281)"><tspan x="0" y="0" fill="#231F20" font-family="'RobotoCondensed-Regular'" font-size="13">09.2005 </tspan><tspan x="0" y="15.6" fill="#231F20" font-family="'RobotoCondensed-Regular'" font-size="13">Câmara de Gaia </tspan><tspan x="0" y="31.199" fill="#231F20" font-family="'RobotoCondensed-Light'" font-size="13">1,180 meters, 2 stations</tspan></text>
	</g>
	<g id="joao-de-deus">
		<line fill="none" stroke="#231F20" stroke-miterlimit="10" x1="460.135" y1="292.896" x2="460.135" y2="231.185"/>
		<circle fill="none" stroke="#FEDE50" stroke-width="4" stroke-miterlimit="10" cx="460.135" cy="225.902" r="5.282"/>
		<rect x="478.713" y="220.422" fill="none" width="112.664" height="79.466"/>
		<text transform="matrix(1 0 0 1 478.7134 230.3281)"><tspan x="0" y="0" fill="#231F20" font-family="'RobotoCondensed-Regular'" font-size="13">12.2005 </tspan><tspan x="0" y="15.6" fill="#231F20" font-family="'RobotoCondensed-Regular'" font-size="13">João de Deus— </tspan><tspan x="0" y="31.199" fill="#231F20" font-family="'RobotoCondensed-Regular'" font-size="13">Câmara de Gaia </tspan><tspan x="0" y="46.8" fill="#231F20" font-family="'RobotoCondensed-Light'" font-size="13">405 meters, 1 station</tspan></text>
	</g>
</g>
</svg>
