<?xml version="1.0" encoding="utf-8"?>
<!-- Generator: Adobe Illustrator 15.1.0, SVG Export Plug-In . SVG Version: 6.00 Build 0)  -->
<!DOCTYPE svg PUBLIC "-//W3C//DTD SVG 1.1//EN" "http://www.w3.org/Graphics/SVG/1.1/DTD/svg11.dtd">
<svg version="1.1" id="Layer_1" xmlns="http://www.w3.org/2000/svg" xmlns:xlink="http://www.w3.org/1999/xlink" x="0px" y="0px"
	 width="774.923px" height="378.372px" viewBox="0 0 774.923 378.372" enable-background="new 0 0 774.923 378.372"
	 xml:space="preserve">
<line fill="none" stroke="#231F20" stroke-miterlimit="10" x1="535.413" y1="317.756" x2="535.413" y2="126.496"/>
<line fill="none" stroke="#231F20" stroke-miterlimit="10" x1="481.473" y1="317.756" x2="481.473" y2="12.607"/>
<line fill="none" stroke="#231F20" stroke-miterlimit="10" x1="587.858" y1="241.57" x2="587.858" y2="192.778"/>
<line fill="none" stroke="#231F20" stroke-miterlimit="10" x1="587.858" y1="316.57" x2="587.858" y2="257.931"/>
<text transform="matrix(0 1 -1 0 9.001 336.5225)" fill="#231F20" font-family="'FlamaSemicondensed-Book'" font-size="14">1989</text>
<text transform="matrix(0 1 -1 0 61.1338 336.5215)" fill="#231F20" font-family="'FlamaSemicondensed-Book'" font-size="14">1990</text>
<text transform="matrix(0 1 -1 0 113.2646 336.5225)" fill="#231F20" font-family="'FlamaSemicondensed-Book'" font-size="14">1991</text>
<text transform="matrix(0 1 -1 0 165.3975 336.5215)" fill="#231F20" font-family="'FlamaSemicondensed-Book'" font-size="14">1992</text>
<text transform="matrix(0 1 -1 0 217.5283 336.5225)" fill="#231F20" font-family="'FlamaSemicondensed-Book'" font-size="14">1993</text>
<text transform="matrix(0 1 -1 0 269.6611 336.5215)" fill="#231F20" font-family="'FlamaSemicondensed-Book'" font-size="14">1994</text>
<text transform="matrix(0 1 -1 0 321.7939 336.5225)" fill="#231F20" font-family="'FlamaSemicondensed-Book'" font-size="14">1995</text>
<text transform="matrix(0 1 -1 0 373.9248 336.5225)" fill="#231F20" font-family="'FlamaSemicondensed-Book'" font-size="14">1996</text>
<text transform="matrix(0 1 -1 0 426.0576 336.5225)" fill="#231F20" font-family="'FlamaSemicondensed-Book'" font-size="14">1997</text>
<text transform="matrix(0 1 -1 0 478.1904 336.5225)" fill="#231F20" font-family="'FlamaSemicondensed-Book'" font-size="14">1998</text>
<text transform="matrix(0 1 -1 0 530.3213 336.5225)" fill="#231F20" font-family="'FlamaSemicondensed-Book'" font-size="14">1999</text>
<text transform="matrix(0 1 -1 0 582.4541 336.5215)" fill="#231F20" font-family="'FlamaSemicondensed-Book'" font-size="14">2000</text>
<line fill="none" stroke="#BBBDBF" stroke-width="0.5" stroke-miterlimit="10" x1="0" y1="323.06" x2="774" y2="323.06"/>
<line fill="none" stroke="#BBBDBF" stroke-width="0.5" stroke-miterlimit="10" x1="0" y1="378.372" x2="774" y2="378.372"/>
<line fill="none" stroke="#231F20" stroke-miterlimit="10" x1="14.283" y1="168.261" x2="14.283" y2="317.756"/>
<line fill="none" stroke="#231F20" stroke-miterlimit="10" x1="275.271" y1="317.756" x2="275.271" y2="167.928"/>
<circle fill="none" stroke="#231F20" stroke-width="4" stroke-miterlimit="10" cx="535.414" cy="121.214" r="5.282"/>
<circle fill="none" stroke="#231F20" stroke-width="4" stroke-miterlimit="10" cx="481.472" cy="7.325" r="5.282"/>
<line fill="none" stroke="#231F20" stroke-miterlimit="10" x1="222" y1="317.756" x2="222" y2="12.607"/>
<circle fill="none" stroke="#231F20" stroke-width="4" stroke-miterlimit="10" cx="222" cy="7.325" r="5.282"/>
<circle fill="none" stroke="#231F20" stroke-width="4" stroke-miterlimit="10" cx="275.272" cy="162.654" r="5.282"/>
<circle fill="none" stroke="#231F20" stroke-width="4" stroke-miterlimit="10" cx="14.283" cy="162.654" r="5.282"/>
<circle fill="none" stroke="#FEDE50" stroke-width="4" stroke-miterlimit="10" cx="587.859" cy="187.497" r="5.282"/>
<circle fill="none" stroke="#231F20" stroke-width="4" stroke-miterlimit="10" cx="587.859" cy="254.57" r="5.282"/>
<rect x="32.594" y="156.994" fill="none" width="151.406" height="141"/>
<text transform="matrix(1 0 0 1 32.5938 166.9004)"><tspan x="0" y="0" fill="#231F20" font-family="'RobotoCondensed-Regular'" font-size="13">09.1989</tspan><tspan x="0" y="15.6" fill="#231F20" font-family="'RobotoCondensed-Light'" font-size="13">The study &lt;&lt;Collective </tspan><tspan x="0" y="31.199" fill="#231F20" font-family="'RobotoCondensed-Light'" font-size="13">Transport in Own Site&gt;&gt; </tspan><tspan x="0" y="46.8" fill="#231F20" font-family="'RobotoCondensed-Light'" font-size="13">realized by the STCP, proposes </tspan><tspan x="0" y="62.399" fill="#231F20" font-family="'RobotoCondensed-Light'" font-size="13">the light rail as a solution to </tspan><tspan x="0" y="78" fill="#231F20" font-family="'RobotoCondensed-Light'" font-size="13">the mobility problems in the </tspan><tspan x="0" y="93.6" fill="#231F20" font-family="'RobotoCondensed-Light'" font-size="13">Porto Metropolitan Area</tspan></text>
<rect x="292.99" y="156.994" fill="none" width="165.01" height="128.812"/>
<text transform="matrix(1 0 0 1 292.9897 166.9004)"><tspan x="0" y="0" fill="#231F20" font-family="'RobotoCondensed-Regular'" font-size="13">12.1994</tspan><tspan x="0" y="15.6" fill="#231F20" font-family="'RobotoCondensed-Light'" font-size="13">Launch of International Public </tspan><tspan x="0" y="31.199" fill="#231F20" font-family="'RobotoCondensed-Light'" font-size="13">Competition of Prequalification </tspan><tspan x="0" y="46.8" fill="#231F20" font-family="'RobotoCondensed-Light'" font-size="13">for conception, construction, </tspan><tspan x="0" y="62.399" fill="#231F20" font-family="'RobotoCondensed-Light'" font-size="13">equipment and operation of </tspan><tspan x="0" y="78" fill="#231F20" font-family="'RobotoCondensed-Light'" font-size="13">Statutes Metro do Porto</tspan></text>
<rect x="553.776" y="115.755" fill="none" width="169.224" height="49.815"/>
<text transform="matrix(1 0 0 1 553.7764 125.6611)"><tspan x="0" y="0" fill="#231F20" font-family="'RobotoCondensed-Regular'" font-size="13">12.1999</tspan><tspan x="0" y="15.6" fill="#231F20" font-family="'RobotoCondensed-Light'" font-size="13">Opening of the first work front of </tspan><tspan x="0" y="31.199" fill="#231F20" font-family="'RobotoCondensed-Light'" font-size="13">Metro do Porto in Campanhã</tspan></text>
<rect x="606.758" y="182.215" fill="none" width="110.101" height="78.704"/>
<text transform="matrix(1 0 0 1 606.7578 192.1211)"><tspan x="0" y="0" fill="#231F20" font-family="'RobotoCondensed-Regular'" font-size="13">01.2000 </tspan><tspan x="0" y="15.6" fill="#231F20" font-family="'RobotoCondensed-Light'" font-size="13">Start of Work in the </tspan><tspan x="0" y="31.199" fill="#231F20" font-family="'RobotoCondensed-Light'" font-size="13">Infante Bridge</tspan></text>
<rect x="606.758" y="248.441" fill="none" width="167.242" height="64.129"/>
<text transform="matrix(1 0 0 1 606.7578 258.3477)"><tspan x="0" y="0" fill="#231F20" font-family="'RobotoCondensed-Regular'" font-size="13">10.2000 </tspan><tspan x="0" y="15.6" fill="#231F20" font-family="'RobotoCondensed-Light'" font-size="13">Production begins of the  </tspan><tspan x="0" y="31.199" fill="#231F20" font-family="'RobotoCondensed-Light'" font-size="13">first vehicle in its fleet of  </tspan><tspan x="0" y="46.8" fill="#231F20" font-family="'RobotoCondensed-Light'" font-size="13">Metro do Porto</tspan></text>
<rect x="240.909" y="1.215" fill="none" width="159.373" height="125.281"/>
<text transform="matrix(1 0 0 1 240.9092 11.1211)"><tspan x="0" y="0" fill="#231F20" font-family="'RobotoCondensed-Regular'" font-size="13">03.1993</tspan><tspan x="0" y="15.6" fill="#231F20" font-family="'RobotoCondensed-Light'" font-size="13">Construction of Metro do Porto, </tspan><tspan x="0" y="31.199" fill="#231F20" font-family="'RobotoCondensed-Light'" font-size="13">S.A. pelo Decree-law n 71/93, </tspan><tspan x="0" y="46.8" fill="#231F20" font-family="'RobotoCondensed-Light'" font-size="13">which established the first legal </tspan><tspan x="0" y="62.399" fill="#231F20" font-family="'RobotoCondensed-Light'" font-size="13">regime of the operation of a light </tspan><tspan x="0" y="78" fill="#231F20" font-family="'RobotoCondensed-Light'" font-size="13">rail system of the Porto </tspan><tspan x="0" y="93.6" fill="#231F20" font-family="'RobotoCondensed-Light'" font-size="13">Metropolitan Area (SMLAMP)</tspan></text>
<rect x="499.743" y="2.043" fill="none" width="252.257" height="106.662"/>
<text transform="matrix(1 0 0 1 499.7432 11.9482)"><tspan x="0" y="0" fill="#231F20" font-family="'RobotoCondensed-Regular'" font-size="13">12.1998</tspan><tspan x="0" y="15.6" fill="#231F20" font-family="'RobotoCondensed-Light'" font-size="13">Award of Project to Agrupamento Complementar </tspan><tspan x="0" y="31.199" fill="#231F20" font-family="'RobotoCondensed-Light'" font-size="13">de Empresas (ACE) Normetro Approval of </tspan><tspan x="0" y="46.8" fill="#231F20" font-family="'RobotoCondensed-Light'" font-size="13">Decree-Law 394A/98 that gives to the company </tspan><tspan x="0" y="62.399" fill="#231F20" font-family="'RobotoCondensed-Light'" font-size="13">Metro do Porto, S.A. the statute of dealership </tspan><tspan x="0" y="78" fill="#231F20" font-family="'RobotoCondensed-Light'" font-size="13">SMLAMP for a period of 50 years</tspan></text>
</svg>
