<?xml version="1.0" encoding="utf-8"?>
<!-- Generator: Adobe Illustrator 15.1.0, SVG Export Plug-In . SVG Version: 6.00 Build 0)  -->
<!DOCTYPE svg PUBLIC "-//W3C//DTD SVG 1.1//EN" "http://www.w3.org/Graphics/SVG/1.1/DTD/svg11.dtd">
<svg version="1.1" id="Layer_1" xmlns="http://www.w3.org/2000/svg" xmlns:xlink="http://www.w3.org/1999/xlink" x="0px" y="0px"
	 width="774.25px" height="507.479px" viewBox="0 0 774.25 507.479" enable-background="new 0 0 774.25 507.479"
	 xml:space="preserve">
<g id="back-shadow">
	<rect x="415.125" y="68.625" opacity="0.1" fill="#8DC641" width="150" height="438.854"/>
	<rect x="415.125" y="68.375" fill="#232020" width="150" height="0.5"/>
</g>
<g id="borders">
	
		<line fill="none" stroke="#BCBDBF" stroke-width="0.5" stroke-miterlimit="10" x1="-0.584" y1="280.014" x2="773.416" y2="280.014"/>
	
		<line fill="none" stroke="#BCBDBF" stroke-width="0.5" stroke-miterlimit="10" x1="0.125" y1="222.687" x2="774.125" y2="222.687"/>
</g>
<g id="dotted-lines">
	<g>
		<g>
			
				<line fill="none" stroke="#D1D2D3" stroke-width="0.5" stroke-miterlimit="10" x1="38.878" y1="485.402" x2="40.378" y2="485.402"/>
			
				<line fill="none" stroke="#D1D2D3" stroke-width="0.5" stroke-miterlimit="10" stroke-dasharray="3.0005,4.0007" x1="44.378" y1="485.402" x2="770.5" y2="485.402"/>
			<line fill="none" stroke="#D1D2D3" stroke-width="0.5" stroke-miterlimit="10" x1="772.5" y1="485.402" x2="774" y2="485.402"/>
		</g>
	</g>
	<g>
		<g>
			
				<line fill="none" stroke="#D1D2D3" stroke-width="0.5" stroke-miterlimit="10" x1="38.878" y1="409.402" x2="40.378" y2="409.402"/>
			
				<line fill="none" stroke="#D1D2D3" stroke-width="0.5" stroke-miterlimit="10" stroke-dasharray="3.0005,4.0007" x1="44.378" y1="409.402" x2="770.5" y2="409.402"/>
			<line fill="none" stroke="#D1D2D3" stroke-width="0.5" stroke-miterlimit="10" x1="772.5" y1="409.402" x2="774" y2="409.402"/>
		</g>
	</g>
	<g>
		<g>
			
				<line fill="none" stroke="#D1D2D3" stroke-width="0.5" stroke-miterlimit="10" x1="38.878" y1="332.402" x2="40.378" y2="332.402"/>
			
				<line fill="none" stroke="#D1D2D3" stroke-width="0.5" stroke-miterlimit="10" stroke-dasharray="3.0005,4.0007" x1="44.378" y1="332.402" x2="770.5" y2="332.402"/>
			<line fill="none" stroke="#D1D2D3" stroke-width="0.5" stroke-miterlimit="10" x1="772.5" y1="332.402" x2="774" y2="332.402"/>
		</g>
	</g>
</g>
<g id="data-points">
	<g id="metro">
		<line fill="none" stroke="#232020" stroke-miterlimit="10" x1="164.343" y1="214.718" x2="164.343" y2="188.543"/>
		<circle fill="none" stroke="#232020" stroke-width="4" stroke-miterlimit="10" cx="164.344" cy="185.344" r="5.282"/>
		<rect x="183.564" y="147.014" fill="none" width="82.426" height="94.589"/>
		<text transform="matrix(1 0 0 1 183.5645 156.9199)"><tspan x="0" y="0" fill="#231F20" font-family="'RobotoCondensed-Light'" font-size="13">Metro de </tspan><tspan x="0" y="15.6" fill="#231F20" font-family="'RobotoCondensed-Light'" font-size="13">Medellín </tspan><tspan x="0" y="31.199" fill="#231F20" font-family="'RobotoCondensed-Light'" font-size="13">opening</tspan></text>
	</g>
	<g id="santo-domingo">
		<line fill="none" stroke="#232020" stroke-miterlimit="10" x1="430.812" y1="189.679" x2="430.812" y2="214.854"/>
		<circle fill="none" stroke="#8DC641" stroke-width="4" stroke-miterlimit="10" cx="430.81" cy="183.969" r="5.282"/>
		<rect x="448.03" y="140.687" fill="none" width="82.426" height="94.588"/>
		<text transform="matrix(1 0 0 1 448.0312 150.5928)"><tspan x="0" y="0" fill="#231F20" font-family="'RobotoCondensed-Light'" font-size="13">Metrocable</tspan><tspan x="0" y="15.6" fill="#231F20" font-family="'RobotoCondensed-Light'" font-size="13">Line K</tspan><tspan x="0" y="31.199" fill="#231F20" font-family="'RobotoCondensed-Light'" font-size="13">Santo Domingo</tspan></text>
	</g>
	<g id="urban-project">
		<rect x="418.503" y="14.854" fill="none" width="126.842" height="59.646"/>
		<text transform="matrix(1 0 0 1 418.5029 24.7607)"><tspan x="0" y="0" fill="#8DC641" font-family="'RobotoCondensed-Regular'" font-size="13">2004–2008</tspan><tspan x="0" y="15.6" fill="#231F20" font-family="'RobotoCondensed-Regular'" font-size="13">North-Eastern Integral </tspan><tspan x="0" y="31.199" fill="#231F20" font-family="'RobotoCondensed-Regular'" font-size="13">Urban Project</tspan></text>
	</g>
	<g id="san-javier">
		<rect x="571.026" y="41.677" fill="none" width="82.426" height="52.819"/>
		<text transform="matrix(1 0 0 1 571.0264 51.583)"><tspan x="0" y="0" fill="#231F20" font-family="'RobotoCondensed-Light'" font-size="13">Metrocable</tspan><tspan x="0" y="15.6" fill="#231F20" font-family="'RobotoCondensed-Light'" font-size="13">Line J</tspan><tspan x="0" y="31.199" fill="#231F20" font-family="'RobotoCondensed-Light'" font-size="13">San Javier</tspan></text>
		
			<line fill="none" stroke="#232020" stroke-width="0.9978" stroke-miterlimit="10" x1="551.698" y1="91.077" x2="551.698" y2="215.364"/>
		
			<ellipse fill="none" stroke="#FEDE51" stroke-width="3.9913" stroke-miterlimit="10" cx="552.162" cy="86.95" rx="5.282" ry="5.259"/>
	</g>
	<g id="arvi-park">
		<rect x="629.399" y="105.887" fill="none" width="82.426" height="49.684"/>
		<text transform="matrix(1 0 0 1 629.3994 115.793)"><tspan x="0" y="0" fill="#231F20" font-family="'RobotoCondensed-Light'" font-size="13">Metrocable</tspan><tspan x="0" y="15.6" fill="#231F20" font-family="'RobotoCondensed-Light'" font-size="13">Line L</tspan><tspan x="0" y="31.199" fill="#231F20" font-family="'RobotoCondensed-Light'" font-size="13">Arvi Park</tspan></text>
		
			<line fill="none" stroke="#232020" stroke-width="0.9917" stroke-miterlimit="10" x1="612.277" y1="150.014" x2="612.277" y2="214.854"/>
		<circle fill="none" stroke="#C8B299" stroke-width="4" stroke-miterlimit="10" cx="612.239" cy="146.047" r="5.282"/>
	</g>
	<g id="metroplus">
		<line fill="none" stroke="#232020" stroke-miterlimit="10" x1="670.278" y1="215.342" x2="670.278" y2="190.025"/>
		<circle fill="none" stroke="#28ABE2" stroke-width="4" stroke-miterlimit="10" cx="670.279" cy="185.968" r="5.282"/>
		<rect x="687.598" y="163.57" fill="none" width="82.426" height="42.82"/>
		<text transform="matrix(1 0 0 1 687.5986 173.4766)"><tspan x="0" y="0" fill="#231F20" font-family="'RobotoCondensed-Light'" font-size="13">Metroplus</tspan><tspan x="0" y="15.6" fill="#231F20" font-family="'RobotoCondensed-Light'" font-size="13">Line MP1</tspan></text>
	</g>
</g>
<g id="y-axis_1_">
	<text transform="matrix(1 0 0 1 8.2832 489.7217)" fill="#BCBDBF" font-family="'FlamaSemicondensed-Book'" font-size="10">1000</text>
	<text transform="matrix(1 0 0 1 8.2832 336.7217)" fill="#BCBDBF" font-family="'FlamaSemicondensed-Book'" font-size="10">8000</text>
	<text transform="matrix(1 0 0 1 8.2832 413.2217)" fill="#BCBDBF" font-family="'FlamaSemicondensed-Book'" font-size="10">4000</text>
	<text transform="matrix(1 0 0 1 8.2832 308.6787)" fill="#DB4246" font-family="'FlamaSemicondensed-Book'" font-size="12">MEDEllÍN HOMICIDES</text>
</g>
<g id="x-axis">
	<text transform="matrix(0 1 -1 0 9.126 238.3169)" fill="#231F20" font-family="'FlamaSemicondensed-Book'" font-size="14">1990</text>
	<text transform="matrix(0 1 -1 0 39.0029 239.7266)" fill="#231F20" font-family="'FlamaSemicondensed-Book'" font-size="14">1991</text>
	<text transform="matrix(0 1 -1 0 68.8779 238.7358)" fill="#231F20" font-family="'FlamaSemicondensed-Book'" font-size="14">1992</text>
	<text transform="matrix(0 1 -1 0 98.7549 238.5229)" fill="#231F20" font-family="'FlamaSemicondensed-Book'" font-size="14">1993</text>
	<text transform="matrix(0 1 -1 0 128.6318 238.3823)" fill="#231F20" font-family="'FlamaSemicondensed-Book'" font-size="14">1994</text>
	<text transform="matrix(0 1 -1 0 158.5068 238.5439)" fill="#231F20" font-family="'FlamaSemicondensed-Book'" font-size="14">1995</text>
	<text transform="matrix(0 1 -1 0 188.3838 238.4561)" fill="#231F20" font-family="'FlamaSemicondensed-Book'" font-size="14">1996</text>
	<text transform="matrix(0 1 -1 0 218.2588 238.7959)" fill="#231F20" font-family="'FlamaSemicondensed-Book'" font-size="14">1997</text>
	<text transform="matrix(0 1 -1 0 248.1357 238.4702)" fill="#231F20" font-family="'FlamaSemicondensed-Book'" font-size="14">1998</text>
	<text transform="matrix(0 1 -1 0 278.0127 238.4634)" fill="#231F20" font-family="'FlamaSemicondensed-Book'" font-size="14">1999</text>
	<text transform="matrix(0 1 -1 0 307.8877 236.9062)" fill="#231F20" font-family="'FlamaSemicondensed-Book'" font-size="14">2000</text>
	<text transform="matrix(0 1 -1 0 337.7646 238.3135)" fill="#231F20" font-family="'FlamaSemicondensed-Book'" font-size="14">2001</text>
	<text transform="matrix(0 1 -1 0 367.6416 237.3252)" fill="#231F20" font-family="'FlamaSemicondensed-Book'" font-size="14">2002</text>
	<text transform="matrix(0 1 -1 0 397.5166 237.1118)" fill="#231F20" font-family="'FlamaSemicondensed-Book'" font-size="14">2003</text>
	<text transform="matrix(0 1 -1 0 427.3936 236.9717)" fill="#231F20" font-family="'FlamaSemicondensed-Book'" font-size="14">2004</text>
	<text transform="matrix(0 1 -1 0 457.2705 237.1328)" fill="#231F20" font-family="'FlamaSemicondensed-Book'" font-size="14">2005</text>
	<text transform="matrix(0 1 -1 0 487.1455 237.0454)" fill="#231F20" font-family="'FlamaSemicondensed-Book'" font-size="14">2006</text>
	<text transform="matrix(0 1 -1 0 517.0225 237.3828)" fill="#231F20" font-family="'FlamaSemicondensed-Book'" font-size="14">2007</text>
	<text transform="matrix(0 1 -1 0 546.8994 237.0596)" fill="#231F20" font-family="'FlamaSemicondensed-Book'" font-size="14">2008</text>
	<text transform="matrix(0 1 -1 0 576.7744 237.0527)" fill="#231F20" font-family="'FlamaSemicondensed-Book'" font-size="14">2009</text>
	<text transform="matrix(0 1 -1 0 606.6514 238.5322)" fill="#231F20" font-family="'FlamaSemicondensed-Book'" font-size="14">2010</text>
	<text transform="matrix(0 1 -1 0 636.5264 239.9028)" fill="#231F20" font-family="'FlamaSemicondensed-Book'" font-size="14">2011</text>
	<text transform="matrix(0 1 -1 0 666.4033 238.9609)" fill="#231F20" font-family="'FlamaSemicondensed-Book'" font-size="14">2012</text>
	<text transform="matrix(0 1 -1 0 696.2803 238.748)" fill="#231F20" font-family="'FlamaSemicondensed-Book'" font-size="14">2013</text>
	<text transform="matrix(0 1 -1 0 726.1553 238.6074)" fill="#231F20" font-family="'FlamaSemicondensed-Book'" font-size="14">2014</text>
	<text transform="matrix(0 1 -1 0 756.0322 238.7686)" fill="#231F20" font-family="'FlamaSemicondensed-Book'" font-size="14">2015</text>
</g>
<polyline id="line-graph" fill="none" stroke="#DB4246" stroke-width="2" stroke-miterlimit="10" points="9.001,357.48 
	43.257,370.958 76.142,378.587 102.176,397.406 133.823,409.613 159.726,416.226 191.241,428.433 222.756,434.271 257.012,430.976 
	288.527,432.502 355.667,418.769 417.328,480.821 455.271,489.723 487.839,487.434 517.354,489.723 549.246,484.381 
	598.197,457.934 629.244,460.477 662.193,477.261 702.334,483.364 "/>
<rect id="red-line" x="8.283" y="279.764" fill="#DB4246" width="693" height="0.5"/>
</svg>
