<svg xmlns="http://www.w3.org/2000/svg" width="566" height="752">
    <path id="yellow" stroke="#FFDF4F" stroke-width="3" stroke-linecap="round" stroke-miterlimit="10" d="M416.25 454.75c-3.038 2.533-6.191 3.756-5.374 8.081.78 4.127-.232 8.88 2.305 12.604 1.655 2.43 5.411 4.726 6.5 7.328.469 1.121.319 2.446.319 3.739.003 3.904-1.221 4.8-3.812 7.75-3.97 4.521-8.226 8.856-11.627 13.804-1.901 2.768-2.668 6.437-2.632 9.757.021 1.991-.355 3.922-.236 5.892.206 3.4 1.323 6.724 1.557 10.045l4.342 19.974c2.518 11.579 1.496 23.191 1.158 35.026" fill="none"/>
    <path id="orange" stroke="#F7941E" stroke-width="3" stroke-linecap="round" stroke-miterlimit="10" d="M501 479.5c.742-2.636 1.709-6.61.966-9.463-.438-1.683-1.522-3.205-1.957-4.862-.373-1.42-.935-2.569-1.301-3.955-.478-1.809-1.034-3.927-1.208-5.578-.15-1.424.381-3.224-.208-4.567-1.384-3.157-6.395 1.891-8.066 2.904-4.497 2.725-9.749 4.682-12.484 9.392-.937 1.611-1.764 3.397-2.5 5.129-.921 2.165-.933 2.812-3.367 3.209-2.116.345-4.3.265-6.429.613-1.564.257-2.869.727-4.438.846-.794.06-1.972-.108-2.683.288-1.185.66-2.602 2.839-3.5 3.873-.585.675-1.849 1.734-2.171 2.5-.44 1.052.046 2.793.034 3.946-.02 1.771-.079 3.464.182 5.229 1.012 6.854-.223 14.859-1.885 21.523-.425 1.708-.824 3.308-1.069 4.834l-.163 1.126c-.494 3.597-1.154 8.396-4.291 11.229-1.429 1.286-2.965 1.117-5.129 1.117-3.202 0-8.339-1.389-10.546-2.361l-.818-.355c-2.396-.994-5.276-1.667-8.062-2.318-3.537-.826-7.186-1.678-10.55-3.264-3.979-1.877-6.935-5.093-9.541-7.931-.847-.922-1.647-1.793-2.434-2.563-3.655-3.584-7.883-5.117-13.029-6.75l-.421-.133c-4.011-1.269-8.158-2.579-11.816-6.153-1.049-1.023-1.695-2.025-2.123-2.688-.334-.519-.422-.653-.582-.76l-.561-.075c-1.408-.179-3.747-.476-5.578-2.369-2.074-2.146-2.873-5.091-3.645-7.94-.453-1.674-.965-3.565-1.567-4.415-.857-1.207-1.935-2.385-3.076-3.632-1.321-1.442-2.679-2.926-3.941-4.694-1.155-1.617-2.921-3.406-4.79-5.3-3.821-3.871-7.768-7.869-9.104-12.798-.733-2.707-1.001-5.451-1.262-8.105" fill="none"/>
    <path id="blue" stroke="#00AEEF" stroke-width="3" stroke-linecap="round" stroke-miterlimit="10" d="M454.443 502.543c-.254 2.971-.965 5.818-1.592 8.331-.41 1.644-.794 3.183-1.019 4.583-.05.314-.1.675-.153 1.062-.526 3.828-.572 8.755-4.521 12.322-1.376 1.239-4.511 2.492-8.158 2.492-3.897 0-9.224-1.147-11.422-2.115l-.766-.334c-2.161-.896-4.92-1.541-7.589-2.165-3.519-.821-7.494-1.749-11.147-3.472-4.511-2.127-7.676-5.573-10.47-8.614-.819-.892-1.596-1.735-2.325-2.452-3.182-3.118-7.076-4.521-11.837-6.03l-.419-.133c-4.142-1.31-8.837-2.795-13.006-6.867-1.068-1.043-1.792-2.06-2.276-2.791-1.702-.254-4.413-.872-6.628-3.16-2.611-2.702-3.553-6.177-4.384-9.242-.3-1.107-.799-2.951-1.136-3.488-.732-1.031-1.702-2.091-2.826-3.318-1.316-1.438-2.801-3.06-4.17-4.977-1.016-1.423-2.699-3.129-4.482-4.935-3.904-3.955-8.322-8.432-9.864-14.122-.552-2.036-.373-4.22-.948-6.25-.311-1.098-1.188-3.743-2.093-4.403-2.599-1.897-2.342 4.739-2.536 6.036-.134.891-.175 2.158-.551 2.967-1.019 2.188-2.95 3.856-4.169 5.883-.91 1.514-2.198 3.98-3.952 4.655-1.873.721-4.068.872-5.981 1.414-2.21.626-4.754.804-6.903-.122-1.392-.6-2.571-1.628-4.06-2.021-1.943-.515-4.192-.273-6.182-.275-2.146-.002-6.795 1.692-8.753.517-.947-.569-1.935-3.156-2.29-4.153-.953-2.664-3.782-4.854-3.973-7.814-.284-4.411 9.273-2.716 11.971-2.716" fill="none"/>
    <path id="purple" stroke="#A970AF" stroke-width="3" stroke-linecap="round" stroke-miterlimit="10" d="M448.936 501.943c-.213 2.491-.834 4.981-1.436 7.39-.439 1.763-.855 3.428-1.121 5.085-.061.382-.121.816-.186 1.285-.419 3.047-.994 7.22-3.317 9.318-.938.846-2.126 1.164-3.401 1.164-2.571 0-7.452-1.566-9.479-2.459l-.869-.378c-2.634-1.093-5.641-1.795-8.549-2.475-3.376-.788-6.867-1.604-9.943-3.054-3.443-1.624-6.07-4.481-8.609-7.246-.878-.955-1.707-1.856-2.542-2.676-4.124-4.043-8.882-5.773-14.225-7.468l-.423-.134c-3.846-1.216-7.477-2.364-10.624-5.438-.808-.788-1.302-1.554-1.698-2.169-.553-.854-.886-1.37-1.934-1.914-.251-.13-.867-.208-1.362-.271-1.2-.152-2.692-.343-3.791-1.478-1.537-1.59-2.201-4.045-2.905-6.644-.543-2.004-1.104-4.076-2.016-5.361-.967-1.363-2.109-2.61-3.317-3.931-1.254-1.369-2.55-2.785-3.705-4.403-1.291-1.809-3.14-3.682-5.098-5.664-3.546-3.593-7.212-7.307-8.342-11.476-.667-2.462-.923-5.08-1.171-7.612-.191-1.95-.371-3.793-.723-5.541-.246-1.227-.493-2.385-.729-3.5-1.134-5.336-2.113-9.945-1.88-16.289.059-1.583.171-3.187.279-4.737.242-3.464.492-7.046.132-10.442-.453-4.275 1.069-8.235 2.542-12.065 1.564-4.07 3.042-7.916 1.949-11.68-1.269-4.365-3.002-8.712-4.678-12.915-1.888-4.735-3.84-9.632-5.224-14.743-.307-1.134-17.042 1.478-17.042 1.478" fill="none"/>
    <path id="green" stroke="#8DC63F" stroke-width="3" stroke-linecap="round" stroke-miterlimit="10" d="M393.667 293c1.04 4.926 2.143 9.683-2.069 13.279-4.047 3.456-8.221 7.07-12.054 10.979-1.636 1.668-3.909 2.65-5.386 4.46-2.611 3.202-.631 5.685.412 9.203 1.731 5.843 2.058 12.218 4.221 17.917 1.508 3.971 4.362 7.312 6.124 11.18 1.956 4.291-1.454 5.83-4.556 7.74-4.442 2.736-8.324 6.295-12.814 8.96-3.335 1.979-8.003 3.035-9.229 7.264-.916 3.161-.943 6.394-1.095 9.646-.12 2.592.615 7.073-.961 9.231-1.687 2.309-5.525 2.806-7.442 5.079-1.946 2.31-2.192 5.862-2.484 8.729-.329 3.228-.728 3.674-2.251 6.08-2.854 4.511-.999 9.837-.03 14.659.401 1.996.603 4.053.797 6.041.239 2.435.464 4.733 1.021 6.79.787 2.9 3.984 6.14 7.075 9.271 2.009 2.035 4.085 4.139 5.608 6.271.979 1.371 2.117 2.615 3.324 3.933 1.258 1.375 2.559 2.796 3.707 4.413 1.427 2.012 2.106 4.521 2.764 6.947.429 1.582.954 3.524 1.543 4.319.239.059.661.112.959.149.887.113 1.991.254 3.03.792 2.229 1.154 3.156 2.592 3.835 3.642.327.508.586.908.99 1.304 2.297 2.243 5.235 3.172 8.639 4.249l.426.135c5.745 1.821 11.309 3.854 16.215 8.663.928.91 1.84 1.903 2.722 2.863 2.215 2.409 4.504 4.9 7.062 6.106 2.596 1.225 5.682 1.945 8.947 2.708 3.104.725 6.315 1.475 9.329 2.726.275.114.603.258.973.421 3.775 1.664 7.881 3.217 7.233-2.902" fill="none"/>
    <path id="red" stroke="#DB4146" stroke-width="3" stroke-linecap="round" stroke-miterlimit="10" d="M188 81c11.551 15.658 22.225 33.109 36.017 46.796 2.992 2.969 4.498 5.58 6.002 9.188 2.877 6.899 6.524 13.548 9.495 20.32 2.26 5.153-.605 9.613-.186 14.792 1.452 17.898 14.391 33.2 21.897 49.046 4.001 8.448 10.386 17.317 14.289 25.807 8.986 19.552 19.32 26.268 28.598 45.528 4.687 9.729 14.904 24.99 20.721 34.342 4.336 6.973 6.464 16.642 8.641 24.682 2.585 9.549 7.173 18.265 9.892 27.623 2.377 8.183-5.296 15.855-4.423 24.092.543 5.121-.213 10.342-.401 15.464-.271 7.378 1.143 12.216 2.571 19.321.846 4.209.752 8.926 1.863 13.024 1.574 5.809 9.394 11.259 13.137 16.501 2.163 3.03 4.941 5.401 7.025 8.339 2.315 3.263 2.448 9.413 4.728 11.771 1.06 1.095 3.301.673 4.636 1.364 2.46 1.274 2.418 2.775 4.109 4.428 2.914 2.847 6.425 3.883 10.254 5.097 5.838 1.851 10.719 3.729 15.021 7.946 3.25 3.187 6.383 7.55 10.604 9.541 5.488 2.588 12.536 3.054 18.405 5.49 2.134.886 7.573 3.676 9.699 1.763 2.103-1.898 2.452-6.842 2.869-9.437.657-4.095 2.19-8.27 2.538-12.328" fill="none"/>
    <g id="locations" fill="#939598" stroke="#fff" stroke-width="4" stroke-miterlimit="10">
        <circle id="vila-do-condo" cx="215.191" cy="117.191" r="5.282"/>
        <circle id="modivas-sul" cx="289.191" cy="271.191" r="5.282"/>
        <circle id="maia" cx="385.191" cy="363.191" r="5.282"/>
        <circle id="araujo" cx="357.191" cy="391.19" r="5.282"/>
        <circle id="aeroporto" cx="313.5" cy="353.627" r="5.282"/>
        <circle id="matosinhos" cx="294.191" cy="453.19" r="5.282"/>
        <circle id="casa-musica" cx="368.191" cy="490.19" r="5.282"/>
        <circle id="trindade" cx="404.191" cy="512.19" r="5.282"/>
        <circle id="aliados" cx="400.191" cy="522.19" r="5.282"/>
        <circle id="sao-bento" cx="402.191" cy="532.19" r="5.282"/>
        <circle id="vila-nova" cx="405.191" cy="542.19" r="5.282"/>
        <circle id="joao-de-deus" cx="409.191" cy="562.19" r="5.282"/>
        <circle id="marques" cx="412.191" cy="497.19" r="5.282"/>
        <circle id="combatentes" cx="420.191" cy="490.19" r="5.282"/>
        <circle id="salgueiros" cx="420.191" cy="480.19" r="5.282"/>
        <circle id="hospital-sao-joao" cx="412.191" cy="458.19" r="5.282"/>
        <circle id="bolhao" cx="414.191" cy="518.19" r="5.282"/>
        <circle id="campo-agosto" cx="425.191" cy="522.19" r="5.282"/>
        <circle id="heroismo" cx="437.191" cy="524.19" r="5.282"/>
        <circle id="campanha" cx="446.191" cy="519.19" r="5.282"/>
        <circle id="estadio-dragao" cx="449.191" cy="507.19" r="5.282"/>
    </g>
</svg>
