<?xml version="1.0" encoding="utf-8"?>
<!-- Generator: Adobe Illustrator 15.1.0, SVG Export Plug-In . SVG Version: 6.00 Build 0)  -->
<!DOCTYPE svg PUBLIC "-//W3C//DTD SVG 1.1//EN" "http://www.w3.org/Graphics/SVG/1.1/DTD/svg11.dtd">
<svg version="1.1" id="Layer_1" xmlns="http://www.w3.org/2000/svg" xmlns:xlink="http://www.w3.org/1999/xlink" x="0px" y="0px"
	 width="565px" height="791px" viewBox="0 0 565 791" enable-background="new 0 0 565 791" xml:space="preserve">
<g>
	<path id="orange_1_" fill="none" stroke="#F7941E" stroke-width="3.5" stroke-linecap="round" stroke-miterlimit="10" d="
		M571.236,455.508c1.242-4.413,2.861-11.068,1.617-15.844c-0.732-2.817-2.549-5.366-3.277-8.142
		c-0.625-2.377-1.564-4.302-2.178-6.622c-0.816-3.096-0.203-12.244-3.58-13.69c-4.326-1.853-14.367,2.769-18.09,4.837
		c-5.752,3.197-11.699,6.584-15.109,12.454c-1.568,2.698-2.953,5.688-4.186,8.588c-1.541,3.625-1.561,4.707-5.637,5.373
		c-3.582,0.583-7.178,0.438-10.766,1.026c-3.943,0.647-10.238,0.782-13.523,3.194c-1.719,1.262-2.863,3.585-4.258,5.188
		c-2.389,2.757-4.361,4.035-3.793,8.033c0.334,2.342,1.809,4.213,1.576,6.646c-0.672,7.041-7.979,12.61-9.008,20.018
		c-0.879,6.324-2.18,12.655-4.232,18.708c-1.238,3.649-1.299,7.941-1.887,11.737c-0.527,3.397-1.281,6.481-3.109,9.408
		c-1.135,1.817-2.258,3.631-4.082,4.868c-1.697,1.151-3.607,1.539-5.637,1.539c-5.361,0-13.963-2.325-17.658-3.953
		c-0.521-0.23-0.98-0.434-1.369-0.596c-4.012-1.664-8.834-2.791-13.5-3.881c-5.922-1.384-4.637,1.188-10.27-1.467
		c-6.662-3.143-11.611-8.527-15.975-13.278c-1.418-1.544-2.758-3.002-4.074-4.292c-6.121-6.001-13.199-8.567-21.816-11.302
		l-0.703-0.223c-6.717-2.124-13.66-4.318-19.785-10.303c-1.756-1.713-2.838-3.391-3.555-4.499c-0.559-0.868-0.707-1.094-0.975-1.272
		c-0.295-0.053-0.639-0.088-0.939-0.126c-2.357-0.299-6.273-0.796-9.338-3.967c-3.473-3.592-4.811-8.523-6.104-13.294
		c-0.758-2.803-1.615-5.971-2.623-7.393c-1.436-2.021-3.24-3.993-5.15-6.081c-2.213-2.415-4.486-4.898-6.6-7.859
		c-1.934-2.708-4.891-5.703-8.02-8.874c-6.398-6.481-13.006-13.175-15.242-21.428c-1.229-4.532-1.676-9.127-2.113-13.57"/>
	<path id="blue_1_" fill="none" stroke="#00AEEF" stroke-width="3.5" stroke-linecap="round" stroke-miterlimit="10" d="
		M483.797,488.678c-0.426,4.975-1.83,9.972-2.881,14.179c-0.686,2.752-1.77,6.478-2.145,8.821c-0.084,0.527-0.168,1.13-0.258,1.778
		c-0.881,6.409-1.477,13.909-7.598,19.847c-2.225,2.159-4.359,2.682-10.467,2.682c-6.525,0-13.777-2.343-17.457-3.963
		c-0.494-0.219-0.922-0.407-1.283-0.56c-3.617-1.501-8.236-2.58-12.705-3.624c-5.891-1.376-5.154,1.069-11.271-1.815
		c-7.553-3.562-12.852-9.331-17.529-14.423c-1.371-1.492-2.672-2.905-3.893-4.105c-5.328-5.221-11.848-7.57-19.818-10.097
		l-0.701-0.223c-6.936-2.192-14.797-4.679-21.777-11.497c-1.789-1.747-3-3.449-3.811-4.674c-2.852-0.425-7.389-1.46-11.098-5.291
		c-4.373-4.523-5.949-10.342-7.34-15.474c-0.502-1.854-1.338-4.941-1.902-5.841c-1.227-1.727-2.85-3.501-4.73-5.556
		c-2.205-2.409-4.689-5.123-6.982-8.333c-1.701-2.382-4.52-5.238-7.506-8.262c-6.537-6.622-13.934-14.117-16.516-23.645
		c-0.924-3.409-0.625-7.065-1.588-10.465c-0.52-1.838-1.988-6.268-3.503-7.372c-4.351-3.177-3.92,7.935-4.246,10.106
		c-0.224,1.491-0.293,3.613-0.922,4.967c-1.705,3.663-7.02,9.188-9.06,12.581c-1.524,2.534-3.681,6.665-6.617,7.795
		c-3.136,1.206-6.812,1.46-10.015,2.367c-3.7,1.048-7.959,1.346-11.559-0.204c-2.33-1.004-4.305-2.726-6.797-3.385
		c-3.254-0.861-7.02-0.458-10.35-0.461c-3.594-0.004-11.377,2.833-14.655,0.864c-1.586-0.952-3.238-5.281-3.834-6.952
		c-1.141-3.202-4.257-5.277-5.607-8.346c-1.67-3.793-4.212-8.214,0.922-9.858c5.516-1.767,12.42,0.572,18.075,0.572"/>
	<path id="purple_1_" fill="none" stroke="#A970AF" stroke-width="3.5" stroke-linecap="round" stroke-miterlimit="10" d="
		M476.67,489.087c-0.355,4.171-1.396,8.341-2.402,12.372c-0.736,2.952-1.434,5.739-1.877,8.515
		c-0.102,0.639-0.203,1.366-0.311,2.151c-0.703,5.102-1.666,12.088-5.555,15.602c-1.572,1.416-3.561,1.949-5.695,1.949
		c-4.305,0-12.477-2.623-15.869-4.117c-0.551-0.243-1.043-0.459-1.455-0.633c-4.41-1.829-9.445-3.005-14.314-4.143
		c-5.652-1.32-4.104,1.312-9.254-1.115c-5.766-2.719-10.164-7.503-14.416-12.133c-1.469-1.599-2.857-3.107-4.256-4.479
		c-6.904-6.77-14.871-9.667-23.816-12.504l-0.707-0.224c-6.439-2.035-12.52-3.959-17.789-9.105c-1.352-1.319-2.18-2.602-2.844-3.632
		c-0.926-1.431-1.482-2.294-3.236-3.204c-0.422-0.218-1.453-0.349-2.281-0.455c-2.01-0.255-4.508-0.574-6.348-2.474
		c-2.574-2.662-3.686-6.772-4.865-11.124c-0.908-3.354-1.848-6.824-3.373-8.976c-1.619-2.283-3.533-4.371-5.555-6.582
		c-2.1-2.292-4.27-4.663-6.203-7.372c-2.162-3.028-5.258-6.164-8.535-9.483c-5.938-6.016-12.076-12.233-13.967-19.214
		c-1.117-4.122-1.547-8.506-1.961-12.745c-0.32-3.265-0.621-6.351-1.211-9.277c-0.412-2.054-0.824-3.993-1.221-5.86
		c-1.898-8.934-3.539-16.651-3.148-27.273c0.1-2.65,0.287-5.334,0.469-7.932c0.406-5.799,0.824-11.797,0.221-17.483
		c-0.76-7.158,1.791-13.789,4.256-20.201c2.619-6.814,5.094-13.254,3.264-19.555c-2.123-7.31-5.025-14.587-7.832-21.625
		c-3.16-7.928-6.429-16.127-8.745-24.684c-0.514-1.898-28.534,2.473-28.534,2.473"/>
	<path id="green_1_" fill="none" stroke="#8DC63F" stroke-width="3.5" stroke-linecap="round" stroke-miterlimit="10" d="
		M391.527,143.249c1.742,8.247,3.588,16.212-3.465,22.233c-6.775,5.786-13.764,11.838-20.182,18.382
		c-2.738,2.793-6.545,4.438-9.018,7.469c-4.373,5.36-1.057,9.519,0.689,15.408c2.9,9.783,3.445,20.457,7.066,30
		c2.525,6.648,7.305,12.243,10.254,18.718c4.584,10.062-8.643,10.159-14.768,10.884c-9.434,1.115-8.23,13.363-15.547,17.77
		c-5.301,3.193-12.268,4.74-14.221,11.471c-1.533,5.293-1.58,10.705-1.834,16.15c-0.201,4.339,1.031,11.842-1.607,15.456
		c-2.824,3.865-9.252,4.697-12.461,8.504c-3.26,3.867-3.672,9.815-4.16,14.615c-0.551,5.404-1.219,6.152-3.77,10.18
		c-4.777,7.553-5.252,16.625-3.629,24.699c0.672,3.342,1.008,6.785,1.334,10.114c0.4,4.076,0.775,7.925,1.709,11.369
		c1.316,4.855,6.67,10.279,11.846,15.522c3.363,3.408,6.84,6.93,9.391,10.501c1.637,2.295,3.543,4.379,5.564,6.584
		c2.105,2.303,4.285,4.682,6.207,7.389c2.389,3.368,3.527,7.57,4.627,11.632c0.719,2.649,1.936,7.153,2.922,8.484
		c0.4,0.099,1.107,0.188,1.605,0.25c1.484,0.19,3.334,0.426,5.074,1.326c3.73,1.933,5.283,4.34,6.42,6.098
		c0.549,0.85,0.98,1.521,1.658,2.183c3.846,3.756,8.766,5.311,14.465,7.114l0.713,0.226c9.619,3.049,18.934,6.453,27.148,14.505
		c1.553,1.523,3.08,3.187,4.557,4.794c3.523,3.831,7.689,8.195,12.631,10.216c1.896,0.775,3.727,1.142,5.768,1.479
		c3.338,0.55,6.436,0.541,9.705,1.096c4.215,0.716,8.398,2.396,12.318,4.05c2.861,1.206,4.344,1.688,5.646,1.918
		c1.898,0.333,4.986,1.384,6.572-0.268c1.457-1.518,2.008-5.664,2.283-7.938"/>
	<path id="red_1_" fill="none" stroke="#DB4146" stroke-width="3.5" stroke-linecap="round" stroke-miterlimit="10" d="
		M169.779,22.936c6.7,14.144,17.39,28.994,23.923,43.208c15.046,32.736,32.349,43.98,47.881,76.229
		c7.847,16.288,24.955,41.841,34.693,57.499c7.26,11.675,9.03,27.616,12.675,41.077c4.328,15.988,12.01,30.582,16.561,46.25
		c3.98,13.699-8.867,26.547-7.404,40.336c0.908,8.575-0.357,17.315-0.672,25.892c-0.455,12.354,1.912,20.453,4.305,32.35
		c1.416,7.048,1.258,14.945,3.119,21.808c2.637,9.726,15.729,18.851,21.996,27.628c3.621,5.073,8.273,9.044,11.762,13.962
		c3.877,5.463,4.1,15.76,7.916,19.709c1.773,1.833,5.525,1.127,7.762,2.284c4.119,2.134,4.049,4.646,6.881,7.413
		c4.879,4.767,10.756,6.501,17.168,8.533c9.773,3.099,17.945,6.243,25.148,13.305c5.441,5.336,10.688,12.641,17.756,15.975
		c9.189,4.333,13.596,1.115,23.422,5.194c3.572,1.483,16.146,6.712,19.705,3.509c3.52-3.179,4.303-12.611,5-16.956
		c1.1-6.855,3.275-13.498,3.857-20.294"/>
	<path id="yellow_1_" fill="none" stroke="#FFDF4F" stroke-width="3.5" stroke-linecap="round" stroke-miterlimit="10" d="
		M429.338,414.068c-5.086,4.241-10.365,6.289-8.998,13.53c1.307,6.91-0.389,14.868,3.859,21.104
		c2.771,4.068,9.061,7.912,10.883,12.271c0.785,1.877,0.535,4.096,0.535,6.26c0.004,6.537-2.045,8.037-6.381,12.977
		c-6.646,7.568-13.773,14.828-19.469,23.111c-3.184,4.634-4.467,10.777-4.406,16.336c0.037,3.334-0.596,6.566-0.395,9.864
		c0.344,5.693,2.215,11.258,2.605,16.818c2.424,11.148,4.846,22.294,7.27,33.442c4.215,19.387,2.506,38.829,1.939,58.645"/>
	<g id="locations">
		
			<circle id="modivas-sul" fill="#939598" stroke="#FFFFFF" stroke-width="4" stroke-miterlimit="10" cx="200.597" cy="80.506" r="5.282"/>
		
			<circle id="maia" fill="#939598" stroke="#FFFFFF" stroke-width="4" stroke-miterlimit="10" cx="377.345" cy="263.062" r="5.282"/>
		
			<circle id="araujo" fill="#939598" stroke="#FFFFFF" stroke-width="4" stroke-miterlimit="10" cx="332.626" cy="296.866" r="5.282"/>
		
			<circle id="aeroporto" fill="#939598" stroke="#FFFFFF" stroke-width="4" stroke-miterlimit="10" cx="256.718" cy="246.875" r="5.282"/>
		
			<circle id="matosinhos" fill="#939598" stroke="#FFFFFF" stroke-width="4" stroke-miterlimit="10" cx="219.436" cy="411.176" r="5.282"/>
		
			<circle id="casa-musica" fill="#939598" stroke="#FFFFFF" stroke-width="4" stroke-miterlimit="10" cx="339.435" cy="463.091" r="5.282"/>
		
			<circle id="trindade" fill="#939598" stroke="#FFFFFF" stroke-width="4" stroke-miterlimit="10" cx="405.927" cy="507.265" r="5.282"/>
		
			<circle id="aliados" fill="#939598" stroke="#FFFFFF" stroke-width="4" stroke-miterlimit="10" cx="404.927" cy="528.673" r="5.282"/>
		
			<circle id="sao-bento" fill="#939598" stroke="#FFFFFF" stroke-width="4" stroke-miterlimit="10" cx="408.436" cy="544.676" r="5.281"/>
		
			<circle id="vila-nova" fill="#939598" stroke="#FFFFFF" stroke-width="4" stroke-miterlimit="10" cx="411.209" cy="560.343" r="5.281"/>
		
			<circle id="joao-de-deus" fill="#939598" stroke="#FFFFFF" stroke-width="4" stroke-miterlimit="10" cx="418.345" cy="604.009" r="5.282"/>
		
			<circle id="marques" fill="#939598" stroke="#FFFFFF" stroke-width="4" stroke-miterlimit="10" cx="420.291" cy="490.009" r="5.281"/>
		
			<circle id="combatentes" fill="#939598" stroke="#FFFFFF" stroke-width="4" stroke-miterlimit="10" cx="433.043" cy="476.148" r="5.281"/>
		
			<circle id="salgueiros" fill="#939598" stroke="#FFFFFF" stroke-width="4" stroke-miterlimit="10" cx="433.043" cy="454.866" r="5.281"/>
		
			<circle id="hospital-sao-joao" fill="#939598" stroke="#FFFFFF" stroke-width="4" stroke-miterlimit="10" cx="423.626" cy="417.457" r="5.282"/>
		
			<circle id="bolhao" fill="#939598" stroke="#FFFFFF" stroke-width="4" stroke-miterlimit="10" cx="423.572" cy="519.833" r="5.281"/>
		
			<circle id="campo-agosto" fill="#939598" stroke="#FFFFFF" stroke-width="4" stroke-miterlimit="10" cx="442.626" cy="525.114" r="5.282"/>
		
			<circle id="heroismo" fill="#939598" stroke="#FFFFFF" stroke-width="4" stroke-miterlimit="10" cx="460.189" cy="528.675" r="5.281"/>
		
			<circle id="campanha" fill="#939598" stroke="#FFFFFF" stroke-width="4" stroke-miterlimit="10" cx="471.232" cy="515.828" r="5.281"/>
		
			<circle id="estadio-dragao" fill="#939598" stroke="#FFFFFF" stroke-width="4" stroke-miterlimit="10" cx="478.626" cy="491.009" r="5.282"/>
	</g>
</g>
</svg>
