<svg xmlns="http://www.w3.org/2000/svg" width="566" height="428">
    <path id="area-mask" d="M566 428h-566v-428h566v428zm-357.924-206.363c.127 12.408-12.955 20.742-20.786 29.15-6.017 6.462-12.146 9.363-3.452 15.633 5.27 3.801 10.611 11.538 19.068 8.279 6.454-2.489 5.008-14.254 11.295-15.9 9.209-2.41 8.994 10.444 11.547 15.643 2.111 4.301 4.377 7.145 9.285 5.944 6.278-1.538 8.194-12.456 9.193-17.72.574-3.028 2.225-12.141 6.934-11.527 4.057.531 3.458 33.002 14.744 17.783 1.998-2.694 2.687-9.133 7.953-8.781 8.316.553-3.281 33.1.49 40.661 6.646 13.327 14.854-8.878 17.189-13.613 1.774-3.597 3.83-10.546 6.703-13.128 5.135-4.615 7.995-1.395 8.145 4.847.16 6.771-5.74 27.89 6.736 17.333 3.502-2.963 6.137-9.807 10.753-10.471 8.961-1.289 4.173 6.88 3.751 11.258-1.75 18.166 19.617-2.855 24.912-1.755 3.29 6.629 1.912 12.38 3.39 19.737.683 3.398-.438 11.842 1.079 13.3 5.785 5.56 12.927-5.006 13.111 8.737.084 6.273.172 9.015 6.27 11.267 9.234 3.411 21.638 2.94 31.256 4.378 4.795.717 9.939.375 15.037.576 7.119.282 8.535-.444 9.328 6.927.229 2.137.852 4.553.891 6.797 3.399.63 4.127-2.556 6.782-3.55 2.187-.818 5.517-1.163 8.006-.796 5.229.771 9.224 5.109 15.019 5.642 6.051.557 8.74-.873 12.508-5.575 2.002-2.5 1.129-3.84 4.491-5.507 9.17-4.545 16.757-1.072 20.479 7.815 2.708 6.463 6.025 13.224-3.08 14.675 5.717 3.337 11.844 2.717 11.83-5.14-.006-3.154-2.055-6.3-1.908-9.2.183-3.602 3.443-6.438 4.688-9.711 3.593-9.451-1.996-19.317 7.023-25.913 5.104-3.733 12.031-4.967 15.074-11.036 4.47-8.921.425-18.877 1.235-28.185.821-9.438 8.448-13.115 13.931-19.838 5.363-6.577 8.588-10.988 8.795-19.227.248-9.903.871-16.345-2.932-25.368-3.053-7.244-6.047-14.52-9.395-21.635-3.11-6.607-8.266-12.414-11.052-18.999-1.373-3.243-1.767-9.759-4.783-11.577-3.918-2.363-7.569 1.554-10.833-.461-8.734-5.418-2.982-15.144.938-20.627 4.088-5.718.789-4.421-2.842-8.89-3.656-4.5-1.428-5.782-7.953-6.907-4.357-.751-6.467.306-10.479-3.062-2.752-2.31-7.507-27.591-15.035-13.49-2.537 4.75 1.752 9.002.732 13.861-.984 4.691-6.262 8.138-10.464 9.691-10.335 3.82-22.089-.32-32.774 1.236-2.556 7.132.014 12.983-5.077 19.289-4.343 5.379-13.702 9.109-20.663 9.373-7.766.295-11.074-8.113-18.771-6.891-9.175 1.457-4.429 12.502-12.035 15.5-4.77 1.877-16.96-3.727-21.909-4.891-16.518-3.885-37.299-.062-51.229-11.552-3.828-3.156-8.439-5.28-12.367-8.53-4.722-3.907-4.946-6.561-10.152-2.806-3.592 2.591-4.541 7.646-8.085 10.26-4.979 3.675-9.265 1.124-14.555.689-5.118-.42-10.663.416-15.903.09-4.635-.288-14.177-3.956-18.472-1.417-2.751 1.626-1.268 5.005-3.915 5.946-2.023.721-3.942-1.574-6.298-1.929-3.503 8.634-8.436 16.708-11.958 25.308-4.055 9.904-1.539 17.579-1.434 27.98z"/>
    <g id="areas">
        <path fill="#FDC140" d="M508.934 374.553c-.005-3.153-2.055-6.299-1.907-9.199.182-3.603 3.442-6.439 4.688-9.712 3.592-9.45-1.996-19.316 7.022-25.913 5.104-3.733 12.032-4.966 15.074-11.035 4.47-8.922.425-18.877 1.235-28.186.822-9.437 8.448-13.114 13.931-19.838 5.364-6.577 8.588-10.987 8.795-19.226.248-9.904.871-16.345-2.932-25.368-3.053-7.245-6.046-14.521-9.395-21.635-3.11-6.608-8.265-12.415-11.052-18.999-1.373-3.244-1.767-9.759-4.783-11.578-3.918-2.363-7.569 1.555-10.833-.461-8.734-5.417-2.982-15.144.938-20.626 4.089-5.719.79-4.422-2.841-8.89-3.656-4.5-1.428-5.782-7.954-6.907-4.357-.751-6.467.306-10.479-3.062-2.752-2.31-7.507-27.591-15.035-13.49-2.537 4.75 1.752 9.003.732 13.861-.984 4.692-6.261 8.138-10.464 9.691-4.029 1.489-8.275 1.769-12.59 1.647l.011-.359c1.646.778.956 1.499 1.693 3.453 7.507.23 6.126 5.221 5.203 11.042-.228 1.435.122 2.971-.399 4.341-.721 1.893-1.24 1.434-2.34 2.926-1.396 1.894-2.084 4.133-2.594 6.741-1.218 6.231-4.392 10.599-6.327 16.676-2.156 6.772 4.678 10.754 2.846 17.106-1.45 5.024-5.297 9.481-6.483 14.438-1.049 4.383-3.35 8.222-4.772 12.411-1.043 3.073.731 4.528 1.436 7.256.775 3.005-.285 6.396-.69 9.446-.973 7.325-2.899 14.742-3.593 22.074-.189 2.001-.267 4.391.335 6.158.656 1.926 3.015 4.796 3.292 6.75.67 4.722-5.351 15.698.308 18.941 3.782 2.168 8.045 2.815 11.416 5.652 2.181 1.835 1.775 4.049 2.617 6.451.692 1.976 2.128 3.143 2.976 4.96 1.536 3.293.623 4.752 3.066 7.677 2.794 3.347 3.087 3.636 6.996 4.257 4.141.658 6.28 2.928 8.588 6.319 2.557 3.758 6.044 6.6 9.129 9.881 1.176 1.251 2.813 2.69 3.636 4.212.812 1.505 4.632 6.96 5.669 8.509 1.254 1.875 3.133 4.631 4.391 7.502" id="santo-domingo-savio"/>
        <path fill="#F2703A" d="M208.077 221.634c.126 12.409-12.956 20.742-20.786 29.151-6.018 6.461-12.146 9.363-3.453 15.633 5.27 3.801 10.612 11.537 19.068 8.279 6.455-2.489 5.008-14.255 11.296-15.901 9.208-2.41 8.994 10.444 11.546 15.643 2.112 4.302 4.377 7.146 9.286 5.945 6.278-1.539 8.194-12.457 9.192-17.721.575-3.028 2.226-12.141 6.935-11.526 4.057.53 3.458 33.002 14.744 17.782 1.998-2.694 2.686-9.132 7.953-8.781 8.317.554-3.28 33.1.49 40.662 6.646 13.326 14.854-8.879 17.192-13.618 2.49-5.05 4.158-12.691 8.751-16.144 1.301-.979 3.267-.423 4.725-.972 1.895-.715 2.959-2.159 4.568-3.304 1.756-1.248 2.935-1.551 5.084-1.991 4.802-.984 7.207-.569 10.144-5.269 2.783-4.453 9.541-15.501 10.639-16.393 1.054-.856 1.395-2.505 2.801-2.761 1.306-.238 1.969.824 2.987 1.018 10.718 2.033 3.893-9.217 10.766-11.764 2.644-.979 6.432 1.756 7.493-1.732.925-3.038-2.252-6.129-1.748-9.249.876-5.427 6.653-10.883 9.45-15.552 4.134-6.902 6.248-15.049 11.107-21.229.307-.391-16.115-4.193-17.667-4.418-5.217-.756-10.467-1.54-15.722-1.994-11.68-1.01-24.221-1.564-33.702-9.384-3.826-3.156-8.438-5.28-12.366-8.53-4.722-3.907-4.946-6.561-10.152-2.806-3.592 2.591-4.541 7.646-8.084 10.261-4.98 3.674-9.266 1.124-14.555.689-5.118-.42-10.664.416-15.903.09-4.635-.288-14.177-3.956-18.472-1.417-2.751 1.626-1.268 5.005-3.914 5.947-2.024.72-3.943-1.575-6.299-1.929-3.503 8.634-8.436 16.708-11.958 25.307-4.057 9.903-1.542 17.577-1.436 27.978z" id="andalucia"/>
        <path fill="#2DB46A" d="M497.104 379.694c1.662-.265 4.348 2.128 6.527 1.902 2.055-.213 3.554-1.095 4.528-2.949 2.456-4.676-2.549-11.95-5.058-15.699-1.037-1.549-4.856-7.004-5.669-8.509-.822-1.521-2.46-2.961-3.636-4.212-3.085-3.281-6.572-6.123-9.129-9.881-2.308-3.392-4.447-5.661-8.588-6.319-3.909-.621-4.202-.91-6.996-4.257-2.443-2.925-1.53-4.384-3.066-7.677-.848-1.817-2.283-2.984-2.976-4.96-.842-2.402-.437-4.616-2.617-6.451-3.371-2.837-7.634-3.484-11.416-5.652-5.658-3.243.362-14.22-.308-18.941-.277-1.954-2.636-4.824-3.292-6.75-.602-1.768-.524-4.157-.335-6.158.693-7.332 2.62-14.749 3.593-22.074.405-3.05 1.466-6.441.69-9.446-.704-2.728-2.479-4.183-1.436-7.256 1.423-4.189 3.724-8.028 4.772-12.411 1.187-4.957 5.033-9.414 6.483-14.438 1.832-6.352-5.002-10.334-2.846-17.106 1.936-6.077 5.109-10.445 6.327-16.676.51-2.607 1.197-4.847 2.594-6.741 1.1-1.492 1.619-1.033 2.34-2.926.521-1.37.172-2.906.399-4.341.923-5.821 2.304-10.812-5.203-11.042-.737-1.955-.048-2.675-1.693-3.453-.998-.472-4.686.104-5.957.018-4.737-.319-9.51-.76-14.237-.071-2.557 7.132.013 12.983-5.078 19.289-4.343 5.379-13.701 9.109-20.662 9.374-7.767.295-11.075-8.114-18.771-6.891-9.175 1.458-4.429 12.502-12.035 15.5l-6.048-.646c-4.859 6.18-6.974 14.326-11.107 21.229-2.797 4.669-8.574 10.125-9.45 15.552-.504 3.12 2.673 6.211 1.748 9.249-1.062 3.488-4.85.753-7.493 1.732-6.873 2.547-.048 13.797-10.766 11.764-1.019-.193-1.682-1.256-2.987-1.018-1.406.256-1.747 1.904-2.801 2.761-1.098.892-7.855 11.939-10.639 16.393-2.937 4.699-5.342 4.284-10.144 5.269-2.149.44-3.328.743-5.084 1.991-1.609 1.145-2.674 2.589-4.568 3.304-1.458.549-3.424-.007-4.725.972l-2.051 3.021c5.136-4.616 7.995-1.395 8.145 4.846.161 6.771-5.74 27.89 6.737 17.333 3.502-2.963 6.136-9.807 10.752-10.471 8.961-1.288 4.173 6.88 3.75 11.259-1.748 18.165 19.618-2.855 24.914-1.756 3.289 6.629 1.911 12.38 3.389 19.738.683 3.397-.438 11.841 1.079 13.3 5.785 5.56 12.927-5.007 13.111 8.736.085 6.274.173 9.015 6.27 11.268 9.234 3.41 21.638 2.94 31.256 4.378 4.795.717 9.939.374 15.038.576 7.119.282 8.535-.444 9.327 6.927.229 2.136.852 4.553.891 6.797 3.399.629 4.127-2.556 6.782-3.55 2.187-.818 5.518-1.164 8.006-.797 5.23.772 9.225 5.109 15.02 5.643 6.051.556 8.739-.873 12.506-5.575 2.003-2.5 1.13-3.84 4.492-5.507 9.17-4.546 16.757-1.073 20.479 7.814 2.71 6.459 6.027 13.221-3.078 14.672z" id="popular" />
    </g>
    <polyline id="green-line" stroke="#A4CD39" stroke-width="4" stroke-miterlimit="10" points="514.932,300.717 331.383,246.043 190.239,172.74" fill="none"/>
    <g id="stations">
        <circle id="station-one" fill="#55B6E6" cx="190.239" cy="172.74" r="7.234"/>
        <circle id="station-two" fill="#A4CD39" cx="328.084" cy="245.365" r="7.234"/>
        <circle id="station-three" fill="#A4CD39" cx="401.426" cy="268.066" r="7.234"/>
        <circle id="station-four" fill="#A4CD39" cx="515.059" cy="301.717" r="7.062"/>
    </g>
    <g id="locations" fill="#929497" stroke="#fff" stroke-width="4" stroke-miterlimit="10">
        <circle id="dwelling-consolidation" cx="241.191" cy="229.282" r="5.282"/>
        <circle id="paseo-urbano" cx="279.191" cy="219.282" r="5.282"/>
        <circle id="puente-mirador" cx="315.19" cy="208.282" r="5.282"/>
        <circle id="improving-road" cx="420.19" cy="248.282" r="5.282"/>
        <circle id="parque-imaginacion" cx="437.19" cy="243.282" r="5.282"/>
        <circle id="parque-lineal" cx="434.19" cy="296.282" r="5.282"/>
        <circle id="parque-biblioteca" cx="502.19" cy="269.282" r="5.282"/>
        <circle id="paseo-calle" cx="518.19" cy="306.282" r="5.282"/>
        <circle id="santo-domingo" cx="526.19" cy="314.282" r="5.282"/>
        <circle id="granzial-sports" cx="475.19" cy="352.282" r="5.282"/>
    </g>
    <path id="border" stroke="#D0D2D3" stroke-width="3" stroke-miterlimit="10" d="M208.076 221.307c.127 12.408-12.955 20.742-20.786 29.15-6.017 6.462-12.146 9.363-3.452 15.633 5.27 3.801 10.611 11.538 19.068 8.279 6.454-2.489 5.008-14.254 11.295-15.9 9.209-2.41 8.994 10.444 11.547 15.643 2.111 4.301 4.377 7.145 9.285 5.944 6.278-1.538 8.194-12.456 9.193-17.72.574-3.028 2.225-12.141 6.934-11.527 4.057.531 3.458 33.002 14.744 17.783 1.998-2.694 2.687-9.133 7.953-8.781 8.316.553-3.281 33.1.49 40.661 6.646 13.327 14.854-8.878 17.189-13.613 1.774-3.597 3.83-10.546 6.703-13.128 5.135-4.615 7.995-1.395 8.145 4.847.16 6.771-5.74 27.89 6.736 17.333 3.502-2.963 6.137-9.807 10.753-10.471 8.961-1.289 4.173 6.88 3.751 11.258-1.75 18.166 19.617-2.855 24.912-1.755 3.29 6.629 1.912 12.38 3.39 19.737.683 3.398-.438 11.842 1.079 13.3 5.785 5.56 12.927-5.006 13.111 8.737.084 6.273.172 9.015 6.27 11.267 9.234 3.411 21.638 2.94 31.256 4.378 4.795.717 9.939.375 15.037.576 7.119.282 8.535-.444 9.328 6.927.229 2.137.852 4.553.891 6.797 3.399.63 4.127-2.556 6.782-3.55 2.187-.818 5.517-1.163 8.006-.796 5.229.771 9.224 5.109 15.019 5.642 6.051.557 8.74-.873 12.508-5.575 2.002-2.5 1.129-3.84 4.491-5.507 9.17-4.545 16.757-1.072 20.479 7.815 2.708 6.463 6.025 13.224-3.08 14.675 5.717 3.337 11.844 2.717 11.83-5.14-.006-3.154-2.055-6.3-1.908-9.2.183-3.602 3.443-6.438 4.688-9.711 3.593-9.451-1.996-19.317 7.023-25.913 5.104-3.733 12.031-4.967 15.074-11.036 4.47-8.921.425-18.877 1.235-28.185.821-9.438 8.448-13.115 13.931-19.838 5.363-6.577 8.588-10.988 8.795-19.227.248-9.903.871-16.345-2.932-25.368-3.053-7.244-6.047-14.52-9.395-21.635-3.11-6.607-8.266-12.414-11.052-18.999-1.373-3.243-1.767-9.759-4.783-11.577-3.918-2.363-7.569 1.554-10.833-.461-8.734-5.418-2.982-15.144.938-20.627 4.088-5.718.789-4.421-2.842-8.89-3.656-4.5-1.428-5.782-7.953-6.907-4.357-.751-6.467.306-10.479-3.062-2.752-2.31-7.507-27.591-15.035-13.49-2.537 4.75 1.752 9.002.732 13.861-.984 4.691-6.262 8.138-10.464 9.691-10.335 3.82-22.089-.32-32.774 1.236-2.556 7.132.014 12.983-5.077 19.289-4.343 5.379-13.702 9.109-20.663 9.373-7.766.295-11.074-8.113-18.771-6.891-9.175 1.457-4.429 12.502-12.035 15.5-4.77 1.877-16.96-3.727-21.909-4.891-16.518-3.885-37.299-.062-51.229-11.552-3.828-3.156-8.439-5.28-12.367-8.53-4.722-3.907-4.946-6.561-10.152-2.806-3.592 2.591-4.541 7.646-8.085 10.26-4.979 3.675-9.265 1.124-14.555.689-5.118-.42-10.663.416-15.903.09-4.635-.288-14.177-3.956-18.472-1.417-2.751 1.626-1.268 5.005-3.915 5.946-2.023.721-3.942-1.574-6.298-1.929-3.503 8.634-8.436 16.708-11.958 25.308-4.055 9.904-1.539 17.579-1.434 27.98z" fill="none"/>
</svg>
