<?xml version="1.0" encoding="utf-8"?>
<!-- Generator: Adobe Illustrator 15.1.0, SVG Export Plug-In . SVG Version: 6.00 Build 0)  -->
<!DOCTYPE svg PUBLIC "-//W3C//DTD SVG 1.1//EN" "http://www.w3.org/Graphics/SVG/1.1/DTD/svg11.dtd">
<svg version="1.1" id="Layer_1" xmlns="http://www.w3.org/2000/svg" xmlns:xlink="http://www.w3.org/1999/xlink" x="0px" y="0px"
	 width="440.662px" height="107.938px" viewBox="0 0 440.662 107.938" enable-background="new 0 0 440.662 107.938"
	 xml:space="preserve">
<polygon fill="#FFFFFF" points="82.653,47.096 86.276,47.096 86.276,55.638 96.018,55.638 96.018,47.096 99.64,47.096 99.64,68.517 
	96.018,68.517 96.018,58.992 86.276,58.992 86.276,68.517 82.653,68.517 "/>
<path fill="#FFFFFF" d="M102.768,64.812c0-3.328,2.84-5.559,10.029-6.373v-0.456c0-1.54-0.812-2.202-2.521-2.202
	c-2.147,0-3.887,1.036-5.192,2.084l-1.738-2.228c1.654-1.506,4.232-2.784,7.42-2.784c4.117,0,5.537,1.968,5.537,5.558v6.344
	c0,1.848,0.115,2.981,0.433,3.762h-3.595c-0.199-0.637-0.344-1.104-0.344-1.973c-1.568,1.596-3.391,2.202-5.686,2.202
	C104.621,68.746,102.768,67.357,102.768,64.812 M112.797,64.23v-3.389c-4.26,0.581-6.525,1.624-6.525,3.305
	c0,1.214,0.839,1.85,2.144,1.85C110.244,65.996,111.664,65.305,112.797,64.23"/>
<path fill="#FFFFFF" d="M119.82,53.142h3.566v2.526h0.057c0.959-1.536,2.609-2.814,5.537-2.814h0.233l-0.116,3.273
	c-0.173-0.03-0.754-0.059-0.959-0.059c-2.289,0-3.736,1.072-4.752,2.723v9.726h-3.566V53.142z"/>
<polygon fill="#FFFFFF" points="130.525,53.142 134.268,53.142 138.033,64.491 138.089,64.491 141.833,53.142 145.283,53.142 
	139.713,68.545 136.091,68.545 "/>
<path fill="#FFFFFF" d="M146.198,64.812c0-3.328,2.841-5.559,10.027-6.373v-0.456c0-1.54-0.811-2.202-2.52-2.202
	c-2.144,0-3.882,1.036-5.187,2.084l-1.742-2.228c1.654-1.506,4.232-2.784,7.424-2.784c4.117,0,5.535,1.968,5.535,5.558v6.344
	c0,1.848,0.117,2.981,0.435,3.762h-3.593c-0.206-0.637-0.352-1.104-0.352-1.973c-1.561,1.596-3.391,2.202-5.68,2.202
	C148.053,68.746,146.198,67.357,146.198,64.812 M156.225,64.23v-3.389c-4.258,0.581-6.52,1.624-6.52,3.305
	c0,1.214,0.84,1.85,2.149,1.85C153.676,65.996,155.094,65.305,156.225,64.23"/>
<path fill="#FFFFFF" d="M163.254,53.142h3.564v2.526h0.061c0.957-1.536,2.609-2.814,5.537-2.814h0.231l-0.118,3.273
	c-0.173-0.03-0.748-0.059-0.951-0.059c-2.293,0-3.742,1.072-4.76,2.723v9.726h-3.564V53.142z"/>
<path fill="#FFFFFF" d="M173.969,60.873c0-5.324,2.634-8.019,6.578-8.019c1.652,0,3.277,0.669,4.408,1.941v-7.699h3.563v17.659
	c0,1.848,0.117,2.982,0.462,3.762h-3.681c-0.203-0.435-0.344-1.302-0.344-2.086c-1.131,1.307-2.611,2.315-4.9,2.315
	C176.547,68.746,173.969,66.199,173.969,60.873 M184.955,63.885v-6.167c-0.961-1.243-2.348-1.905-3.627-1.905
	c-2.695,0-3.799,1.73-3.799,5.148c0,3.24,1.393,4.865,3.684,4.865C182.693,65.826,184.111,64.896,184.955,63.885"/>
<path fill="#FFFFFF" d="M199.432,60.695v-13.6h3.621v13.284c0,3.274,1.422,5.212,4.725,5.212c3.277,0,4.697-1.882,4.697-5.181
	V47.095h3.564v13.574c0,4.868-2.752,8.194-8.287,8.194C201.833,68.863,199.432,65.564,199.432,60.695"/>
<path fill="#FFFFFF" d="M219.889,53.142h3.592v2.085c0.986-1.039,2.844-2.373,5.623-2.373c2.701,0,4.438,1.59,4.438,4.632v11.031
	h-3.592v-10.13c0-1.713-0.725-2.492-2.291-2.492c-1.564,0-2.872,0.811-4.178,1.998v10.624h-3.592V53.142z"/>
<path fill="#FFFFFF" d="M237.107,47.386h3.655v3.097h-3.655V47.386z M237.139,53.141h3.597v15.375h-3.597V53.141z"/>
<polygon fill="#FFFFFF" points="242.834,53.142 246.572,53.142 250.342,64.491 250.4,64.491 254.137,53.142 257.586,53.142 
	252.021,68.545 248.396,68.545 "/>
<path fill="#FFFFFF" d="M258.26,60.842c0-5.852,4.145-7.988,7.335-7.988c3.45,0,6.753,2.058,6.753,8.31v0.837h-10.525
	c0.147,2.78,1.857,3.995,4.119,3.995c1.998,0,3.16-0.663,4.318-1.795l1.881,1.854c-1.59,1.764-3.705,2.777-6.462,2.777
	C261.822,68.833,258.26,66.485,258.26,60.842 M269.074,59.34c-0.207-2.346-1.363-3.59-3.512-3.59c-1.738,0-3.332,0.983-3.682,3.59
	H269.074z"/>
<path fill="#FFFFFF" d="M275.227,53.142h3.564v2.526h0.057c0.959-1.536,2.608-2.814,5.537-2.814h0.234l-0.119,3.273
	c-0.172-0.03-0.754-0.059-0.955-0.059c-2.291,0-3.738,1.072-4.754,2.723v9.726h-3.564V53.142z"/>
<path fill="#FFFFFF" d="M285.82,66.402l1.939-2.172c1.162,0.985,2.875,1.825,4.844,1.825c1.912,0,3.071-0.491,3.071-1.765
	c0-1.245-1.567-1.625-3.421-2.053c-2.637-0.609-5.797-1.309-5.797-4.868c0-2.692,2.318-4.517,5.713-4.517
	c2.926,0,4.719,0.84,6.316,2.172l-1.711,2.317c-1.129-0.929-2.955-1.675-4.346-1.675c-1.971,0-2.611,0.69-2.611,1.555
	c0,1.244,1.537,1.623,3.365,2.031c2.635,0.579,5.854,1.246,5.854,4.834c0,3.242-2.93,4.745-6.434,4.745
	C289.76,68.833,287.211,67.82,285.82,66.402"/>
<path fill="#FFFFFF" d="M301.809,47.386h3.652v3.097h-3.652V47.386z M301.836,53.141h3.592v15.375h-3.592V53.141z"/>
<path fill="#FFFFFF" d="M310.342,64.491v-8.514h-2.666v-2.836h2.666v-5.352h3.563v5.352h3.974v2.836h-3.974v7.62
	c0,1.648,0.495,2.312,2.267,2.312c0.518,0,1.186-0.083,1.535-0.2v2.808c-0.381,0.082-1.715,0.2-2.609,0.2
	C311.184,68.717,310.342,67.271,310.342,64.491"/>
<path fill="#FFFFFF" d="M319.049,74.013l0.814-2.859c0.438,0.112,1.361,0.317,2.609,0.317c1.275,0,1.941-0.495,2.434-1.734
	l0.434-1.138l-5.912-15.457h3.711l3.969,11.206h0.061l3.941-11.206h3.539l-6.557,17.052c-1.012,2.693-2.344,4.287-5.389,4.287
	C320.877,74.48,319.803,74.219,319.049,74.013"/>
<path fill="#FFFFFF" d="M81.61,91.178c0-6.861,3.742-11.029,9.451-11.029c4.057,0,7.042,1.884,8.32,6.746l-3.364,0.895
	c-0.958-3.211-2.434-4.281-4.987-4.281c-2.549,0-5.766,1.562-5.766,7.582c0,5.994,2.867,8.047,5.91,8.047
	c2.84,0,4.785-1.681,5.015-4.834h-4.318v-2.92h7.795v10.598h-2.985v-3.103h-0.056c-0.666,1.534-2.55,3.497-5.855,3.497
	C84.626,102.375,81.61,97.723,81.61,91.178"/>
<path fill="#FFFFFF" d="M103.564,86.609h3.566v2.516h0.053c0.959-1.534,2.613-2.812,5.543-2.812h0.229l-0.116,3.274
	c-0.175-0.029-0.754-0.057-0.957-0.057c-2.287,0-3.74,1.065-4.752,2.716v9.733h-3.566V86.609z"/>
<path fill="#FFFFFF" d="M114.321,98.274c0-3.333,2.84-5.56,10.029-6.372v-0.464c0-1.534-0.812-2.205-2.523-2.205
	c-2.147,0-3.885,1.049-5.19,2.091l-1.736-2.23c1.65-1.503,4.23-2.78,7.418-2.78c4.115,0,5.537,1.971,5.537,5.558v6.338
	c0,1.855,0.117,2.984,0.435,3.771h-3.595c-0.201-0.642-0.346-1.103-0.346-1.973c-1.564,1.592-3.389,2.197-5.684,2.197
	C116.176,102.205,114.321,100.818,114.321,98.274 M124.35,97.689v-3.387c-4.262,0.58-6.523,1.619-6.523,3.299
	c0,1.217,0.839,1.854,2.144,1.854C121.797,99.455,123.215,98.764,124.35,97.689"/>
<path fill="#FFFFFF" d="M130.563,94.335c0-5.329,2.636-8.021,6.578-8.021c1.652,0,3.277,0.664,4.406,1.941v-7.702h3.564v17.656
	c0,1.855,0.12,2.984,0.463,3.771h-3.679c-0.203-0.441-0.348-1.312-0.348-2.088c-1.129,1.301-2.611,2.312-4.896,2.312
	C133.139,102.205,130.563,99.659,130.563,94.335 M141.547,97.344v-6.166c-0.955-1.244-2.348-1.908-3.625-1.908
	c-2.695,0-3.795,1.732-3.795,5.15c0,3.242,1.389,4.86,3.678,4.86C139.285,99.28,140.707,98.355,141.547,97.344"/>
<path fill="#FFFFFF" d="M148.607,97.632V86.609h3.594v10.184c0,1.703,0.726,2.488,2.293,2.488c1.564,0,2.871-0.807,4.172-1.997
	V86.609h3.593v15.371h-3.593v-2.088c-0.985,1.04-2.838,2.377-5.623,2.377C150.345,102.27,148.607,100.669,148.607,97.632"/>
<path fill="#FFFFFF" d="M164.934,98.274c0-3.333,2.838-5.56,10.029-6.372v-0.464c0-1.534-0.812-2.205-2.521-2.205
	c-2.149,0-3.885,1.049-5.192,2.091l-1.738-2.23c1.65-1.503,4.23-2.78,7.422-2.78c4.115,0,5.533,1.971,5.533,5.558v6.338
	c0,1.855,0.117,2.984,0.434,3.771h-3.59c-0.209-0.642-0.348-1.103-0.348-1.973c-1.566,1.592-3.395,2.197-5.684,2.197
	C166.789,102.205,164.934,100.818,164.934,98.274 M174.963,97.689v-3.387c-4.262,0.58-6.523,1.619-6.523,3.299
	c0,1.217,0.839,1.854,2.144,1.854C172.412,99.455,173.83,98.764,174.963,97.689"/>
<path fill="#FFFFFF" d="M183.168,97.949v-8.51H180.5v-2.83h2.668v-5.36h3.561v5.36h3.972v2.83h-3.972v7.614
	c0,1.649,0.496,2.318,2.267,2.318c0.518,0,1.188-0.091,1.533-0.204v2.812c-0.377,0.078-1.709,0.194-2.607,0.194
	C184.008,102.175,183.168,100.73,183.168,97.949"/>
<path fill="#FFFFFF" d="M192.126,94.303c0-5.844,4.143-7.989,7.334-7.989c3.45,0,6.752,2.054,6.752,8.312v0.838h-10.521
	c0.146,2.775,1.855,3.992,4.117,3.992c2,0,3.156-0.66,4.317-1.793l1.884,1.854c-1.593,1.762-3.711,2.779-6.461,2.779
	C195.691,102.295,192.126,99.947,192.126,94.303 M202.939,92.799c-0.203-2.344-1.365-3.592-3.508-3.592
	c-1.74,0-3.332,0.986-3.683,3.592H202.939z"/>
<path fill="#FFFFFF" d="M215.416,96.94l2.871-1.506c1.274,2.515,3.242,3.733,5.914,3.733c2.604,0,4.371-0.841,4.371-2.78
	c0-1.856-1.33-2.721-4.869-3.762c-4.142-1.215-7.475-2.344-7.475-6.429c0-3.645,2.983-6.049,7.333-6.049
	c4.231,0,6.726,2.084,8.026,4.602l-2.637,1.826c-1.273-2.142-3.1-3.126-5.422-3.126c-2.377,0-3.734,0.866-3.734,2.428
	c0,1.999,1.533,2.669,5.041,3.709c4.06,1.187,7.305,2.521,7.305,6.541c0,3.503-2.986,6.247-8.088,6.247
	C219.795,102.375,216.775,100.184,215.416,96.94"/>
<path fill="#FFFFFF" d="M234.51,94.303c0-5.873,3.971-7.989,7.391-7.989c3.826,0,5.449,2.116,6.377,4.489l-3.014,1.068
	c-0.608-1.732-1.709-2.575-3.42-2.575c-2.027,0-3.74,1.331-3.74,5.007c0,3.269,1.334,5.069,3.682,5.069
	c1.623,0,2.754-0.494,3.594-2.667l2.957,1.072c-1.1,2.462-2.928,4.518-6.64,4.518C238.137,102.295,234.51,99.918,234.51,94.303"/>
<path fill="#FFFFFF" d="M250.812,80.553h3.594v8.135c0.986-1.041,2.84-2.374,5.623-2.374c2.695,0,4.431,1.592,4.431,4.632v11.035
	h-3.589V91.844c0-1.705-0.725-2.489-2.293-2.489c-1.564,0-2.868,0.81-4.172,2.001v10.625h-3.594V80.553z"/>
<path fill="#FFFFFF" d="M267.205,94.303c0-5.676,3.74-7.989,7.508-7.989c3.738,0,7.508,2.313,7.508,7.989
	c0,5.615-3.77,7.992-7.508,7.992C270.973,102.295,267.205,99.918,267.205,94.303 M278.627,94.303c0-2.864-1.221-4.948-3.914-4.948
	c-2.584,0-3.916,1.851-3.916,4.948c0,2.926,1.189,5.006,3.916,5.006C277.289,99.309,278.627,97.456,278.627,94.303"/>
<path fill="#FFFFFF" d="M284.281,94.303c0-5.676,3.738-7.989,7.508-7.989c3.736,0,7.508,2.313,7.508,7.989
	c0,5.615-3.771,7.992-7.508,7.992C288.049,102.295,284.281,99.918,284.281,94.303 M295.699,94.303c0-2.864-1.215-4.948-3.91-4.948
	c-2.582,0-3.914,1.851-3.914,4.948c0,2.926,1.188,5.006,3.914,5.006C294.367,99.309,295.699,97.456,295.699,94.303"/>
<rect x="302.229" y="80.554" fill="#FFFFFF" width="3.594" height="21.428"/>
<path fill="#FFFFFF" d="M315.859,94.303c0-5.676,3.742-7.989,7.508-7.989c3.74,0,7.508,2.313,7.508,7.989
	c0,5.615-3.768,7.992-7.508,7.992S315.859,99.918,315.859,94.303 M327.281,94.303c0-2.864-1.219-4.948-3.914-4.948
	c-2.584,0-3.914,1.851-3.914,4.948c0,2.926,1.189,5.006,3.914,5.006C325.947,99.309,327.281,97.456,327.281,94.303"/>
<path fill="#FFFFFF" d="M334.867,89.439h-2.664v-2.83h2.664v-1.568c0-2.581,1.07-4.573,4.984-4.573c0.666,0,1.855,0.117,2.117,0.146
	v2.745c-0.234-0.059-0.812-0.109-1.219-0.109c-1.273,0-2.32,0.345-2.32,1.994v1.365h3.363v2.83h-3.363v12.541h-3.562V89.439z"/>
<path fill="#FFFFFF" d="M351.574,80.553h6.115c6.725,0,11.13,3.129,11.13,10.625c0,7.641-4.495,10.803-11.13,10.803h-6.115V80.553z
	 M358.008,98.73c4.896,0,7.191-2.139,7.191-7.553c0-5.15-2.32-7.268-7.252-7.268h-2.748v14.82H358.008z"/>
<path fill="#FFFFFF" d="M371.12,94.303c0-5.844,4.142-7.989,7.336-7.989c3.448,0,6.75,2.054,6.75,8.312v0.838h-10.519
	c0.142,2.775,1.853,3.992,4.113,3.992c2,0,3.16-0.66,4.316-1.793l1.887,1.854c-1.594,1.762-3.707,2.779-6.462,2.779
	C374.688,102.295,371.12,99.947,371.12,94.303 M381.934,92.799c-0.205-2.344-1.365-3.592-3.508-3.592
	c-1.738,0-3.336,0.986-3.682,3.592H381.934z"/>
<path fill="#FFFFFF" d="M387.023,99.862l1.938-2.173c1.159,0.985,2.87,1.826,4.845,1.826c1.912,0,3.068-0.495,3.068-1.769
	c0-1.247-1.562-1.618-3.416-2.054c-2.637-0.603-5.799-1.301-5.799-4.863c0-2.688,2.32-4.517,5.717-4.517
	c2.919,0,4.719,0.843,6.314,2.169l-1.715,2.32c-1.129-0.927-2.953-1.678-4.344-1.678c-1.971,0-2.609,0.691-2.609,1.561
	c0,1.247,1.533,1.619,3.361,2.03c2.637,0.576,5.855,1.239,5.855,4.831c0,3.245-2.928,4.748-6.434,4.748
	C390.965,102.295,388.412,101.277,387.023,99.862"/>
<path fill="#FFFFFF" d="M403.012,80.845h3.65v3.097h-3.65V80.845z M403.043,86.609h3.588v15.371h-3.588V86.609z"/>
<path fill="#FFFFFF" d="M408.742,104.176c0-1.529,0.959-2.637,2.523-3.243c-0.785-0.405-1.188-1.04-1.188-1.884
	c0-1.154,0.924-2.108,2.084-2.808c-1.562-0.979-2.432-2.543-2.432-4.427c0-3.158,2.432-5.501,6.457-5.501
	c2.119,0,3.687,0.695,4.728,1.623c0.987-0.78,2.55-1.39,3.827-1.507v2.895c-0.695,0-1.68,0.09-2.695,0.406
	c0.348,0.552,0.551,1.271,0.551,2.084c0,3.214-2.408,5.47-6.41,5.47c-0.863,0-1.385-0.116-2.141-0.316
	c-0.464,0.261-0.783,0.579-0.783,0.981c0,0.609,0.403,0.814,1.766,0.929l2.729,0.171c4.549,0.291,6.346,1.506,6.346,4.199
	c0,3.156-3.188,4.689-7.938,4.689C410.857,107.938,408.742,106.404,408.742,104.176 M420.941,103.567c0-1.1-0.776-1.509-3.91-1.707
	l-2.662-0.177c-0.322,0-0.611-0.025-0.93-0.084c-1.014,0.459-1.426,1.188-1.426,1.968c0,1.36,1.569,1.796,4.699,1.796
	C419.324,105.363,420.941,104.666,420.941,103.567 M419.354,91.933c0-1.915-1.104-2.955-3.135-2.955
	c-1.969,0-3.131,1.067-3.131,2.955c0,1.88,1.191,2.891,3.162,2.891C418.189,94.823,419.354,93.812,419.354,91.933"/>
<path fill="#FFFFFF" d="M427.01,86.609h3.598v2.078c0.982-1.041,2.836-2.374,5.619-2.374c2.693,0,4.436,1.592,4.436,4.632v11.035
	h-3.594V91.844c0-1.705-0.727-2.489-2.291-2.489s-2.87,0.81-4.17,2.001v10.625h-3.598V86.609z"/>
<path fill="#F9F9FA" d="M36.616,34.104c2.073-15.691,4.114-31.208,4.227-32.09c1.404,1.074,25.207,19.342,25.689,19.709
	c-0.041,0.299-2.118,16.097-4.226,32.09L36.616,34.104z M57.925,87.077c-1.287-0.983-21.6-16.571-25.148-19.298l29.289-12.137
	C60.029,71.108,58.044,86.203,57.925,87.077 M36.458,35.352c3.534,2.711,23.865,18.308,25.153,19.297
	c-1.506,0.63-25.371,10.513-29.291,12.143C32.701,63.868,34.564,49.715,36.458,35.352 M31.241,66.611
	C27.707,63.898,7.37,48.303,6.08,47.308c1.513-0.624,25.376-10.504,29.299-12.14C34.993,38.098,33.132,52.248,31.241,66.611
	 M26.853,99.949c-1.401-1.074-25.212-19.342-25.69-19.707c0.041-0.309,2.12-16.099,4.225-32.092l25.691,19.712
	C29.011,83.549,26.971,99.066,26.853,99.949 M9.769,14.879c1.293,0.999,21.609,16.581,25.156,19.307L5.632,46.314
	C7.668,30.855,9.655,15.761,9.769,14.879 M40.011,0l-0.123,0.934l-4.266,32.412L8.937,12.869l-0.122,0.937L0,80.72l27.684,21.245
	l4.39-33.35l26.688,20.473l8.933-67.844L40.011,0z"/>
</svg>
