<svg xmlns="http://www.w3.org/2000/svg" width="435.074" height="198.653"><g fill="#8C5A95"><path d="M10.387 65.892h-10.387v-1.427h22.203v1.427h-10.289v33.672h-1.526v-33.672zM27.313 64.465h1.526v16.098h17.624v-16.098h1.526v35.1h-1.526v-17.575h-17.624v17.575h-1.526v-35.1zM54.857 64.465h17.328v1.427h-15.802v14.571h12.603v1.379h-12.603v16.294h15.802v1.428h-17.328v-35.099zM84.887 64.465h1.576l9.304 33.229h.049l9.452-33.229h1.526l-10.19 35.198h-1.625l-10.092-35.198zM112.043 64.465h17.328v1.427h-15.802v14.571h12.603v1.379h-12.603v16.294h15.802v1.428h-17.328v-35.099zM135.155 64.465h9.157c6.301 0 9.698 3.839 9.698 9.648 0 5.316-2.757 9.304-8.418 9.747l9.55 15.704h-1.821l-9.354-15.507h-7.286v15.507h-1.526v-35.099zm8.468 18.264c5.908 0 8.812-2.856 8.812-8.467 0-4.825-2.363-8.418-8.369-8.418h-7.384v16.886h6.941zM159.775 90.211v-15.704c0-6.596 4.233-10.633 10.683-10.633 6.153 0 10.633 3.347 10.633 9.796v15.753c0 6.695-4.283 10.683-10.683 10.683-6.153 0-10.633-3.298-10.633-9.895zm19.741-.492v-15.95c0-5.169-3.397-8.369-9.255-8.369-5.759 0-8.91 3.347-8.91 9.206v15.26c0 5.268 3.298 8.713 9.107 8.713 5.759.001 9.058-3.593 9.058-8.86zM187.388 64.465h1.723l17.23 32.047h.098v-32.047h1.33v35.1h-1.477l-17.427-32.786h-.099v32.786h-1.378v-35.1zM214.637 64.465h1.526v35.1h-1.526v-35.1zM222.419 90.408v-16.541c0-5.759 3.988-9.993 10.585-9.993 6.302 0 9.647 3.84 9.647 8.172v3.15h-1.428v-2.412c0-4.135-2.51-7.532-8.417-7.532-5.858 0-8.861 3.791-8.861 8.812v15.753c0 6.351 3.79 8.911 9.059 8.911 5.513 0 8.22-3.052 8.22-7.138v-2.806h1.428v3.003c0 4.775-3.396 8.32-9.647 8.32-6.401-.001-10.586-3.299-10.586-9.699zM257.259 64.317h1.92l10.436 35.248h-1.623l-3.742-12.75h-12.307l-3.791 12.75h-1.525l10.632-35.248zm6.598 21.168l-5.711-19.347h-.05l-5.809 19.347h11.57zM9.452 113.695h9.156c6.301 0 9.698 3.84 9.698 9.648 0 5.316-2.757 9.304-8.418 9.747l9.55 15.704h-1.821l-9.354-15.508h-7.286v15.508h-1.525v-35.099zm8.467 18.263c5.907 0 8.812-2.855 8.812-8.468 0-4.824-2.363-8.417-8.369-8.417h-7.384v16.885h6.941zM34.717 139.588v-25.894h1.526v25.303c0 6.843 4.529 8.96 8.91 8.96 5.563 0 8.96-3.446 8.763-8.664v-25.599h1.428v25.746c.098 6.153-4.086 9.944-10.338 9.944-4.923.001-10.289-2.608-10.289-9.796zM62.364 113.695h10.436c5.76 0 9.748 3.002 9.748 9.205v16.148c0 6.201-3.938 9.746-9.796 9.746h-10.388v-35.099zm10.092 33.672c6.055 0 8.516-3.545 8.516-8.123v-15.998c0-4.48-2.51-8.123-8.369-8.123h-8.713v32.244h8.566zM88.569 139.637v-16.294c0-5.71 4.086-10.238 10.634-10.238 6.35 0 9.895 3.938 9.895 8.27v2.756h-1.477v-2.313c0-4.135-3.052-7.235-8.615-7.235-5.858 0-8.91 4.085-8.91 9.057v15.754c0 5.415 3.397 8.517 9.107 8.517 6.498 0 8.615-3.741 8.615-7.828v-7.334h-8.369v-1.478h9.895v9.255c0 4.774-3.495 8.812-10.141 8.812-6.351-.003-10.634-3.3-10.634-9.701zM115.986 113.695h17.328v1.428h-15.802v14.571h12.603v1.378h-12.603v16.295h15.802v1.428h-17.328v-35.1zM148.378 139.637v-16.294c0-5.71 4.086-10.238 10.633-10.238 6.351 0 9.895 3.938 9.895 8.27v2.756h-1.477v-2.313c0-4.135-3.052-7.235-8.615-7.235-5.858 0-8.91 4.085-8.91 9.057v15.754c0 5.415 3.397 8.517 9.107 8.517 6.498 0 8.615-3.741 8.615-7.828v-7.334h-8.369v-1.478h9.895v9.255c0 4.774-3.495 8.812-10.141 8.812-6.35-.003-10.633-3.3-10.633-9.701zM175.646 113.695h9.157c6.301 0 9.698 3.84 9.698 9.648 0 5.316-2.757 9.304-8.418 9.747l9.55 15.704h-1.821l-9.354-15.508h-7.286v15.508h-1.526v-35.099zm8.468 18.263c5.908 0 8.812-2.855 8.812-8.468 0-4.824-2.363-8.417-8.369-8.417h-7.384v16.885h6.941zM201.453 113.695h17.328v1.428h-15.802v14.571h12.603v1.378h-12.603v16.295h15.802v1.428h-17.328v-35.1zM224.714 113.695h17.328v1.428h-15.802v14.571h12.603v1.378h-12.603v16.295h15.803v1.428h-17.328v-35.1zM247.974 113.695h1.723l17.23 32.047h.099v-32.047h1.329v35.1h-1.477l-17.428-32.786h-.098v32.786h-1.379v-35.1z"/></g><g fill="#231F20"><path d="M284.791 113.732h10.043c6.549 0 9.747 4.528 9.747 10.142 0 6.351-3.79 10.682-10.632 10.682h-6.252v14.277h-2.906v-35.101zm8.516 18.413c5.316 0 8.37-2.808 8.37-8.173 0-4.381-2.412-7.778-7.188-7.778h-6.792v15.951h5.61zM310.35 113.732h10.092c6.599 0 10.092 3.938 10.092 9.847 0 5.218-2.608 9.155-7.975 9.795l9.058 15.459h-3.247l-8.665-15.015h-6.448v15.015h-2.906v-35.101zm9.306 17.771c5.316 0 7.975-2.56 7.975-7.729 0-4.432-2.216-7.63-7.631-7.63h-6.743v15.358h6.399zM337.109 113.732h2.903v35.101h-2.903v-35.101zM345.491 146.863l15.853-30.768h-15.41v-2.412h18.757v2.018l-15.802 30.621h15.604v2.511h-19.002v-1.97zM370.25 113.732h18.41v2.512h-15.507v13.045h12.357v2.51h-12.357v14.475h15.507v2.56h-18.41v-35.102zM404.021 113.732h2.903v35.101h-2.903v-35.101zM413.462 113.732h3.003l15.95 29.291h.099v-29.291h2.56v35.101h-2.56l-16.394-30.374h-.098v30.374h-2.561v-35.101zM149.542 188.462v-25.5h2.904v24.96c0 6.252 4.086 8.22 8.123 8.22 5.021 0 8.172-3.149 7.975-7.975v-25.205h2.756v25.354c.1 6.497-4.479 10.337-10.928 10.337-5.514 0-10.83-2.806-10.83-10.191zM178.021 162.962h10.092c6.597 0 10.092 3.938 10.092 9.847 0 5.218-2.609 9.155-7.974 9.795l9.057 15.459h-3.249l-8.665-15.015h-6.449v15.015h-2.905v-35.101zm9.304 17.772c5.316 0 7.976-2.56 7.976-7.729 0-4.432-2.216-7.63-7.63-7.63h-6.745v15.358h6.399zM205.023 162.962h10.83c5.367 0 8.713 3.15 8.713 8.469 0 4.184-2.511 7.876-6.351 8.465v.1c4.629.689 7.237 4.332 7.237 8.516 0 6.597-4.431 9.552-9.354 9.552h-11.077v-35.102zm9.305 15.852c3.692 0 7.336-2.066 7.336-6.99 0-4.578-2.905-6.498-6.499-6.498h-7.286v13.488h6.449zm1.083 16.787c4.284 0 7.04-2.264 7.04-7.384 0-4.923-3.84-6.942-7.828-6.942h-6.744v14.326h7.532zM239.663 162.816h3.495l10.437 35.247h-2.955l-3.396-11.669h-11.963l-3.445 11.669h-2.758l10.585-35.247zm6.891 21.217l-5.268-18.117h-.049l-5.365 18.117h10.682zM258.956 162.962h3.002l15.95 29.291h.099v-29.291h2.56v35.101h-2.56l-16.394-30.374h-.098v30.374h-2.56v-35.101zM297.256 162.962h11.027c6.005 0 10.289 3.052 10.289 9.451v15.607c0 6.498-4.235 10.042-10.338 10.042h-10.979v-35.1zm10.583 32.59c5.516 0 7.777-3.396 7.777-7.434v-15.261c0-4.136-2.36-7.434-7.679-7.434h-7.778v30.128h7.68zM325.046 162.962h18.41v2.512h-15.506v13.045h12.356v2.51h-12.356v14.475h15.506v2.56h-18.41v-35.102zM348.282 194.371l1.921-2.117c2.658 2.461 4.972 3.741 9.106 3.741 4.383 0 6.991-2.854 6.991-6.547 0-4.184-2.955-5.908-5.81-7.335l-4.38-2.117c-4.037-1.969-6.399-4.774-6.399-8.663 0-5.122 3.839-9.011 9.696-9.011 3.84 0 7.139 1.23 9.306 3.692l-1.921 1.921c-1.969-1.725-4.037-3.103-7.68-3.103-3.545 0-6.498 2.068-6.498 6.056 0 3.004 1.82 4.923 5.268 6.596l3.986 1.922c4.432 2.215 7.385 5.07 7.385 9.698 0 5.562-4.184 9.549-10.338 9.549-4.578 0-8.022-1.526-10.633-4.282zM375.595 162.962h2.904v35.101h-2.904v-35.101zM385.166 188.511v-15.653c0-6.104 4.528-10.536 11.174-10.536 6.352 0 10.438 3.84 10.438 8.664v2.609h-2.707v-2.115c0-3.84-2.857-6.647-7.829-6.647-5.316 0-8.171 3.644-8.171 8.222v15.212c0 4.972 3.051 7.876 8.32 7.876 5.808 0 7.777-3.297 7.777-7.088v-6.549h-7.679v-2.412h10.484v9.404c0 5.217-3.987 9.155-10.634 9.155-6.498 0-11.173-3.396-11.173-10.142zM413.462 162.962h3.003l15.95 29.291h.099v-29.291h2.56v35.101h-2.56l-16.394-30.374h-.098v30.374h-2.561v-35.101z"/></g><polygon fill="#231F20" points="434.692,99.474 432.778,99.474 432.778,1.915 259.161,1.915 259.161,50.342 257.246,50.342 257.246,0 434.692,0"/></svg>