<?xml version="1.0" encoding="utf-8"?>
<!-- Generator: Adobe Illustrator 15.1.0, SVG Export Plug-In . SVG Version: 6.00 Build 0)  -->
<!DOCTYPE svg PUBLIC "-//W3C//DTD SVG 1.1//EN" "http://www.w3.org/Graphics/SVG/1.1/DTD/svg11.dtd">
<svg version="1.1" id="Layer_1" xmlns="http://www.w3.org/2000/svg" xmlns:xlink="http://www.w3.org/1999/xlink" x="0px" y="0px"
	 width="435.074px" height="198.653px" viewBox="0 0 435.074 198.653" enable-background="new 0 0 435.074 198.653"
	 xml:space="preserve">
<g>
	<g>
		<path fill="#8C5A95" d="M10.387,65.892H0v-1.427h22.203v1.427H11.914v33.672h-1.526V65.892z"/>
		<path fill="#8C5A95" d="M27.313,64.465h1.526v16.098h17.624V64.465h1.526v35.1h-1.526V81.99H28.839v17.575h-1.526V64.465z"/>
		<path fill="#8C5A95" d="M54.857,64.465h17.328v1.427H56.383v14.571h12.603v1.379H56.383v16.294h15.802v1.428H54.857V64.465z"/>
		<path fill="#8C5A95" d="M84.887,64.465h1.576l9.304,33.229h0.049l9.452-33.229h1.526l-10.19,35.198h-1.625L84.887,64.465z"/>
		<path fill="#8C5A95" d="M112.043,64.465h17.328v1.427h-15.802v14.571h12.603v1.379h-12.603v16.294h15.802v1.428h-17.328V64.465z"
			/>
		<path fill="#8C5A95" d="M135.155,64.465h9.157c6.301,0,9.698,3.839,9.698,9.648c0,5.316-2.757,9.304-8.418,9.747l9.55,15.704
			h-1.821l-9.354-15.507h-7.286v15.507h-1.526V64.465z M143.623,82.729c5.908,0,8.812-2.856,8.812-8.467
			c0-4.825-2.363-8.418-8.369-8.418h-7.384v16.886H143.623z"/>
		<path fill="#8C5A95" d="M159.775,90.211V74.507c0-6.596,4.233-10.633,10.683-10.633c6.153,0,10.633,3.347,10.633,9.796v15.753
			c0,6.695-4.283,10.683-10.683,10.683C164.255,100.106,159.775,96.808,159.775,90.211z M179.516,89.719v-15.95
			c0-5.169-3.397-8.369-9.255-8.369c-5.759,0-8.91,3.347-8.91,9.206v15.26c0,5.268,3.298,8.713,9.107,8.713
			C176.217,98.58,179.516,94.986,179.516,89.719z"/>
		<path fill="#8C5A95" d="M187.388,64.465h1.723l17.23,32.047h0.098V64.465h1.33v35.1h-1.477l-17.427-32.786h-0.099v32.786h-1.378
			V64.465z"/>
		<path fill="#8C5A95" d="M214.637,64.465h1.526v35.1h-1.526V64.465z"/>
		<path fill="#8C5A95" d="M222.419,90.408V73.867c0-5.759,3.988-9.993,10.585-9.993c6.302,0,9.647,3.84,9.647,8.172v3.15h-1.428
			v-2.412c0-4.135-2.51-7.532-8.417-7.532c-5.858,0-8.861,3.791-8.861,8.812v15.753c0,6.351,3.79,8.911,9.059,8.911
			c5.513,0,8.22-3.052,8.22-7.138v-2.806h1.428v3.003c0,4.775-3.396,8.32-9.647,8.32C226.604,100.106,222.419,96.808,222.419,90.408
			z"/>
		<path fill="#8C5A95" d="M257.259,64.317h1.92l10.436,35.248h-1.623l-3.742-12.75h-12.307l-3.791,12.75h-1.525L257.259,64.317z
			 M263.857,85.485l-5.711-19.347h-0.05l-5.809,19.347H263.857z"/>
		<path fill="#8C5A95" d="M9.452,113.695h9.156c6.301,0,9.698,3.84,9.698,9.648c0,5.316-2.757,9.304-8.418,9.747l9.55,15.704h-1.821
			l-9.354-15.508h-7.286v15.508H9.452V113.695z M17.919,131.958c5.907,0,8.812-2.855,8.812-8.468c0-4.824-2.363-8.417-8.369-8.417
			h-7.384v16.885H17.919z"/>
		<path fill="#8C5A95" d="M34.717,139.588v-25.894h1.526v25.303c0,6.843,4.529,8.96,8.91,8.96c5.563,0,8.96-3.446,8.763-8.664
			v-25.599h1.428v25.746c0.098,6.153-4.086,9.944-10.338,9.944C40.083,149.385,34.717,146.776,34.717,139.588z"/>
		<path fill="#8C5A95" d="M62.364,113.695H72.8c5.76,0,9.748,3.002,9.748,9.205v16.148c0,6.201-3.938,9.746-9.796,9.746H62.364
			V113.695z M72.456,147.367c6.055,0,8.516-3.545,8.516-8.123v-15.998c0-4.48-2.51-8.123-8.369-8.123H63.89v32.244H72.456z"/>
		<path fill="#8C5A95" d="M88.569,139.637v-16.294c0-5.71,4.086-10.238,10.634-10.238c6.35,0,9.895,3.938,9.895,8.27v2.756h-1.477
			v-2.313c0-4.135-3.052-7.235-8.615-7.235c-5.858,0-8.91,4.085-8.91,9.057v15.754c0,5.415,3.397,8.517,9.107,8.517
			c6.498,0,8.615-3.741,8.615-7.828v-7.334h-8.369v-1.478h9.895v9.255c0,4.774-3.495,8.812-10.141,8.812
			C92.852,149.335,88.569,146.038,88.569,139.637z"/>
		<path fill="#8C5A95" d="M115.986,113.695h17.328v1.428h-15.802v14.571h12.603v1.378h-12.603v16.295h15.802v1.428h-17.328V113.695z
			"/>
		<path fill="#8C5A95" d="M148.378,139.637v-16.294c0-5.71,4.086-10.238,10.633-10.238c6.351,0,9.895,3.938,9.895,8.27v2.756h-1.477
			v-2.313c0-4.135-3.052-7.235-8.615-7.235c-5.858,0-8.91,4.085-8.91,9.057v15.754c0,5.415,3.397,8.517,9.107,8.517
			c6.498,0,8.615-3.741,8.615-7.828v-7.334h-8.369v-1.478h9.895v9.255c0,4.774-3.495,8.812-10.141,8.812
			C152.661,149.335,148.378,146.038,148.378,139.637z"/>
		<path fill="#8C5A95" d="M175.646,113.695h9.157c6.301,0,9.698,3.84,9.698,9.648c0,5.316-2.757,9.304-8.418,9.747l9.55,15.704
			h-1.821l-9.354-15.508h-7.286v15.508h-1.526V113.695z M184.114,131.958c5.908,0,8.812-2.855,8.812-8.468
			c0-4.824-2.363-8.417-8.369-8.417h-7.384v16.885H184.114z"/>
		<path fill="#8C5A95" d="M201.453,113.695h17.328v1.428h-15.802v14.571h12.603v1.378h-12.603v16.295h15.802v1.428h-17.328V113.695z
			"/>
		<path fill="#8C5A95" d="M224.714,113.695h17.328v1.428H226.24v14.571h12.603v1.378H226.24v16.295h15.803v1.428h-17.328V113.695z"
			/>
		<path fill="#8C5A95" d="M247.974,113.695h1.723l17.23,32.047h0.099v-32.047h1.329v35.1h-1.477l-17.428-32.786h-0.098v32.786
			h-1.379V113.695z"/>
	</g>
	<g>
		<path fill="#231F20" d="M284.791,113.732h10.043c6.549,0,9.747,4.528,9.747,10.142c0,6.351-3.79,10.682-10.632,10.682h-6.252
			v14.277h-2.906V113.732z M293.307,132.145c5.316,0,8.37-2.808,8.37-8.173c0-4.381-2.412-7.778-7.188-7.778h-6.792v15.951H293.307z
			"/>
		<path fill="#231F20" d="M310.35,113.732h10.092c6.599,0,10.092,3.938,10.092,9.847c0,5.218-2.608,9.155-7.975,9.795l9.058,15.459
			h-3.247l-8.665-15.015h-6.448v15.015h-2.906V113.732z M319.656,131.503c5.316,0,7.975-2.56,7.975-7.729
			c0-4.432-2.216-7.63-7.631-7.63h-6.743v15.358H319.656z"/>
		<path fill="#231F20" d="M337.109,113.732h2.903v35.101h-2.903V113.732z"/>
		<path fill="#231F20" d="M345.491,146.863l15.853-30.768h-15.41v-2.412h18.757v2.018l-15.802,30.621h15.604v2.511h-19.002V146.863z
			"/>
		<path fill="#231F20" d="M370.25,113.732h18.41v2.512h-15.507v13.045h12.357v2.51h-12.357v14.475h15.507v2.56h-18.41V113.732z"/>
		<path fill="#231F20" d="M404.021,113.732h2.903v35.101h-2.903V113.732z"/>
		<path fill="#231F20" d="M413.462,113.732h3.003l15.95,29.291h0.099v-29.291h2.56v35.101h-2.56l-16.394-30.374h-0.098v30.374
			h-2.561V113.732z"/>
		<path fill="#231F20" d="M149.542,188.462v-25.5h2.904v24.96c0,6.252,4.086,8.22,8.123,8.22c5.021,0,8.172-3.149,7.975-7.975
			v-25.205h2.756v25.354c0.1,6.497-4.479,10.337-10.928,10.337C154.858,198.653,149.542,195.847,149.542,188.462z"/>
		<path fill="#231F20" d="M178.021,162.962h10.092c6.597,0,10.092,3.938,10.092,9.847c0,5.218-2.609,9.155-7.974,9.795l9.057,15.459
			h-3.249l-8.665-15.015h-6.449v15.015h-2.905V162.962z M187.325,180.734c5.316,0,7.976-2.56,7.976-7.729
			c0-4.432-2.216-7.63-7.63-7.63h-6.745v15.358H187.325z"/>
		<path fill="#231F20" d="M205.023,162.962h10.83c5.367,0,8.713,3.15,8.713,8.469c0,4.184-2.511,7.876-6.351,8.465v0.1
			c4.629,0.689,7.237,4.332,7.237,8.516c0,6.597-4.431,9.552-9.354,9.552h-11.077V162.962z M214.328,178.814
			c3.692,0,7.336-2.066,7.336-6.99c0-4.578-2.905-6.498-6.499-6.498h-7.286v13.488H214.328z M215.411,195.601
			c4.284,0,7.04-2.264,7.04-7.384c0-4.923-3.84-6.942-7.828-6.942h-6.744v14.326H215.411z"/>
		<path fill="#231F20" d="M239.663,162.816h3.495l10.437,35.247h-2.955l-3.396-11.669h-11.963l-3.445,11.669h-2.758L239.663,162.816
			z M246.554,184.033l-5.268-18.117h-0.049l-5.365,18.117H246.554z"/>
		<path fill="#231F20" d="M258.956,162.962h3.002l15.95,29.291h0.099v-29.291h2.56v35.101h-2.56l-16.394-30.374h-0.098v30.374h-2.56
			V162.962z"/>
		<path fill="#231F20" d="M297.256,162.962h11.027c6.005,0,10.289,3.052,10.289,9.451v15.607c0,6.498-4.235,10.042-10.338,10.042
			h-10.979V162.962z M307.839,195.552c5.516,0,7.777-3.396,7.777-7.434v-15.261c0-4.136-2.36-7.434-7.679-7.434h-7.778v30.128
			H307.839z"/>
		<path fill="#231F20" d="M325.046,162.962h18.41v2.512h-15.506v13.045h12.356v2.51h-12.356v14.475h15.506v2.56h-18.41V162.962z"/>
		<path fill="#231F20" d="M348.282,194.371l1.921-2.117c2.658,2.461,4.972,3.741,9.106,3.741c4.383,0,6.991-2.854,6.991-6.547
			c0-4.184-2.955-5.908-5.81-7.335l-4.38-2.117c-4.037-1.969-6.399-4.774-6.399-8.663c0-5.122,3.839-9.011,9.696-9.011
			c3.84,0,7.139,1.23,9.306,3.692l-1.921,1.921c-1.969-1.725-4.037-3.103-7.68-3.103c-3.545,0-6.498,2.068-6.498,6.056
			c0,3.004,1.82,4.923,5.268,6.596l3.986,1.922c4.432,2.215,7.385,5.07,7.385,9.698c0,5.562-4.184,9.549-10.338,9.549
			C354.337,198.653,350.893,197.127,348.282,194.371z"/>
		<path fill="#231F20" d="M375.595,162.962h2.904v35.101h-2.904V162.962z"/>
		<path fill="#231F20" d="M385.166,188.511v-15.653c0-6.104,4.528-10.536,11.174-10.536c6.352,0,10.438,3.84,10.438,8.664v2.609
			h-2.707v-2.115c0-3.84-2.857-6.647-7.829-6.647c-5.316,0-8.171,3.644-8.171,8.222v15.212c0,4.972,3.051,7.876,8.32,7.876
			c5.808,0,7.777-3.297,7.777-7.088v-6.549h-7.679v-2.412h10.484v9.404c0,5.217-3.987,9.155-10.634,9.155
			C389.841,198.653,385.166,195.257,385.166,188.511z"/>
		<path fill="#231F20" d="M413.462,162.962h3.003l15.95,29.291h0.099v-29.291h2.56v35.101h-2.56l-16.394-30.374h-0.098v30.374
			h-2.561V162.962z"/>
	</g>
	<polygon fill="#231F20" points="434.692,99.474 432.778,99.474 432.778,1.915 259.161,1.915 259.161,50.342 257.246,50.342 
		257.246,0 434.692,0 	"/>
</g>
</svg>
