<?xml version="1.0" encoding="utf-8"?>
<!-- Generator: Adobe Illustrator 15.1.0, SVG Export Plug-In . SVG Version: 6.00 Build 0)  -->
<!DOCTYPE svg PUBLIC "-//W3C//DTD SVG 1.1//EN" "http://www.w3.org/Graphics/SVG/1.1/DTD/svg11.dtd">
<svg version="1.1" id="map" xmlns="http://www.w3.org/2000/svg" xmlns:xlink="http://www.w3.org/1999/xlink" x="0px" y="0px"
	 width="566px" height="428px" viewBox="0 0 566 428" enable-background="new 0 0 566 428" xml:space="preserve">

<path id="area-mask" fill="#000" d="M566,428H0V0h566V428z M208.076,221.637c0.127,12.408-12.955,20.742-20.786,29.15
    c-6.017,6.462-12.146,9.363-3.452,15.633c5.27,3.801,10.611,11.538,19.068,8.279c6.454-2.489,5.008-14.254,11.295-15.9
    c9.209-2.41,8.994,10.444,11.547,15.643c2.111,4.301,4.377,7.145,9.285,5.944c6.278-1.538,8.194-12.456,9.193-17.72
    c0.574-3.028,2.225-12.141,6.934-11.527c4.057,0.531,3.458,33.002,14.744,17.783c1.998-2.694,2.687-9.133,7.953-8.781
    c8.316,0.553-3.281,33.1,0.49,40.661c6.646,13.327,14.854-8.878,17.189-13.613c1.774-3.597,3.83-10.546,6.703-13.128
    c5.135-4.615,7.995-1.395,8.145,4.847c0.16,6.771-5.74,27.89,6.736,17.333c3.502-2.963,6.137-9.807,10.753-10.471
    c8.961-1.289,4.173,6.88,3.751,11.258c-1.75,18.166,19.617-2.855,24.912-1.755c3.29,6.629,1.912,12.38,3.39,19.737
    c0.683,3.398-0.438,11.842,1.079,13.3c5.785,5.56,12.927-5.006,13.111,8.737c0.084,6.273,0.172,9.015,6.27,11.267
    c9.234,3.411,21.638,2.94,31.256,4.378c4.795,0.717,9.939,0.375,15.037,0.576c7.119,0.282,8.535-0.444,9.328,6.927
    c0.229,2.137,0.852,4.553,0.891,6.797c3.399,0.63,4.127-2.556,6.782-3.55c2.187-0.818,5.517-1.163,8.006-0.796
    c5.229,0.771,9.224,5.109,15.019,5.642c6.051,0.557,8.74-0.873,12.508-5.575c2.002-2.5,1.129-3.84,4.491-5.507
    c9.17-4.545,16.757-1.072,20.479,7.815c2.708,6.463,6.025,13.224-3.08,14.675c5.717,3.337,11.844,2.717,11.83-5.14
    c-0.006-3.154-2.055-6.3-1.908-9.2c0.183-3.602,3.443-6.438,4.688-9.711c3.593-9.451-1.996-19.317,7.023-25.913
    c5.104-3.733,12.031-4.967,15.074-11.036c4.47-8.921,0.425-18.877,1.235-28.185c0.821-9.438,8.448-13.115,13.931-19.838
    c5.363-6.577,8.588-10.988,8.795-19.227c0.248-9.903,0.871-16.345-2.932-25.368c-3.053-7.244-6.047-14.52-9.395-21.635
    c-3.11-6.607-8.266-12.414-11.052-18.999c-1.373-3.243-1.767-9.759-4.783-11.577c-3.918-2.363-7.569,1.554-10.833-0.461
    c-8.734-5.418-2.982-15.144,0.938-20.627c4.088-5.718,0.789-4.421-2.842-8.89c-3.656-4.5-1.428-5.782-7.953-6.907
    c-4.357-0.751-6.467,0.306-10.479-3.062c-2.752-2.31-7.507-27.591-15.035-13.49c-2.537,4.75,1.752,9.002,0.732,13.861
    c-0.984,4.691-6.262,8.138-10.464,9.691c-10.335,3.82-22.089-0.32-32.774,1.236c-2.556,7.132,0.014,12.983-5.077,19.289
    c-4.343,5.379-13.702,9.109-20.663,9.373c-7.766,0.295-11.074-8.113-18.771-6.891c-9.175,1.457-4.429,12.502-12.035,15.5
    c-4.77,1.877-16.96-3.727-21.909-4.891c-16.518-3.885-37.299-0.062-51.229-11.552c-3.828-3.156-8.439-5.28-12.367-8.53
    c-4.722-3.907-4.946-6.561-10.152-2.806c-3.592,2.591-4.541,7.646-8.085,10.26c-4.979,3.675-9.265,1.124-14.555,0.689
    c-5.118-0.42-10.663,0.416-15.903,0.09c-4.635-0.288-14.177-3.956-18.472-1.417c-2.751,1.626-1.268,5.005-3.915,5.946
    c-2.023,0.721-3.942-1.574-6.298-1.929c-3.503,8.634-8.436,16.708-11.958,25.308C205.455,203.561,207.971,211.236,208.076,221.637z"
    />

<g id="areas">
	<g id="Santo_Domingo_Savio">
		<path opacity="0.9" fill="#FDC140" d="M508.934,374.553c-0.005-3.153-2.055-6.299-1.907-9.199
			c0.182-3.603,3.442-6.439,4.688-9.712c3.592-9.45-1.996-19.316,7.022-25.913c5.104-3.733,12.032-4.966,15.074-11.035
			c4.47-8.922,0.425-18.877,1.235-28.186c0.822-9.437,8.448-13.114,13.931-19.838c5.364-6.577,8.588-10.987,8.795-19.226
			c0.248-9.904,0.871-16.345-2.932-25.368c-3.053-7.245-6.046-14.521-9.395-21.635c-3.11-6.608-8.265-12.415-11.052-18.999
			c-1.373-3.244-1.767-9.759-4.783-11.578c-3.918-2.363-7.569,1.555-10.833-0.461c-8.734-5.417-2.982-15.144,0.938-20.626
			c4.089-5.719,0.79-4.422-2.841-8.89c-3.656-4.5-1.428-5.782-7.954-6.907c-4.357-0.751-6.467,0.306-10.479-3.062
			c-2.752-2.31-7.507-27.591-15.035-13.49c-2.537,4.75,1.752,9.003,0.732,13.861c-0.984,4.692-6.261,8.138-10.464,9.691
			c-4.029,1.489-8.275,1.769-12.59,1.647l0.011-0.359c1.646,0.778,0.956,1.499,1.693,3.453c7.507,0.23,6.126,5.221,5.203,11.042
			c-0.228,1.435,0.122,2.971-0.399,4.341c-0.721,1.893-1.24,1.434-2.34,2.926c-1.396,1.894-2.084,4.133-2.594,6.741
			c-1.218,6.231-4.392,10.599-6.327,16.676c-2.156,6.772,4.678,10.754,2.846,17.106c-1.45,5.024-5.297,9.481-6.483,14.438
			c-1.049,4.383-3.35,8.222-4.772,12.411c-1.043,3.073,0.731,4.528,1.436,7.256c0.775,3.005-0.285,6.396-0.69,9.446
			c-0.973,7.325-2.899,14.742-3.593,22.074c-0.189,2.001-0.267,4.391,0.335,6.158c0.656,1.926,3.015,4.796,3.292,6.75
			c0.67,4.722-5.351,15.698,0.308,18.941c3.782,2.168,8.045,2.815,11.416,5.652c2.181,1.835,1.775,4.049,2.617,6.451
			c0.692,1.976,2.128,3.143,2.976,4.96c1.536,3.293,0.623,4.752,3.066,7.677c2.794,3.347,3.087,3.636,6.996,4.257
			c4.141,0.658,6.28,2.928,8.588,6.319c2.557,3.758,6.044,6.6,9.129,9.881c1.176,1.251,2.813,2.69,3.636,4.212
			c0.812,1.505,4.632,6.96,5.669,8.509c1.254,1.875,3.133,4.631,4.391,7.502"/>
	</g>
	<g id="Andalucía">
		<path opacity="0.9" fill="#F2703A" d="M208.077,221.634c0.126,12.409-12.956,20.742-20.786,29.151
			c-6.018,6.461-12.146,9.363-3.453,15.633c5.27,3.801,10.612,11.537,19.068,8.279c6.455-2.489,5.008-14.255,11.296-15.901
			c9.208-2.41,8.994,10.444,11.546,15.643c2.112,4.302,4.377,7.146,9.286,5.945c6.278-1.539,8.194-12.457,9.192-17.721
			c0.575-3.028,2.226-12.141,6.935-11.526c4.057,0.53,3.458,33.002,14.744,17.782c1.998-2.694,2.686-9.132,7.953-8.781
			c8.317,0.554-3.28,33.1,0.49,40.662c6.646,13.326,14.854-8.879,17.192-13.618c2.49-5.05,4.158-12.691,8.751-16.144
			c1.301-0.979,3.267-0.423,4.725-0.972c1.895-0.715,2.959-2.159,4.568-3.304c1.756-1.248,2.935-1.551,5.084-1.991
			c4.802-0.984,7.207-0.569,10.144-5.269c2.783-4.453,9.541-15.501,10.639-16.393c1.054-0.856,1.395-2.505,2.801-2.761
			c1.306-0.238,1.969,0.824,2.987,1.018c10.718,2.033,3.893-9.217,10.766-11.764c2.644-0.979,6.432,1.756,7.493-1.732
			c0.925-3.038-2.252-6.129-1.748-9.249c0.876-5.427,6.653-10.883,9.45-15.552c4.134-6.902,6.248-15.049,11.107-21.229
			c0.307-0.391-16.115-4.193-17.667-4.418c-5.217-0.756-10.467-1.54-15.722-1.994c-11.68-1.01-24.221-1.564-33.702-9.384
			c-3.826-3.156-8.438-5.28-12.366-8.53c-4.722-3.907-4.946-6.561-10.152-2.806c-3.592,2.591-4.541,7.646-8.084,10.261
			c-4.98,3.674-9.266,1.124-14.555,0.689c-5.118-0.42-10.664,0.416-15.903,0.09c-4.635-0.288-14.177-3.956-18.472-1.417
			c-2.751,1.626-1.268,5.005-3.914,5.947c-2.024,0.72-3.943-1.575-6.299-1.929c-3.503,8.634-8.436,16.708-11.958,25.307
			C205.456,203.559,207.971,211.233,208.077,221.634z"/>
	</g>
	<g id="Popular">
		<path opacity="0.9" fill="#2DB46A" d="M497.104,379.694c1.662-0.265,4.348,2.128,6.527,1.902c2.055-0.213,3.554-1.095,4.528-2.949
			c2.456-4.676-2.549-11.95-5.058-15.699c-1.037-1.549-4.856-7.004-5.669-8.509c-0.822-1.521-2.46-2.961-3.636-4.212
			c-3.085-3.281-6.572-6.123-9.129-9.881c-2.308-3.392-4.447-5.661-8.588-6.319c-3.909-0.621-4.202-0.91-6.996-4.257
			c-2.443-2.925-1.53-4.384-3.066-7.677c-0.848-1.817-2.283-2.984-2.976-4.96c-0.842-2.402-0.437-4.616-2.617-6.451
			c-3.371-2.837-7.634-3.484-11.416-5.652c-5.658-3.243,0.362-14.22-0.308-18.941c-0.277-1.954-2.636-4.824-3.292-6.75
			c-0.602-1.768-0.524-4.157-0.335-6.158c0.693-7.332,2.62-14.749,3.593-22.074c0.405-3.05,1.466-6.441,0.69-9.446
			c-0.704-2.728-2.479-4.183-1.436-7.256c1.423-4.189,3.724-8.028,4.772-12.411c1.187-4.957,5.033-9.414,6.483-14.438
			c1.832-6.352-5.002-10.334-2.846-17.106c1.936-6.077,5.109-10.445,6.327-16.676c0.51-2.607,1.197-4.847,2.594-6.741
			c1.1-1.492,1.619-1.033,2.34-2.926c0.521-1.37,0.172-2.906,0.399-4.341c0.923-5.821,2.304-10.812-5.203-11.042
			c-0.737-1.955-0.048-2.675-1.693-3.453c-0.998-0.472-4.686,0.104-5.957,0.018c-4.737-0.319-9.51-0.76-14.237-0.071
			c-2.557,7.132,0.013,12.983-5.078,19.289c-4.343,5.379-13.701,9.109-20.662,9.374c-7.767,0.295-11.075-8.114-18.771-6.891
			c-9.175,1.458-4.429,12.502-12.035,15.5l-6.048-0.646c-4.859,6.18-6.974,14.326-11.107,21.229
			c-2.797,4.669-8.574,10.125-9.45,15.552c-0.504,3.12,2.673,6.211,1.748,9.249c-1.062,3.488-4.85,0.753-7.493,1.732
			c-6.873,2.547-0.048,13.797-10.766,11.764c-1.019-0.193-1.682-1.256-2.987-1.018c-1.406,0.256-1.747,1.904-2.801,2.761
			c-1.098,0.892-7.855,11.939-10.639,16.393c-2.937,4.699-5.342,4.284-10.144,5.269c-2.149,0.44-3.328,0.743-5.084,1.991
			c-1.609,1.145-2.674,2.589-4.568,3.304c-1.458,0.549-3.424-0.007-4.725,0.972l-2.051,3.021c5.136-4.616,7.995-1.395,8.145,4.846
			c0.161,6.771-5.74,27.89,6.737,17.333c3.502-2.963,6.136-9.807,10.752-10.471c8.961-1.288,4.173,6.88,3.75,11.259
			c-1.748,18.165,19.618-2.855,24.914-1.756c3.289,6.629,1.911,12.38,3.389,19.738c0.683,3.397-0.438,11.841,1.079,13.3
			c5.785,5.56,12.927-5.007,13.111,8.736c0.085,6.274,0.173,9.015,6.27,11.268c9.234,3.41,21.638,2.94,31.256,4.378
			c4.795,0.717,9.939,0.374,15.038,0.576c7.119,0.282,8.535-0.444,9.327,6.927c0.229,2.136,0.852,4.553,0.891,6.797
			c3.399,0.629,4.127-2.556,6.782-3.55c2.187-0.818,5.518-1.164,8.006-0.797c5.23,0.772,9.225,5.109,15.02,5.643
			c6.051,0.556,8.739-0.873,12.506-5.575c2.003-2.5,1.13-3.84,4.492-5.507c9.17-4.546,16.757-1.073,20.479,7.814
			C502.892,371.481,506.209,378.243,497.104,379.694z"/>
	</g>
</g>
<g id="green-line_1_">
	<polyline id="green-line" fill="none" stroke="#A4CD39" stroke-width="4" stroke-miterlimit="10" points="514.932,300.717 
		331.383,246.043 190.239,172.74 	"/>
</g>
<g id="green-dots">
	<circle fill="#A4CD39" cx="328.084" cy="245.365" r="7.234"/>
    <circle fill="#A4CD39" cx="401.426" cy="268.066" r="7.234"/>
	<circle fill="#A4CD39" cx="515.059" cy="301.717" r="7.062"/>
</g>
<g id="white-dots">
	
		<circle id="DWELLING_CONSOLIDATION_AND_ENVIRONMENTAL__x0D_RESTORATION_IN_THE__x0D_JUAN_BOBO_STREAM" fill="#929497" stroke="#FFFFFF" stroke-width="4" stroke-miterlimit="10" cx="241.191" cy="229.282" r="5.282"/>
	
		<circle id="PASEO_URBANO_DE_LA_107" fill="#929497" stroke="#FFFFFF" stroke-width="4" stroke-miterlimit="10" cx="279.191" cy="219.282" r="5.282"/>
	
		<circle id="PUENTE_MIRADOR:_ANDALUCÍA-LA_x0D_FRANCIA_BRIDGE" fill="#929497" stroke="#FFFFFF" stroke-width="4" stroke-miterlimit="10" cx="315.19" cy="208.282" r="5.282"/>
	
		<circle id="IMPROVING_THE__x0D_ROAD_SYSTEM:__x0D_42C_x2C__42D_x2C__AND_43" fill="#929497" stroke="#FFFFFF" stroke-width="4" stroke-miterlimit="10" cx="420.19" cy="248.282" r="5.282"/>
	
		<circle id="PARQUE_DE_LA__x0D_IMAGINACIÓN" fill="#929497" stroke="#FFFFFF" stroke-width="4" stroke-miterlimit="10" cx="437.19" cy="243.282" r="5.282"/>
	
		<circle id="PARQUE_LINEAL__x0D_LA_HERRERA" fill="#929497" stroke="#FFFFFF" stroke-width="4" stroke-miterlimit="10" cx="434.19" cy="296.282" r="5.282"/>
	
		<circle id="PARQUE_BIBLIOTECA__x0D_ESPAÑA_x2C__SANTO_DOMINGO" fill="#929497" stroke="#FFFFFF" stroke-width="4" stroke-miterlimit="10" cx="502.19" cy="269.282" r="5.282"/>
	
		<circle id="PASEO_CALLE_106_x2C___x0D_URBAN_STREET__x0D_PROMENADE" fill="#929497" stroke="#FFFFFF" stroke-width="4" stroke-miterlimit="10" cx="518.19" cy="306.282" r="5.282"/>
	
		<circle id="SANTO_DOMINGO__x0D_SAVIO_CEDEZO" fill="#929497" stroke="#FFFFFF" stroke-width="4" stroke-miterlimit="10" cx="526.19" cy="314.282" r="5.282"/>
	
		<circle id="GRANIZAL_SPORTS__x0D_COMPLEX" fill="#929497" stroke="#FFFFFF" stroke-width="4" stroke-miterlimit="10" cx="475.19" cy="352.282" r="5.282"/>
</g>

<circle id="blue-dot" fill="#55B6E6" cx="190.239" cy="172.74" r="7.234"/>

<g id="area_1_">
	<path id="area_4_" fill="none" stroke="#D0D2D3" stroke-width="3" stroke-miterlimit="10" d="M208.076,221.307
		c0.127,12.408-12.955,20.742-20.786,29.15c-6.017,6.462-12.146,9.363-3.452,15.633c5.27,3.801,10.611,11.538,19.068,8.279
		c6.454-2.489,5.008-14.254,11.295-15.9c9.209-2.41,8.994,10.444,11.547,15.643c2.111,4.301,4.377,7.145,9.285,5.944
		c6.278-1.538,8.194-12.456,9.193-17.72c0.574-3.028,2.225-12.141,6.934-11.527c4.057,0.531,3.458,33.002,14.744,17.783
		c1.998-2.694,2.687-9.133,7.953-8.781c8.316,0.553-3.281,33.1,0.49,40.661c6.646,13.327,14.854-8.878,17.189-13.613
		c1.774-3.597,3.83-10.546,6.703-13.128c5.135-4.615,7.995-1.395,8.145,4.847c0.16,6.771-5.74,27.89,6.736,17.333
		c3.502-2.963,6.137-9.807,10.753-10.471c8.961-1.289,4.173,6.88,3.751,11.258c-1.75,18.166,19.617-2.855,24.912-1.755
		c3.29,6.629,1.912,12.38,3.39,19.737c0.683,3.398-0.438,11.842,1.079,13.3c5.785,5.56,12.927-5.006,13.111,8.737
		c0.084,6.273,0.172,9.015,6.27,11.267c9.234,3.411,21.638,2.94,31.256,4.378c4.795,0.717,9.939,0.375,15.037,0.576
		c7.119,0.282,8.535-0.444,9.328,6.927c0.229,2.137,0.852,4.553,0.891,6.797c3.399,0.63,4.127-2.556,6.782-3.55
		c2.187-0.818,5.517-1.163,8.006-0.796c5.229,0.771,9.224,5.109,15.019,5.642c6.051,0.557,8.74-0.873,12.508-5.575
		c2.002-2.5,1.129-3.84,4.491-5.507c9.17-4.545,16.757-1.072,20.479,7.815c2.708,6.463,6.025,13.224-3.08,14.675
		c5.717,3.337,11.844,2.717,11.83-5.14c-0.006-3.154-2.055-6.3-1.908-9.2c0.183-3.602,3.443-6.438,4.688-9.711
		c3.593-9.451-1.996-19.317,7.023-25.913c5.104-3.733,12.031-4.967,15.074-11.036c4.47-8.921,0.425-18.877,1.235-28.185
		c0.821-9.438,8.448-13.115,13.931-19.838c5.363-6.577,8.588-10.988,8.795-19.227c0.248-9.903,0.871-16.345-2.932-25.368
		c-3.053-7.244-6.047-14.52-9.395-21.635c-3.11-6.607-8.266-12.414-11.052-18.999c-1.373-3.243-1.767-9.759-4.783-11.577
		c-3.918-2.363-7.569,1.554-10.833-0.461c-8.734-5.418-2.982-15.144,0.938-20.627c4.088-5.718,0.789-4.421-2.842-8.89
		c-3.656-4.5-1.428-5.782-7.953-6.907c-4.357-0.751-6.467,0.306-10.479-3.062c-2.752-2.31-7.507-27.591-15.035-13.49
		c-2.537,4.75,1.752,9.002,0.732,13.861c-0.984,4.691-6.262,8.138-10.464,9.691c-10.335,3.82-22.089-0.32-32.774,1.236
		c-2.556,7.132,0.014,12.983-5.077,19.289c-4.343,5.379-13.702,9.109-20.663,9.373c-7.766,0.295-11.074-8.113-18.771-6.891
		c-9.175,1.457-4.429,12.502-12.035,15.5c-4.77,1.877-16.96-3.727-21.909-4.891c-16.518-3.885-37.299-0.062-51.229-11.552
		c-3.828-3.156-8.439-5.28-12.367-8.53c-4.722-3.907-4.946-6.561-10.152-2.806c-3.592,2.591-4.541,7.646-8.085,10.26
		c-4.979,3.675-9.265,1.124-14.555,0.689c-5.118-0.42-10.663,0.416-15.903,0.09c-4.635-0.288-14.177-3.956-18.472-1.417
		c-2.751,1.626-1.268,5.005-3.915,5.946c-2.023,0.721-3.942-1.574-6.298-1.929c-3.503,8.634-8.436,16.708-11.958,25.308
		C205.455,203.231,207.971,210.906,208.076,221.307z"/>
</g>
</svg>
