<?xml version="1.0" encoding="utf-8"?>
<!-- Generator: Adobe Illustrator 15.1.0, SVG Export Plug-In . SVG Version: 6.00 Build 0)  -->
<!DOCTYPE svg PUBLIC "-//W3C//DTD SVG 1.1//EN" "http://www.w3.org/Graphics/SVG/1.1/DTD/svg11.dtd">
<svg version="1.1" id="Layer_1" xmlns="http://www.w3.org/2000/svg" xmlns:xlink="http://www.w3.org/1999/xlink" x="0px" y="0px"
	 width="774.25px" height="737.706px" viewBox="0 0 774.25 737.706" enable-background="new 0 0 774.25 737.706"
	 xml:space="preserve">
<g>
	<rect x="415.25" y="0.624" fill="#F2F2F2" width="150" height="460"/>
	<text transform="matrix(0 1 -1 0 9.251 222.3164)" fill="#231F20" font-family="'FlamaSemicondensed-Book'" font-size="14">1990</text>
	<text transform="matrix(0 1 -1 0 39.1279 223.7261)" fill="#231F20" font-family="'FlamaSemicondensed-Book'" font-size="14">1991</text>
	<text transform="matrix(0 1 -1 0 69.0029 222.7354)" fill="#231F20" font-family="'FlamaSemicondensed-Book'" font-size="14">1992</text>
	<text transform="matrix(0 1 -1 0 98.8799 222.5225)" fill="#231F20" font-family="'FlamaSemicondensed-Book'" font-size="14">1993</text>
	<text transform="matrix(0 1 -1 0 128.7568 222.3818)" fill="#231F20" font-family="'FlamaSemicondensed-Book'" font-size="14">1994</text>
	<text transform="matrix(0 1 -1 0 158.6318 222.5435)" fill="#231F20" font-family="'FlamaSemicondensed-Book'" font-size="14">1995</text>
	<text transform="matrix(0 1 -1 0 188.5088 222.4556)" fill="#231F20" font-family="'FlamaSemicondensed-Book'" font-size="14">1996</text>
	<text transform="matrix(0 1 -1 0 218.3838 222.7954)" fill="#231F20" font-family="'FlamaSemicondensed-Book'" font-size="14">1997</text>
	<text transform="matrix(0 1 -1 0 248.2607 222.4697)" fill="#231F20" font-family="'FlamaSemicondensed-Book'" font-size="14">1998</text>
	<text transform="matrix(0 1 -1 0 278.1377 222.4629)" fill="#231F20" font-family="'FlamaSemicondensed-Book'" font-size="14">1999</text>
	<text transform="matrix(0 1 -1 0 308.0127 220.9062)" fill="#231F20" font-family="'FlamaSemicondensed-Book'" font-size="14">2000</text>
	<text transform="matrix(1 0 0 1 8.5332 180.9443)" fill="#BBBDBF" font-family="'FlamaSemicondensed-Book'" font-size="10">1000</text>
	<text transform="matrix(1 0 0 1 8.5332 27.9443)" fill="#BBBDBF" font-family="'FlamaSemicondensed-Book'" font-size="10">8000</text>
	<text transform="matrix(1 0 0 1 8.5332 10.9443)" fill="#DB4145" font-family="'FlamaSemicondensed-Book'" font-size="12">MEDEllÍN HOMICIDES</text>
	<text transform="matrix(1 0 0 1 72.25 544.2061)" fill="#A6A8AC" font-family="'FlamaSemicondensed-Book'" font-size="12">LOCAL DEVELOPMENT PLANS:</text>
	<text transform="matrix(1 0 0 1 8.5332 104.4443)" fill="#BBBDBF" font-family="'FlamaSemicondensed-Book'" font-size="10">4000</text>
	<text transform="matrix(0 1 -1 0 337.8896 222.3135)" fill="#231F20" font-family="'FlamaSemicondensed-Book'" font-size="14">2001</text>
	<text transform="matrix(0 1 -1 0 367.7666 221.3252)" fill="#231F20" font-family="'FlamaSemicondensed-Book'" font-size="14">2002</text>
	<text transform="matrix(0 1 -1 0 397.6416 221.1113)" fill="#231F20" font-family="'FlamaSemicondensed-Book'" font-size="14">2003</text>
	<text transform="matrix(0 1 -1 0 427.5186 220.9717)" fill="#231F20" font-family="'FlamaSemicondensed-Book'" font-size="14">2004</text>
	<text transform="matrix(0 1 -1 0 457.3955 221.1328)" fill="#231F20" font-family="'FlamaSemicondensed-Book'" font-size="14">2005</text>
	<text transform="matrix(0 1 -1 0 487.2705 221.0449)" fill="#231F20" font-family="'FlamaSemicondensed-Book'" font-size="14">2006</text>
	<text transform="matrix(0 1 -1 0 517.1475 221.3828)" fill="#231F20" font-family="'FlamaSemicondensed-Book'" font-size="14">2007</text>
	<text transform="matrix(0 1 -1 0 547.0244 221.0596)" fill="#231F20" font-family="'FlamaSemicondensed-Book'" font-size="14">2008</text>
	<text transform="matrix(0 1 -1 0 576.8994 221.0527)" fill="#231F20" font-family="'FlamaSemicondensed-Book'" font-size="14">2009</text>
	<text transform="matrix(0 1 -1 0 606.7764 222.5322)" fill="#231F20" font-family="'FlamaSemicondensed-Book'" font-size="14">2010</text>
	<text transform="matrix(0 1 -1 0 636.6514 223.9023)" fill="#231F20" font-family="'FlamaSemicondensed-Book'" font-size="14">2011</text>
	<text transform="matrix(0 1 -1 0 666.5283 222.9609)" fill="#231F20" font-family="'FlamaSemicondensed-Book'" font-size="14">2012</text>
	<text transform="matrix(0 1 -1 0 696.4053 222.748)" fill="#231F20" font-family="'FlamaSemicondensed-Book'" font-size="14">2013</text>
	<text transform="matrix(0 1 -1 0 726.2803 222.6074)" fill="#231F20" font-family="'FlamaSemicondensed-Book'" font-size="14">2014</text>
	<text transform="matrix(0 1 -1 0 756.1572 222.7686)" fill="#231F20" font-family="'FlamaSemicondensed-Book'" font-size="14">2015</text>
	<polyline fill="none" stroke="#BBBDBF" stroke-width="0.5" stroke-miterlimit="10" points="774.25,208.701 0.25,208.701 
		0.25,0.624 	"/>
	<line fill="none" stroke="#BBBDBF" stroke-width="0.5" stroke-miterlimit="10" x1="0.25" y1="264.013" x2="774.25" y2="264.013"/>
	
		<line fill="none" stroke="#231F20" stroke-width="0.5" stroke-miterlimit="10" x1="415.25" y1="460.624" x2="565.25" y2="460.624"/>
	<g>
		<g>
			
				<line fill="none" stroke="#D1D2D3" stroke-width="0.5" stroke-miterlimit="10" x1="39.128" y1="176.624" x2="40.628" y2="176.624"/>
			
				<line fill="none" stroke="#D1D2D3" stroke-width="0.5" stroke-miterlimit="10" stroke-dasharray="3.0005,4.0007" x1="44.628" y1="176.624" x2="770.75" y2="176.624"/>
			
				<line fill="none" stroke="#D1D2D3" stroke-width="0.5" stroke-miterlimit="10" x1="772.75" y1="176.624" x2="774.25" y2="176.624"/>
		</g>
	</g>
	<g>
		<g>
			
				<line fill="none" stroke="#D1D2D3" stroke-width="0.5" stroke-miterlimit="10" x1="39.128" y1="100.624" x2="40.628" y2="100.624"/>
			
				<line fill="none" stroke="#D1D2D3" stroke-width="0.5" stroke-miterlimit="10" stroke-dasharray="3.0005,4.0007" x1="44.628" y1="100.624" x2="770.75" y2="100.624"/>
			
				<line fill="none" stroke="#D1D2D3" stroke-width="0.5" stroke-miterlimit="10" x1="772.75" y1="100.624" x2="774.25" y2="100.624"/>
		</g>
	</g>
	<g>
		<g>
			
				<line fill="none" stroke="#D1D2D3" stroke-width="0.5" stroke-miterlimit="10" x1="39.128" y1="23.624" x2="40.628" y2="23.624"/>
			
				<line fill="none" stroke="#D1D2D3" stroke-width="0.5" stroke-miterlimit="10" stroke-dasharray="3.0005,4.0007" x1="44.628" y1="23.624" x2="770.75" y2="23.624"/>
			
				<line fill="none" stroke="#D1D2D3" stroke-width="0.5" stroke-miterlimit="10" x1="772.75" y1="23.624" x2="774.25" y2="23.624"/>
		</g>
	</g>
	<polyline fill="none" stroke="#DB4145" stroke-width="2" stroke-miterlimit="10" points="9.251,48.702 43.507,62.181 76.392,69.81 
		102.426,88.629 134.073,100.836 159.976,107.448 191.491,119.655 223.006,125.494 257.262,122.198 288.777,123.724 
		355.917,109.991 417.578,172.043 455.521,180.944 488.089,178.655 517.604,180.944 549.496,175.604 598.447,149.155 
		629.494,151.698 662.443,168.483 702.584,174.587 	"/>
	<line fill="none" stroke="#231F20" stroke-miterlimit="10" x1="162.533" y1="269.886" x2="162.533" y2="296.061"/>
	<circle fill="none" stroke="#231F20" stroke-width="4" stroke-miterlimit="10" cx="162.532" cy="299.261" r="5.282"/>
	<line fill="none" stroke="#231F20" stroke-miterlimit="10" x1="282.25" y1="548.886" x2="282.25" y2="575.061"/>
	<circle fill="none" stroke="#231F20" stroke-width="4" stroke-miterlimit="10" cx="282.249" cy="578.261" r="5.282"/>
	<rect x="181.752" y="294.978" fill="none" width="82.426" height="94.588"/>
	<text transform="matrix(1 0 0 1 181.752 304.8843)"><tspan x="0" y="0" fill="#231F20" font-family="'RobotoCondensed-Light'" font-size="13">Metro de </tspan><tspan x="0" y="15.6" fill="#231F20" font-family="'RobotoCondensed-Light'" font-size="13">Medellín </tspan><tspan x="0" y="31.199" fill="#231F20" font-family="'RobotoCondensed-Light'" font-size="13">opening</tspan></text>
	<line fill="none" stroke="#231F20" stroke-miterlimit="10" x1="431.25" y1="269.886" x2="431.25" y2="296.061"/>
	<circle fill="none" stroke="#8CC541" stroke-width="4" stroke-miterlimit="10" cx="431.249" cy="299.261" r="5.282"/>
	<rect x="450.469" y="294.978" fill="none" width="82.426" height="94.588"/>
	<text transform="matrix(1 0 0 1 450.4688 304.8843)"><tspan x="0" y="0" fill="#231F20" font-family="'RobotoCondensed-Light'" font-size="13">Metrocable</tspan><tspan x="0" y="15.6" fill="#231F20" font-family="'RobotoCondensed-Light'" font-size="13">Line K</tspan><tspan x="0" y="31.199" fill="#231F20" font-family="'RobotoCondensed-Light'" font-size="13">Santo Domingo</tspan></text>
	<rect x="417.02" y="471.978" fill="none" width="126.842" height="59.646"/>
	<text transform="matrix(1 0 0 1 417.0195 481.8838)"><tspan x="0" y="0" fill="#231F20" font-family="'RobotoCondensed-Regular'" font-size="13">2004–2008</tspan><tspan x="0" y="15.6" fill="#231F20" font-family="'RobotoCondensed-Light'" font-size="13">North-Eastern Integral </tspan><tspan x="0" y="31.199" fill="#231F20" font-family="'RobotoCondensed-Light'" font-size="13">Urban Project</tspan></text>
	<rect x="300.903" y="575.061" fill="none" width="301.347" height="162.646"/>
	<text transform="matrix(1 0 0 1 300.9033 584.9668)"><tspan x="0" y="0" fill="#231F20" font-family="'RobotoCondensed-Regular'" font-size="13">1998–2000</tspan><tspan x="0" y="15.6" fill="#231F20" font-family="'RobotoCondensed-Regular'" font-size="13">Medellín: for a more human city</tspan><tspan x="0" y="31.199" fill="#231F20" font-family="'RobotoCondensed-Light'" font-size="13">The plan conciveves equity and solidarity as the main </tspan><tspan x="0" y="46.8" fill="#231F20" font-family="'RobotoCondensed-Light'" font-size="13">objectives. During this phase is define the first P.O.T. (land </tspan><tspan x="0" y="62.399" fill="#231F20" font-family="'RobotoCondensed-Light'" font-size="13">use and regulation plan) valid for 12 years and the Parque de </tspan><tspan x="0" y="78" fill="#231F20" font-family="'RobotoCondensed-Light'" font-size="13">los Pies Descalzos (Barefoot Park) is built: with this park </tspan><tspan x="0" y="93.6" fill="#231F20" font-family="'RobotoCondensed-Light'" font-size="13">began the reflections on the role of public space in the city.</tspan></text>
	<rect x="628.469" y="335.3" fill="none" width="82.426" height="49.683"/>
	<text transform="matrix(1 0 0 1 628.4688 345.2061)"><tspan x="0" y="0" fill="#231F20" font-family="'RobotoCondensed-Light'" font-size="13">Metrocable</tspan><tspan x="0" y="15.6" fill="#231F20" font-family="'RobotoCondensed-Light'" font-size="13">Line L</tspan><tspan x="0" y="31.199" fill="#231F20" font-family="'RobotoCondensed-Light'" font-size="13">Arvi Park</tspan></text>
	<line fill="none" stroke="#231F20" stroke-miterlimit="10" x1="551.248" y1="269.886" x2="551.248" y2="394.714"/>
	<circle fill="none" stroke="#FEDE50" stroke-width="4" stroke-miterlimit="10" cx="551.249" cy="399.996" r="5.282"/>
	<line fill="none" stroke="#231F20" stroke-miterlimit="10" x1="611.682" y1="269.886" x2="611.682" y2="335.819"/>
	<circle fill="none" stroke="#C8B299" stroke-width="4" stroke-miterlimit="10" cx="611.681" cy="341.103" r="5.282"/>
	<line fill="none" stroke="#231F20" stroke-miterlimit="10" x1="671.249" y1="269.886" x2="671.249" y2="295.203"/>
	<circle fill="none" stroke="#29ABE2" stroke-width="4" stroke-miterlimit="10" cx="671.249" cy="299.261" r="5.282"/>
	<rect x="570.469" y="395.714" fill="none" width="82.426" height="52.82"/>
	<text transform="matrix(1 0 0 1 570.4688 405.6201)"><tspan x="0" y="0" fill="#231F20" font-family="'RobotoCondensed-Light'" font-size="13">Metrocable</tspan><tspan x="0" y="15.6" fill="#231F20" font-family="'RobotoCondensed-Light'" font-size="13">Line J</tspan><tspan x="0" y="31.199" fill="#231F20" font-family="'RobotoCondensed-Light'" font-size="13">San Javier</tspan></text>
	<rect x="690.113" y="294.978" fill="none" width="82.426" height="42.82"/>
	<text transform="matrix(1 0 0 1 690.1143 304.8843)"><tspan x="0" y="0" fill="#231F20" font-family="'RobotoCondensed-Light'" font-size="13">Metroplus</tspan><tspan x="0" y="15.6" fill="#231F20" font-family="'RobotoCondensed-Light'" font-size="13">Line MP1</tspan></text>
	<rect x="252.25" y="535.58" fill="#D1D2D3" width="60" height="10.611"/>
	<rect x="314.146" y="535.58" fill="#BBBDBF" width="91" height="10.611"/>
	<rect x="407.043" y="535.58" fill="#A6A8AC" width="115.281" height="10.611"/>
	<rect x="524.221" y="535.58" fill="#929497" width="115.281" height="10.611"/>
	<rect x="641.398" y="535.58" fill="#808184" width="120.852" height="10.611"/>
</g>
</svg>
