<?xml version="1.0" encoding="utf-8"?>
<!-- Generator: Adobe Illustrator 15.1.0, SVG Export Plug-In . SVG Version: 6.00 Build 0)  -->
<!DOCTYPE svg PUBLIC "-//W3C//DTD SVG 1.1//EN" "http://www.w3.org/Graphics/SVG/1.1/DTD/svg11.dtd">
<svg version="1.1" id="Layer_1" xmlns="http://www.w3.org/2000/svg" xmlns:xlink="http://www.w3.org/1999/xlink" x="0px" y="0px"
	 width="774px" height="590.637px" viewBox="0 0 774 590.637" enable-background="new 0 0 774 590.637" xml:space="preserve">
<g>
	<line fill="none" stroke="#231F20" stroke-miterlimit="10" x1="344" y1="291.215" x2="344" y2="229.502"/>
	<line fill="none" stroke="#231F20" stroke-miterlimit="10" x1="344" y1="211.025" x2="344" y2="164.502"/>
	<line fill="none" stroke="#231F20" stroke-miterlimit="10" x1="344" y1="147.027" x2="344" y2="90.758"/>
	<line fill="none" stroke="#231F20" stroke-miterlimit="10" x1="344" y1="71.281" x2="344" y2="14.459"/>
	<line fill="none" stroke="#231F20" stroke-miterlimit="10" x1="261.047" y1="412.477" x2="261.047" y2="442.406"/>
	<g>
		<text transform="matrix(0 1 -1 0 9.001 310.2422)" fill="#231F20" font-family="'FlamaSemicondensed-Book'" font-size="14">2001</text>
		<text transform="matrix(0 1 -1 0 91.6943 310.2412)" fill="#231F20" font-family="'FlamaSemicondensed-Book'" font-size="14">2002</text>
		<text transform="matrix(0 1 -1 0 174.3896 310.2422)" fill="#231F20" font-family="'FlamaSemicondensed-Book'" font-size="14">2003</text>
		<text transform="matrix(0 1 -1 0 257.083 310.2412)" fill="#231F20" font-family="'FlamaSemicondensed-Book'" font-size="14">2004</text>
		<text transform="matrix(0 1 -1 0 339.7764 310.2422)" fill="#231F20" font-family="'FlamaSemicondensed-Book'" font-size="14">2005</text>
		<text transform="matrix(0 1 -1 0 422.4697 310.2412)" fill="#231F20" font-family="'FlamaSemicondensed-Book'" font-size="14">2006</text>
		<text transform="matrix(0 1 -1 0 505.165 310.2412)" fill="#231F20" font-family="'FlamaSemicondensed-Book'" font-size="14">2007</text>
		<text transform="matrix(0 1 -1 0 587.8584 310.2422)" fill="#231F20" font-family="'FlamaSemicondensed-Book'" font-size="14">2008</text>
	</g>
	<line fill="none" stroke="#BBBDBF" stroke-width="0.5" stroke-miterlimit="10" x1="0" y1="296.369" x2="774" y2="296.369"/>
	<line fill="none" stroke="#BBBDBF" stroke-width="0.5" stroke-miterlimit="10" x1="0" y1="352.477" x2="774" y2="352.477"/>
	<line fill="none" stroke="#231F20" stroke-miterlimit="10" x1="14.283" y1="160.81" x2="14.283" y2="291.215"/>
	<circle fill="none" stroke="#231F20" stroke-width="4" stroke-miterlimit="10" cx="14.283" cy="154.402" r="5.282"/>
	<line fill="none" stroke="#231F20" stroke-miterlimit="10" x1="96.497" y1="358.477" x2="96.497" y2="395.297"/>
	<circle fill="none" stroke="#231F20" stroke-width="4" stroke-miterlimit="10" cx="96.496" cy="399.197" r="5.282"/>
	<line fill="none" stroke="#231F20" stroke-miterlimit="10" x1="261.047" y1="358.477" x2="261.047" y2="395.297"/>
	<circle fill="none" stroke="#231F20" stroke-width="4" stroke-miterlimit="10" cx="261.046" cy="399.197" r="5.282"/>
	<rect x="31.594" y="148.121" fill="none" width="118.406" height="66.043"/>
	<text transform="matrix(1 0 0 1 31.5938 158.0264)"><tspan x="0" y="0" fill="#231F20" font-family="'RobotoCondensed-Regular'" font-size="13">05.2001</tspan><tspan x="0" y="15.6" fill="#231F20" font-family="'RobotoCondensed-Light'" font-size="13">Metro do Porto receives </tspan><tspan x="0" y="31.199" fill="#231F20" font-family="'RobotoCondensed-Light'" font-size="13">the first vehicle in its </tspan><tspan x="0" y="46.8" fill="#231F20" font-family="'RobotoCondensed-Light'" font-size="13">fleet, the Eurotram 001</tspan></text>
	<rect x="115.716" y="393.395" fill="none" width="82.426" height="94.588"/>
	<text transform="matrix(1 0 0 1 115.7158 403.3008)"><tspan x="0" y="0" fill="#231F20" font-family="'RobotoCondensed-Regular'" font-size="13">06.2002 </tspan><tspan x="0" y="15.6" fill="#231F20" font-family="'RobotoCondensed-Light'" font-size="13">First regular trip </tspan><tspan x="0" y="31.199" fill="#231F20" font-family="'RobotoCondensed-Light'" font-size="13">with passengers</tspan></text>
	<rect x="526.716" y="124.352" fill="none" width="221.284" height="94.588"/>
	<text transform="matrix(1 0 0 1 526.7158 134.2573)"><tspan x="0" y="0" fill="#231F20" font-family="'RobotoCondensed-Regular'" font-size="13">05.2007</tspan><tspan x="0" y="15.6" fill="#231F20" font-family="'RobotoCondensed-Light'" font-size="13">Signing of Memorandum of Understanding </tspan><tspan x="0" y="31.199" fill="#231F20" font-family="'RobotoCondensed-Light'" font-size="13">between the Ministry of Public Works, </tspan><tspan x="0" y="46.8" fill="#231F20" font-family="'RobotoCondensed-Light'" font-size="13">Transport and Communications and the </tspan><tspan x="0" y="62.399" fill="#231F20" font-family="'RobotoCondensed-Light'" font-size="13">Junta Metropolitana do Porto related to the </tspan><tspan x="0" y="78" fill="#231F20" font-family="'RobotoCondensed-Light'" font-size="13">development of the SMLAMP</tspan></text>
	<rect x="526.716" y="230.867" fill="none" width="221.284" height="94.588"/>
	<text transform="matrix(1 0 0 1 526.7158 240.7739)"><tspan x="0" y="0" fill="#231F20" font-family="'RobotoCondensed-Regular'" font-size="13">10.2007</tspan><tspan x="0" y="15.6" fill="#231F20" font-family="'RobotoCondensed-Light'" font-size="13">Record month (to date) of the use of the </tspan><tspan x="0" y="31.199" fill="#231F20" font-family="'RobotoCondensed-Light'" font-size="13">metro network—23,691,571 passengers</tspan></text>
	<line fill="none" stroke="#231F20" stroke-miterlimit="10" x1="180.394" y1="237.011" x2="180.394" y2="291.215"/>
	<circle fill="none" stroke="#FEDE50" stroke-width="4" stroke-miterlimit="10" cx="180.394" cy="231.729" r="5.282"/>
	<line fill="none" stroke="#231F20" stroke-miterlimit="10" x1="180.394" y1="160.76" x2="180.394" y2="219.164"/>
	<circle fill="none" stroke="#29ABE2" stroke-width="4" stroke-miterlimit="10" cx="180.394" cy="155.479" r="5.282"/>
	<rect x="198.987" y="149.121" fill="none" width="132.013" height="65.043"/>
	<text transform="matrix(1 0 0 1 198.9868 159.0264)"><tspan x="0" y="0" fill="#231F20" font-family="'RobotoCondensed-Regular'" font-size="13">01.2003 </tspan><tspan x="0" y="15.6" fill="#231F20" font-family="'RobotoCondensed-Regular'" font-size="13">Trinidade—</tspan><tspan x="0" y="31.199" fill="#231F20" font-family="'RobotoCondensed-Regular'" font-size="13">Senhor de Matosinhos </tspan><tspan x="0" y="46.8" fill="#231F20" font-family="'RobotoCondensed-Light'" font-size="13">11826 meters, 18 stations</tspan></text>
	<rect x="198.987" y="225.371" fill="none" width="105.5" height="60.39"/>
	<text transform="matrix(1 0 0 1 198.9868 235.2773)"><tspan x="0" y="0" fill="#231F20" font-family="'RobotoCondensed-Regular'" font-size="13">03.2003</tspan><tspan x="0" y="15.6" fill="#231F20" font-family="'RobotoCondensed-Regular'" font-size="13">Infante Bridge</tspan></text>
	<circle fill="none" stroke="#29ABE2" stroke-width="4" stroke-miterlimit="10" cx="261.046" cy="447.689" r="5.282"/>
	<line fill="none" stroke="#231F20" stroke-miterlimit="10" x1="427.388" y1="412.477" x2="427.388" y2="449.407"/>
	<line fill="none" stroke="#231F20" stroke-miterlimit="10" x1="427.388" y1="358.477" x2="427.388" y2="395.297"/>
	<circle fill="none" stroke="#DB4145" stroke-width="4" stroke-miterlimit="10" cx="427.386" cy="399.197" r="5.282"/>
	<circle fill="none" stroke="#8CC541" stroke-width="4" stroke-miterlimit="10" cx="427.386" cy="454.689" r="5.282"/>
	<line fill="none" stroke="#231F20" stroke-miterlimit="10" x1="427.388" y1="467.477" x2="427.388" y2="489.406"/>
	<circle fill="none" stroke="#FEDE50" stroke-width="4" stroke-miterlimit="10" cx="427.386" cy="493.689" r="5.282"/>
	<line fill="none" stroke="#231F20" stroke-miterlimit="10" x1="427.388" y1="506.477" x2="427.388" y2="536.406"/>
	<circle fill="none" stroke="#A871AE" stroke-width="4" stroke-miterlimit="10" cx="427.386" cy="541.689" r="5.282"/>
	<rect x="279.44" y="394.297" fill="none" width="129.56" height="38.4"/>
	<text transform="matrix(1 0 0 1 279.4399 404.2031)"><tspan x="0" y="0" fill="#231F20" font-family="'RobotoCondensed-Regular'" font-size="13">02.2004 </tspan><tspan x="0" y="15.6" fill="#231F20" font-family="'RobotoCondensed-Regular'" font-size="13">Guindais Funicular</tspan></text>
	<line fill="none" stroke="#231F20" stroke-miterlimit="10" x1="508.662" y1="222.938" x2="508.662" y2="133.154"/>
	<line fill="none" stroke="#231F20" stroke-miterlimit="10" x1="508.667" y1="291.215" x2="508.667" y2="241.293"/>
	<circle fill="none" stroke="#231F20" stroke-width="4" stroke-miterlimit="10" cx="508.669" cy="236.011" r="5.282"/>
	<circle fill="none" stroke="#231F20" stroke-width="4" stroke-miterlimit="10" cx="508.669" cy="129.432" r="5.282"/>
	<rect x="279.44" y="442.406" fill="none" width="124.56" height="72.07"/>
	<text transform="matrix(1 0 0 1 279.4399 452.3125)"><tspan x="0" y="0" fill="#231F20" font-family="'RobotoCondensed-Regular'" font-size="13">06.2004</tspan><tspan x="0" y="15.6" fill="#231F20" font-family="'RobotoCondensed-Regular'" font-size="13">Estádio do Dragão—</tspan><tspan x="0" y="31.199" fill="#231F20" font-family="'RobotoCondensed-Regular'" font-size="13">Trindade </tspan><tspan x="0" y="46.801" fill="#231F20" font-family="'RobotoCondensed-Light'" font-size="13">3,823 meters, 18 stations</tspan></text>
	<circle fill="none" stroke="#DB4145" stroke-width="4" stroke-miterlimit="10" cx="344" cy="7.281" r="5.282"/>
	<rect x="362.204" y="2" fill="none" width="179.796" height="66.281"/>
	<text transform="matrix(1 0 0 1 362.2041 11.9053)"><tspan x="0" y="0" fill="#231F20" font-family="'RobotoCondensed-Regular'" font-size="13">03.2005</tspan><tspan x="0" y="15.6" fill="#231F20" font-family="'RobotoCondensed-Regular'" font-size="13">Senhora da Hora—</tspan><tspan x="0" y="31.199" fill="#231F20" font-family="'RobotoCondensed-Regular'" font-size="13">Pedras Rubras </tspan><tspan x="0" y="46.8" fill="#231F20" font-family="'RobotoCondensed-Light'" font-size="13">6,744 meters, 15 stations</tspan></text>
	<rect x="447.204" y="394.297" fill="none" width="179.796" height="52.393"/>
	<text transform="matrix(1 0 0 1 447.2041 404.2031)"><tspan x="0" y="0" fill="#231F20" font-family="'RobotoCondensed-Regular'" font-size="13">03.2006</tspan><tspan x="0" y="15.6" fill="#231F20" font-family="'RobotoCondensed-Regular'" font-size="13">Pedras Rubras—Póvoa do Varzim </tspan><tspan x="0" y="31.199" fill="#231F20" font-family="'RobotoCondensed-Light'" font-size="13">17,228 meters, 15 stations</tspan></text>
	<rect x="447.204" y="449.103" fill="none" width="179.796" height="52.392"/>
	<text transform="matrix(1 0 0 1 447.2041 459.0088)"><tspan x="0" y="0" fill="#231F20" font-family="'RobotoCondensed-Regular'" font-size="13">Fórum da Maia—ISMAI </tspan><tspan x="0" y="15.6" fill="#231F20" font-family="'RobotoCondensed-Light'" font-size="13">4,484 meters, 4 stations</tspan></text>
	<rect x="447.204" y="488.154" fill="none" width="232.796" height="37.482"/>
	<text transform="matrix(1 0 0 1 447.2041 498.0605)"><tspan x="0" y="0" fill="#231F20" font-family="'RobotoCondensed-Regular'" font-size="13">Pólo Universitário—Hospital de São João </tspan><tspan x="0" y="15.6" fill="#231F20" font-family="'RobotoCondensed-Light'" font-size="13">1,180 meters, 2 stations</tspan></text>
	<rect x="447.204" y="537.207" fill="none" width="232.796" height="53.43"/>
	<text transform="matrix(1 0 0 1 447.2041 547.1123)"><tspan x="0" y="0" fill="#231F20" font-family="'RobotoCondensed-Regular'" font-size="13">5.2006</tspan><tspan x="0" y="15.6" fill="#231F20" font-family="'RobotoCondensed-Regular'" font-size="13">Verdes—Aeroporto </tspan><tspan x="0" y="31.199" fill="#231F20" font-family="'RobotoCondensed-Light'" font-size="13">1,480 meters, 3 stations</tspan></text>
	<circle fill="none" stroke="#8CC541" stroke-width="4" stroke-miterlimit="10" cx="344" cy="84.58" r="5.282"/>
	<rect x="362.578" y="79.1" fill="none" width="191.431" height="72.656"/>
	<text transform="matrix(1 0 0 1 362.5781 89.0059)"><tspan x="0" y="0" fill="#231F20" font-family="'RobotoCondensed-Regular'" font-size="13">06.2005 </tspan><tspan x="0" y="15.6" fill="#231F20" font-family="'RobotoCondensed-Regular'" font-size="13">Fonte do Cuco—</tspan><tspan x="0" y="31.199" fill="#231F20" font-family="'RobotoCondensed-Regular'" font-size="13">Fórum da Maia  </tspan><tspan x="0" y="46.8" fill="#231F20" font-family="'RobotoCondensed-Light'" font-size="13">6,744 meters, 15 stations</tspan></text>
	<circle fill="none" stroke="#FEDE50" stroke-width="4" stroke-miterlimit="10" cx="344" cy="160.221" r="5.282"/>
	<rect x="362.578" y="154.74" fill="none" width="117.612" height="52.008"/>
	<text transform="matrix(1 0 0 1 362.5781 164.646)"><tspan x="0" y="0" fill="#231F20" font-family="'RobotoCondensed-Regular'" font-size="13">09.2005 </tspan><tspan x="0" y="15.6" fill="#231F20" font-family="'RobotoCondensed-Regular'" font-size="13">Câmara de Gaia </tspan><tspan x="0" y="31.199" fill="#231F20" font-family="'RobotoCondensed-Light'" font-size="13">1,180 meters, 2 stations</tspan></text>
	<circle fill="none" stroke="#FEDE50" stroke-width="4" stroke-miterlimit="10" cx="344" cy="224.221" r="5.282"/>
	<rect x="362.578" y="218.74" fill="none" width="191.431" height="79.466"/>
	<text transform="matrix(1 0 0 1 362.5781 228.646)"><tspan x="0" y="0" fill="#231F20" font-family="'RobotoCondensed-Regular'" font-size="13">12.2005 </tspan><tspan x="0" y="15.6" fill="#231F20" font-family="'RobotoCondensed-Regular'" font-size="13">João de Deus— </tspan><tspan x="0" y="31.199" fill="#231F20" font-family="'RobotoCondensed-Regular'" font-size="13">Câmara de Gaia </tspan><tspan x="0" y="46.8" fill="#231F20" font-family="'RobotoCondensed-Light'" font-size="13">405 meters, 1 station</tspan></text>
</g>
</svg>
