<?xml version="1.0" encoding="utf-8"?>
<!-- Generator: Adobe Illustrator 15.1.0, SVG Export Plug-In . SVG Version: 6.00 Build 0)  -->
<!DOCTYPE svg PUBLIC "-//W3C//DTD SVG 1.1//EN" "http://www.w3.org/Graphics/SVG/1.1/DTD/svg11.dtd">
<svg version="1.1" id="Layer_1" xmlns="http://www.w3.org/2000/svg" xmlns:xlink="http://www.w3.org/1999/xlink" x="0px" y="0px"
	 width="29.973px" height="29.974px" viewBox="0 0 29.973 29.974" enable-background="new 0 0 29.973 29.974" xml:space="preserve">
<g>
	<g>
		<circle fill="#FFFFFF" cx="14.987" cy="14.987" r="12.987"/>
		<path fill="#58595B" d="M14.986,29.974C6.723,29.974,0,23.251,0,14.987C0,6.724,6.723,0,14.986,0s14.986,6.724,14.986,14.987
			C29.973,23.251,23.25,29.974,14.986,29.974z M14.986,4C8.929,4,4,8.929,4,14.987s4.929,10.987,10.986,10.987
			s10.986-4.929,10.986-10.987S21.044,4,14.986,4z"/>
	</g>
	<g>
		<path fill="#58595B" d="M21.42,13.116v3.488h-4.626h-3.615H8.553v-3.488h4.626h3.615H21.42z"/>
	</g>
</g>
</svg>
